<?xml version="1.0" standalone="no"?>
<!DOCTYPE svg PUBLIC "-//W3C//DTD SVG 1.1//EN" "http://www.w3.org/Graphics/SVG/1.1/DTD/svg11.dtd" >
<svg>
<metadata>
Created by FontForge 20090914 at Thu May  7 13:11:41 2020
 By www-data
Copyright (c) 2016 by Typetype. Designer Ivan Gladkikh, technical designers Olga Yumartova, Olexa Volochay. All rights reserved.
</metadata>
<defs>
<font id="TTLakes-Regular" horiz-adv-x="585" >
  <font-face 
    font-family="TT Lakes"
    font-weight="400"
    font-stretch="normal"
    units-per-em="1000"
    panose-1="2 0 5 3 2 0 0 2 0 4"
    ascent="800"
    descent="-200"
    x-height="509.999"
    cap-height="700"
    bbox="-120.286 -275 1130 990"
    underline-thickness="50"
    underline-position="-100"
    unicode-range="U+000D-U+F6D4"
  />
<missing-glyph horiz-adv-x="0" 
 />
    <glyph glyph-name=".notdef" horiz-adv-x="0" 
 />
    <glyph glyph-name=".null" horiz-adv-x="0" 
 />
    <glyph glyph-name=".null" horiz-adv-x="0" 
 />
    <glyph glyph-name="nonmarkingreturn" unicode="&#xd;" horiz-adv-x="0" 
 />
    <glyph glyph-name="space" unicode=" " horiz-adv-x="195" 
 />
    <glyph glyph-name="exclam" unicode="!" horiz-adv-x="280" 
d="M130 190c-10 0 -15 5 -15 15l-5 155v325c0 10 5 15 15 15h30c10 0 15 -5 15 -15v-325l-5 -155c0 -10 -5 -15 -15 -15h-20zM160 70c10 0 15 -5 15 -15v-40c0 -10 -5 -15 -15 -15h-40c-10 0 -15 5 -15 15v40c0 10 5 15 15 15h40z" />
    <glyph glyph-name="quotedbl" unicode="&#x22;" horiz-adv-x="355" 
d="M85 475c-10 0 -15 5 -15 15v195c0 10 5 15 15 15h25c10 0 15 -5 15 -15v-195c0 -10 -5 -15 -15 -15h-25zM245 475c-10 0 -15 5 -15 15v195c0 10 5 15 15 15h25c10 0 15 -5 15 -15v-195c0 -10 -5 -15 -15 -15h-25z" />
    <glyph glyph-name="numbersign" unicode="#" horiz-adv-x="690" 
d="M160 15c-3.33301 -10 -10 -15 -20 -15h-35c-10 0 -13.333 5 -10 15l45 165h-95c-10 0 -15 5 -15 15v30c0 10 5 15 15 15h110l60 220h-95c-10 0 -15 5 -15 15v30c0 10 5 15 15 15h110l45 165c2.66699 10 9.33398 15 20.001 15h35c9.33301 0 12.666 -5 9.99902 -15
l-45 -165h190l45 165c2.66699 10 9.33398 15 20.001 15h35c9.33301 0 12.666 -5 9.99902 -15l-45 -165h95c10 0 15 -5 15 -15v-30c0 -10 -5 -15 -15 -15h-110l-60 -220h95c10 0 15 -5 15 -15v-30c0 -10 -5 -15 -15 -15h-110l-45 -165c-3.33301 -10 -10 -15 -20 -15h-35
c-10 0 -13.333 5 -10 15l45 165h-190zM410 240l60 220h-190l-60 -220h190z" />
    <glyph glyph-name="dollar" unicode="$" horiz-adv-x="710" 
d="M355 -105c-10 0 -15 5 -15 15v80h-80c-55.333 0 -98.333 15.333 -129 46s-46 73.667 -46 129v30c0 10 5 15 15 15h35c10 0 15 -5 15 -15v-30c0 -35.333 9.5 -62.5 28.5 -81.5s46.167 -28.5 81.5 -28.5h190c35.333 0 62.5 9.5 81.5 28.5s28.5 46.167 28.5 81.5v40
c0 20 -5.16699 35.667 -15.5 47s-26.833 20.666 -49.5 27.999l-300 100c-28 9.33301 -50.833 24.333 -68.5 45s-26.5 47.334 -26.5 80.001v30c0 55.333 15.333 98.333 46 129s73.667 46 129 46h65v80c0 10 5 15 15 15h30c10 0 15 -5 15 -15v-80h45
c55.333 0 98.333 -15.333 129 -46s46 -73.667 46 -129v-30c0 -10 -5 -15 -15 -15h-35c-10 0 -15 5 -15 15v30c0 35.333 -9.5 62.5 -28.5 81.5s-46.167 28.5 -81.5 28.5h-170c-35.333 0 -62.5 -9.5 -81.5 -28.5s-28.5 -46.167 -28.5 -81.5v-25
c0 -20 5.16699 -35.667 15.5 -47s26.833 -20.666 49.5 -27.999l300 -100c28 -9.33301 50.833 -24.333 68.5 -45s26.5 -47.334 26.5 -80.001v-45c0 -55.333 -15.333 -98.333 -46 -129s-73.667 -46 -129 -46h-50v-80c0 -10 -5 -15 -15 -15h-30z" />
    <glyph glyph-name="percent" unicode="%" horiz-adv-x="770" 
d="M330 505c0 -80 -40 -120 -120 -120h-40c-80 0 -120 40 -120 120v75c0 80 40 120 120 120h40c80 0 120 -40 120 -120v-75zM265 15c-2.66699 -5.33301 -5.33301 -9.16602 -8 -11.499s-6.66699 -3.5 -12 -3.5h-35c-5.33301 0 -9 1.16699 -11 3.5s-1.66699 6.16602 1 11.499
l305 670c4.66699 10 11.334 15 20.001 15h35c11.333 0 14.666 -5 9.99902 -15zM275.001 580c0 20 -5.83301 35.833 -17.5 47.5s-27.5 17.5 -47.5 17.5h-40c-20 0 -35.833 -5.83301 -47.5 -17.5s-17.5 -27.5 -17.5 -47.5v-75c0 -20 5.83301 -35.833 17.5 -47.5
s27.5 -17.5 47.5 -17.5h40c20 0 35.833 5.83301 47.5 17.5s17.5 27.5 17.5 47.5v75zM720.001 120c0 -80 -40 -120 -120 -120h-40c-80 0 -120 40 -120 120v75c0 80 40 120 120 120h40c80 0 120 -40 120 -120v-75zM665.001 195c0 20 -5.83301 35.833 -17.5 47.5
s-27.5 17.5 -47.5 17.5h-40c-20 0 -35.833 -5.83301 -47.5 -17.5s-17.5 -27.5 -17.5 -47.5v-75c0 -20 5.83301 -35.833 17.5 -47.5s27.5 -17.5 47.5 -17.5h40c20 0 35.833 5.83301 47.5 17.5s17.5 27.5 17.5 47.5v75z" />
    <glyph glyph-name="ampersand" unicode="&#x26;" horiz-adv-x="674" 
d="M310 55c20 0 38.668 4.16699 56.001 12.5s32.666 17.5 45.999 27.5c15.333 12 29.333 25.333 42 40l-194 180h-15c-35.333 0 -62.5 -9.5 -81.5 -28.5s-28.5 -46.167 -28.5 -81.5v-40c0 -35.333 9.5 -62.5 28.5 -81.5s46.167 -28.5 81.5 -28.5h65zM195.001 510
c0 -22.667 6.99805 -42.9961 20.998 -60.9961s28.667 -34.333 44 -49l235 -220l65 75c4.66699 4.66699 9.66699 4.66699 15 0l30 -30c4.66699 -5.33301 4.66699 -10.333 0 -15l-65 -75l130 -120c2.66699 -2.66699 3.83398 -5.83398 3.50098 -9.50098
s-3.16602 -5.5 -8.49902 -5.5h-55c-7.33301 0 -12.833 1.16699 -16.5 3.5s-8.16699 6.16602 -13.5 11.499l-80 75c-16 -18.667 -34 -35.334 -54 -50.001c-17.333 -12.667 -37.333 -24.167 -60 -34.5s-48 -15.5 -76 -15.5h-65c-55.333 0 -98.333 15.333 -129 46
s-46 73.667 -46 129v40c0 36 6.5 64.833 19.5 86.5s27.167 38.167 42.5 49.5c18 13.333 39 22.666 63 27.999v6c-12.667 9.33301 -23.667 20.666 -33 33.999c-8 11.333 -15.333 25.333 -22 42s-10 36.334 -10 59.001v25c0 55.333 15.333 98.333 46 129s73.667 46 129 46h45
c55.333 0 98.333 -15.333 129 -46s46 -73.667 46 -129c0 -10 -5 -15 -15 -15h-35c-10 0 -15 5 -15 15c0 35.333 -9.5 62.5 -28.5 81.5s-46.167 28.5 -81.5 28.5h-45c-35.333 0 -62.5 -9.5 -81.5 -28.5s-28.5 -46.167 -28.5 -81.5v-25z" />
    <glyph glyph-name="quotesingle" unicode="'" horiz-adv-x="195" 
d="M85 475c-10 0 -15 5 -15 15v195c0 10 5 15 15 15h25c10 0 15 -5 15 -15v-195c0 -10 -5 -15 -15 -15h-25z" />
    <glyph glyph-name="parenleft" unicode="(" horiz-adv-x="355" 
d="M160 15c0 -38 10.5 -67.5 31.5 -88.5s50.5 -31.5 88.5 -31.5h20c10 0 15 -5 15 -15v-35c0 -10 -5 -15 -15 -15h-20c-58 0 -103.333 16.333 -136 49s-49 78 -49 136v530c0 58 16.333 103.333 49 136s78 49 136 49h20c10 0 15 -5 15 -15v-35c0 -10 -5 -15 -15 -15h-20
c-38 0 -67.5 -10.5 -88.5 -31.5s-31.5 -50.5 -31.5 -88.5v-530z" />
    <glyph glyph-name="parenright" unicode=")" horiz-adv-x="355" 
d="M195 545c0 38 -10.5 67.5 -31.5 88.5s-50.5 31.5 -88.5 31.5h-20c-10 0 -15 5 -15 15v35c0 10 5 15 15 15h20c58 0 103.333 -16.333 136 -49s49 -78 49 -136v-530c0 -58 -16.333 -103.333 -49 -136s-78 -49 -136 -49h-20c-10 0 -15 5 -15 15v35c0 10 5 15 15 15h20
c38 0 67.5 10.5 88.5 31.5s31.5 50.5 31.5 88.5v530z" />
    <glyph glyph-name="asterisk" unicode="*" horiz-adv-x="360" 
d="M190 700c10 0 15 -5 15 -15v-95h110c10 0 15 -5 15 -15v-25c0 -10 -5 -15 -15 -15h-95l75 -90c5.33301 -5.33301 5.33301 -10.333 0 -15l-25 -20c-6 -4.66699 -11 -4.66699 -15 0l-75 90l-75 -90c-4 -4.66699 -9 -4.66699 -15 0l-25 20
c-5.33301 4.66699 -5.33301 9.66699 0 15l75 90h-95c-10 0 -15 5 -15 15v25c0 10 5 15 15 15h110v95c0 10 5 15 15 15h20z" />
    <glyph glyph-name="plus" unicode="+" horiz-adv-x="445" 
d="M255 340h145c10 0 15 -5 15 -15v-35c0 -10 -5 -15 -15 -15h-145v-155c0 -10 -5 -15 -15 -15h-35c-10 0 -15 5 -15 15v155h-145c-10 0 -15 5 -15 15v35c0 10 5 15 15 15h145v155c0 10 5 15 15 15h35c10 0 15 -5 15 -15v-155z" />
    <glyph glyph-name="comma" unicode="," horiz-adv-x="161" 
d="M116 20c0 -7.33301 -1.16699 -13.333 -3.5 -18l-11.5 -22l-35 -70c-1.33301 -2.66699 -2.83301 -5 -4.5 -7s-5.16699 -3 -10.5 -3h-15c-6 0 -7.66699 3.33301 -5 10l45 90h-15c-10 0 -15 5 -15 15v40c0 10 5 15 15 15h40c10 0 15 -5 15 -15v-35z" />
    <glyph glyph-name="hyphen" unicode="-" horiz-adv-x="425" 
d="M45 275c-10 0 -15 5 -15 15v35c0 10 5 15 15 15h335c10 0 15 -5 15 -15v-35c0 -10 -5 -15 -15 -15h-335z" />
    <glyph glyph-name="period" unicode="." horiz-adv-x="160" 
d="M100 70c10 0 15 -5 15 -15v-40c0 -10 -5 -15 -15 -15h-40c-10 0 -15 5 -15 15v40c0 10 5 15 15 15h40z" />
    <glyph glyph-name="slash" unicode="/" horiz-adv-x="374" 
d="M97 15c-4 -10 -10.667 -15 -20 -15h-35c-10.667 0 -14 5 -10 15l245 670c4 10 10.667 15 20 15h35c10.667 0 14 -5 10 -15z" />
    <glyph glyph-name="zero" unicode="0" horiz-adv-x="725" 
d="M565 535c0 35.333 -9.5 62.5 -28.5 81.5s-46.167 28.5 -81.5 28.5h-185c-35.333 0 -62.5 -9.5 -81.5 -28.5s-28.5 -46.167 -28.5 -81.5v-370c0 -35.333 9.5 -62.5 28.5 -81.5s46.167 -28.5 81.5 -28.5h185c35.333 0 62.5 9.5 81.5 28.5s28.5 46.167 28.5 81.5v370z
M630 165c0 -55.333 -15.333 -98.333 -46 -129s-73.667 -46 -129 -46h-185c-55.333 0 -98.333 15.333 -129 46s-46 73.667 -46 129v370c0 55.333 15.333 98.333 46 129s73.667 46 129 46h185c55.333 0 98.333 -15.333 129 -46s46 -73.667 46 -129v-370z" />
    <glyph glyph-name="one" unicode="1" horiz-adv-x="355" 
d="M185 635h-150c-10 0 -15 5 -15 15v35c0 10 5 15 15 15h200c10 0 15 -5 15 -15v-670c0 -10 -5 -15 -15 -15h-35c-10 0 -15 5 -15 15v620z" />
    <glyph glyph-name="two" unicode="2" horiz-adv-x="650" 
d="M175 70v-4.99902h375c10 0 15 -5 15 -15v-35c0 -10 -5 -15 -15 -15h-460c-10 0 -15 5 -15 15v30c0 7.33301 1.5 12.833 4.5 16.5l10.5 13.5l345 315c20 18 35.833 34.333 47.5 49s17.5 33.334 17.5 56.001v40c0 35.333 -9.5 62.5 -28.5 81.5s-46.167 28.5 -81.5 28.5
h-140c-35.333 0 -62.5 -9.5 -81.5 -28.5s-28.5 -46.167 -28.5 -81.5v-30c0 -10 -5 -15 -15 -15h-35c-10 0 -15 5 -15 15v30c0 55.333 15.333 98.333 46 129s73.667 46 129 46h140c55.333 0 98.333 -15.333 129 -46s46 -73.667 46 -129v-40c0 -17.333 -2.33301 -33 -7 -47
s-10.667 -26.833 -18 -38.5s-15.833 -22.334 -25.5 -32.001s-19.5 -18.834 -29.5 -27.501z" />
    <glyph glyph-name="three" unicode="3" horiz-adv-x="650" 
d="M225 350c-10 0 -15 5 -15 15v20c0 7.33301 1.5 12.833 4.5 16.5l10.5 13.5l230 215v5h-350c-10 0 -15 5 -15 15v35c0 10 5 15 15 15h440c10 0 15 -5 15 -15v-20c0 -7.33301 -1.5 -12.833 -4.5 -16.5l-10.5 -13.5l-230 -215v-5h80c55.333 0 98.333 -15.333 129 -46
s46 -73.667 46 -129v-75c0 -55.333 -15.333 -98.333 -46 -129s-73.667 -46 -129 -46h-150c-55.333 0 -98.333 15.333 -129 46s-46 73.667 -46 129v30c0 10 5 15 15 15h35c10 0 15 -5 15 -15v-30c0 -35.333 9.5 -62.5 28.5 -81.5s46.167 -28.5 81.5 -28.5h150
c35.333 0 62.5 9.5 81.5 28.5s28.5 46.167 28.5 81.5v75c0 35.333 -9.5 62.5 -28.5 81.5s-46.167 28.5 -81.5 28.5h-170z" />
    <glyph glyph-name="four" unicode="4" horiz-adv-x="615" 
d="M390 685c8 10 16.334 15 25.001 15h55c10 0 15 -5 15 -15v-440h80c10 0 15 -5 15 -15v-35c0 -10 -5 -15 -15 -15h-80v-165c0 -10 -5 -15 -15 -15h-35c-10 0 -15 5 -15 15v165h-380c-10 0 -15 5 -15 15v30c0 5.33301 1.16699 10 3.5 14s6.16602 9.33301 11.499 16z
M115.001 245h305v375h-5l-300 -370v-5z" />
    <glyph glyph-name="five" unicode="5" horiz-adv-x="650" 
d="M170 415h230c55.333 0 98.333 -15.333 129 -46s46 -73.667 46 -129v-75c0 -55.333 -15.333 -98.333 -46 -129s-73.667 -46 -129 -46h-150c-55.333 0 -98.333 15.333 -129 46s-46 73.667 -46 129v30c0 10 5 15 15 15h35c10 0 15 -5 15 -15v-30
c0 -35.333 9.5 -62.5 28.5 -81.5s46.167 -28.5 81.5 -28.5h150c35.333 0 62.5 9.5 81.5 28.5s28.5 46.167 28.5 81.5v75c0 35.333 -9.5 62.5 -28.5 81.5s-46.167 28.5 -81.5 28.5h-280c-10 0 -15 5 -15 15v320c0 10 5 15 15 15h415c10 0 15 -5 15 -15v-35
c0 -10 -5 -15 -15 -15h-365v-220z" />
    <glyph glyph-name="six" unicode="6" horiz-adv-x="685" 
d="M600 165c0 -55.333 -15.333 -98.333 -46 -129s-73.667 -46 -129 -46h-155c-55.333 0 -98.333 15.333 -129 46s-46 73.667 -46 129v370c0 55.333 15.333 98.333 46 129s73.667 46 129 46h135c55.333 0 98.333 -15.333 129 -46s46 -73.667 46 -129v-20
c0 -10 -5 -15 -15 -15h-35c-10 0 -15 5 -15 15v20c0 35.333 -9.5 62.5 -28.5 81.5s-46.167 28.5 -81.5 28.5h-135c-35.333 0 -62.5 -9.5 -81.5 -28.5s-28.5 -46.167 -28.5 -81.5v-125h265c55.333 0 98.333 -15.333 129 -46s46 -73.667 46 -129v-70zM425 55
c35.333 0 62.5 9.5 81.5 28.5s28.5 46.167 28.5 81.5v70c0 35.333 -9.5 62.5 -28.5 81.5s-46.167 28.5 -81.5 28.5h-265v-180c0 -35.333 9.5 -62.5 28.5 -81.5s46.167 -28.5 81.5 -28.5h155z" />
    <glyph glyph-name="seven" unicode="7" horiz-adv-x="545" 
d="M435 635l-390 -0.000976562c-10 0 -15 5 -15 15v35c0 10 5 15 15 15h455c10 0 15 -5 15 -15v-20c0 -7.33301 -1.16699 -14.166 -3.5 -20.499s-6.16602 -14.5 -11.499 -24.5l-275 -605c-2.66699 -5.33301 -5.33398 -9.16602 -8.00098 -11.499s-6.66699 -3.5 -12 -3.5h-45
c-5.33301 0 -9 1.16699 -11 3.5s-1.66699 6.16602 1 11.499z" />
    <glyph glyph-name="eight" unicode="8" horiz-adv-x="680" 
d="M255 -10c-55.333 0 -98.332 15.333 -128.999 46s-46 73.667 -46 129v50c0 31.333 5.33301 56.333 16 75s22.667 33.334 36 44.001c15.333 12 33 20.667 53 26v5c-18 4.66699 -34 12.667 -48 24c-12 9.33301 -22.833 22.833 -32.5 40.5s-14.5 41.167 -14.5 70.5v35
c0 55.333 15.333 98.333 46 129s73.667 46 129 46h150c55.333 0 98.333 -15.333 129 -46s46 -73.667 46 -129v-35c0 -29.333 -5 -52.833 -15 -70.5s-21 -31.167 -33 -40.5c-14 -11.333 -29.667 -19.333 -47 -24v-5c19.333 -5.33301 36.666 -14 51.999 -26
c13.333 -10.667 25.5 -25.334 36.5 -44.001s16.5 -43.667 16.5 -75v-50c0 -55.333 -15.333 -98.333 -46 -129s-73.667 -46 -129 -46h-170zM255.001 325c-35.333 0 -62.5 -9.5 -81.5 -28.5s-28.5 -46.167 -28.5 -81.5v-50c0 -35.333 9.5 -62.5 28.5 -81.5
s46.167 -28.5 81.5 -28.5h170c35.333 0 62.5 9.5 81.5 28.5s28.5 46.167 28.5 81.5v50c0 35.333 -9.5 62.5 -28.5 81.5s-46.167 28.5 -81.5 28.5h-170zM265.001 645c-35.333 0 -62.5 -9.5 -81.5 -28.5s-28.5 -46.167 -28.5 -81.5v-35c0 -35.333 9.5 -62.5 28.5 -81.5
s46.167 -28.5 81.5 -28.5h150c35.333 0 62.5 9.5 81.5 28.5s28.5 46.167 28.5 81.5v35c0 35.333 -9.5 62.5 -28.5 81.5s-46.167 28.5 -81.5 28.5h-150z" />
    <glyph glyph-name="nine" unicode="9" horiz-adv-x="685" 
d="M85 535c0 55.333 15.333 98.333 46 129s73.667 46 129 46h155c55.333 0 98.333 -15.333 129 -46s46 -73.667 46 -129v-370c0 -55.333 -15.333 -98.333 -46 -129s-73.667 -46 -129 -46h-135c-55.333 0 -98.333 15.333 -129 46s-46 73.667 -46 129v20c0 10 5 15 15 15h35
c10 0 15 -5 15 -15v-20c0 -35.333 9.5 -62.5 28.5 -81.5s46.167 -28.5 81.5 -28.5h135c35.333 0 62.5 9.5 81.5 28.5s28.5 46.167 28.5 81.5v125h-265c-55.333 0 -98.333 15.333 -129 46s-46 73.667 -46 129v70zM260 645c-35.333 0 -62.5 -9.5 -81.5 -28.5
s-28.5 -46.167 -28.5 -81.5v-70c0 -35.333 9.5 -62.5 28.5 -81.5s46.167 -28.5 81.5 -28.5h265v180c0 35.333 -9.5 62.5 -28.5 81.5s-46.167 28.5 -81.5 28.5h-155z" />
    <glyph glyph-name="colon" unicode=":" horiz-adv-x="160" 
d="M100 70c10 0 15 -5 15 -15v-40c0 -10 -5 -15 -15 -15h-40c-10 0 -15 5 -15 15v40c0 10 5 15 15 15h40zM100 510c10 0 15 -5 15 -15v-40c0 -10 -5 -15 -15 -15h-40c-10 0 -15 5 -15 15v40c0 10 5 15 15 15h40z" />
    <glyph glyph-name="semicolon" unicode=";" horiz-adv-x="161" 
d="M101 510c10 0 15 -5 15 -15v-40c0 -10 -5 -15 -15 -15h-40c-10 0 -15 5 -15 15v40c0 10 5 15 15 15h40zM116 20c0 -7.33301 -1.16699 -13.333 -3.5 -18l-11.5 -22l-35 -70c-1.33301 -2.66699 -2.83301 -5 -4.5 -7s-5.16699 -3 -10.5 -3h-15c-6 0 -7.66699 3.33301 -5 10
l45 90h-15c-10 0 -15 5 -15 15v40c0 10 5 15 15 15h40c10 0 15 -5 15 -15v-35z" />
    <glyph glyph-name="less" unicode="&#x3c;" horiz-adv-x="510" 
d="M130 250l0.000976562 -5.00098l325 -150c5.33301 -2.66699 9.16602 -5.33398 11.499 -8.00098s3.5 -6.66699 3.5 -12v-40c0 -5.33301 -1.16699 -9 -3.5 -11s-6.16602 -1.66699 -11.499 1l-400 190c-10 4.66699 -15 11.334 -15 20.001v25
c0 5.33301 1.16699 9.33301 3.5 12s6.16602 5.33398 11.499 8.00098l400 190c10 4.66699 15 1.33398 15 -9.99902v-40c0 -8.66699 -5 -15.334 -15 -20.001z" />
    <glyph glyph-name="equal" unicode="=" horiz-adv-x="435" 
d="M50 365c-10 0 -15 5 -15 15v35c0 10 5 15 15 15h335c10 0 15 -5 15 -15v-35c0 -10 -5 -15 -15 -15h-335zM50 170c-10 0 -15 5 -15 15v35c0 10 5 15 15 15h335c10 0 15 -5 15 -15v-35c0 -10 -5 -15 -15 -15h-335z" />
    <glyph glyph-name="greater" unicode="&#x3e;" horiz-adv-x="510" 
d="M55 400c-10 4.66699 -14.999 11.335 -14.999 20.002v40c0 11.333 5 14.666 15 9.99902l400 -190c5.33301 -2.66699 9.16602 -5.33398 11.499 -8.00098s3.5 -6.66699 3.5 -12v-25c0 -8.66699 -5 -15.334 -15 -20.001l-400 -190c-5.33301 -2.66699 -9.16602 -3 -11.499 -1
s-3.5 5.66699 -3.5 11v40c0 5.33301 1.16699 9.33301 3.5 12s6.16602 5.33398 11.499 8.00098l325 150v5z" />
    <glyph glyph-name="question" unicode="?" horiz-adv-x="595" 
d="M305 270l-5 -65c-1.33301 -10 -6.33301 -15 -15 -15h-20c-10 0 -15 5 -15 15l-5 115c0 10 5 15 15 15h100c35.333 0 62.5 9.5 81.5 28.5s28.5 46.167 28.5 81.5v90c0 35.333 -9.5 62.5 -28.5 81.5s-46.167 28.5 -81.5 28.5h-145c-35.333 0 -62.5 -9.5 -81.5 -28.5
s-28.5 -46.167 -28.5 -81.5v-30c0 -10 -5 -15 -15 -15h-35c-10 0 -15 5 -15 15v30c0 55.333 15.333 98.333 46 129s73.667 46 129 46h145c55.333 0 98.333 -15.333 129 -46s46 -73.667 46 -129v-90c0 -55.333 -15.333 -98.333 -46 -129s-73.667 -46 -129 -46h-55zM295 70
c10 0 15 -5 15 -15v-40c0 -10 -5 -15 -15 -15h-40c-10 0 -15 5 -15 15v40c0 10 5 15 15 15h40z" />
    <glyph glyph-name="at" unicode="@" horiz-adv-x="985" 
d="M660 125l60 0.000976562c35.333 0 62.5 9.5 81.5 28.5s28.5 46.167 28.5 81.5v270c0 35.333 -9.5 62.5 -28.5 81.5s-46.167 28.5 -81.5 28.5h-455c-35.333 0 -62.5 -9.5 -81.5 -28.5s-28.5 -46.167 -28.5 -81.5v-490c0 -35.333 9.5 -62.5 28.5 -81.5
s46.167 -28.5 81.5 -28.5h535c10 0 15 -5 15 -15v-35c0 -10 -5 -15 -15 -15h-535c-55.333 0 -98.333 15.333 -129 46s-46 73.667 -46 129v490c0 55.333 15.333 98.333 46 129s73.667 46 129 46h455c55.333 0 98.333 -15.333 129 -46s46 -73.667 46 -129v-270
c0 -55.333 -15.333 -98.333 -46 -129s-73.667 -46 -129 -46h-110c-10 0 -15 5 -15 15v20h-5c-3.33301 -8.66699 -8.66602 -16.334 -15.999 -23.001c-6 -5.33301 -14.167 -10.333 -24.5 -15s-23.5 -7 -39.5 -7h-60c-90 0 -135 45 -135 135v150c0 90 45 135 135 135h60
c16 0 29.167 -2.5 39.5 -7.5s18.5 -10.167 24.5 -15.5c7.33301 -6.66699 12.666 -14 15.999 -22h5v20c0 10 5 15 15 15h35c10 0 15 -5 15 -15v-320zM510 115.001c30 0 51.667 6.66699 65 20s20 35 20 65v120c0 30 -6.66699 51.667 -20 65s-35 20 -65 20h-60
c-25.333 0 -43.333 -5.33301 -54 -16s-16 -28.667 -16 -54v-150c0 -25.333 5.33301 -43.333 16 -54s28.667 -16 54 -16h60z" />
    <glyph glyph-name="A" unicode="A" horiz-adv-x="649" 
d="M487 195h-325l-70 -180c-4 -10 -10.667 -15 -20 -15h-45c-10.667 0 -14 5 -10 15l265 670c4 10 10.667 15 20 15h45c9.33301 0 16 -5 20 -15l265 -670c4 -10 0.666992 -15 -10 -15h-45c-9.33301 0 -16 5 -20 15zM462 260l-135 360h-5l-135 -360h275z" />
    <glyph glyph-name="B" unicode="B" horiz-adv-x="715" 
d="M430 700c55.333 0 98.334 -15.3301 129.001 -45.9971s46 -73.667 46 -129v-10c0 -26.667 -4.16699 -48.334 -12.5 -65.001s-17.5 -29.667 -27.5 -39c-12 -11.333 -25.333 -20 -40 -26v-5c22.667 -5.33301 42.667 -14 60 -26
c15.333 -10.667 29.166 -25.834 41.499 -45.501s18.5 -45.834 18.5 -78.501v-55c0 -55.333 -15.333 -98.333 -46 -129s-73.667 -46 -129 -46h-350c-10 0 -15 5 -15 15v670c0 10 5 15 15 15h310zM470.001 65.0029c35.333 0 62.5 9.5 81.5 28.5s28.5 46.167 28.5 81.5v55
c0 35.333 -9.5 62.5 -28.5 81.5s-46.167 28.5 -81.5 28.5h-300v-275h300zM170.001 635.003v-230h260c35.333 0 62.5 9.5 81.5 28.5s28.5 46.167 28.5 81.5v10c0 35.333 -9.5 62.5 -28.5 81.5s-46.167 28.5 -81.5 28.5h-260z" />
    <glyph glyph-name="C" unicode="C" horiz-adv-x="755" 
d="M670 165c0 -55.333 -15.333 -98.333 -46 -129s-73.667 -46 -129 -46h-225c-55.333 0 -98.333 15.333 -129 46s-46 73.667 -46 129v370c0 55.333 15.333 98.333 46 129s73.667 46 129 46h225c55.333 0 98.333 -15.333 129 -46s46 -73.667 46 -129v-30
c0 -10 -5 -15 -15 -15h-35c-10 0 -15 5 -15 15v30c0 35.333 -9.5 62.5 -28.5 81.5s-46.167 28.5 -81.5 28.5h-225c-35.333 0 -62.5 -9.5 -81.5 -28.5s-28.5 -46.167 -28.5 -81.5v-370c0 -35.333 9.5 -62.5 28.5 -81.5s46.167 -28.5 81.5 -28.5h225
c35.333 0 62.5 9.5 81.5 28.5s28.5 46.167 28.5 81.5v30c0 10 5 15 15 15h35c10 0 15 -5 15 -15v-30z" />
    <glyph glyph-name="D" unicode="D" horiz-adv-x="765" 
d="M670 175c0 -55.333 -15.333 -98.333 -46 -129s-73.667 -46 -129 -46h-375c-10 0 -15 5 -15 15v670c0 10 5 15 15 15h375c55.333 0 98.333 -15.333 129 -46s46 -73.667 46 -129v-350zM170 65h325c35.333 0 62.5 9.5 81.5 28.5s28.5 46.167 28.5 81.5v350
c0 35.333 -9.5 62.5 -28.5 81.5s-46.167 28.5 -81.5 28.5h-325v-570z" />
    <glyph glyph-name="E" unicode="E" horiz-adv-x="665" 
d="M170 390h340c10 0 15 -5 15 -15v-35c0 -10 -5 -15 -15 -15h-340v-260h440c10 0 15 -5 15 -15v-35c0 -10 -5 -15 -15 -15h-490c-10 0 -15 5 -15 15v670c0 10 5 15 15 15h480c10 0 15 -5 15 -15v-35c0 -10 -5 -15 -15 -15h-430v-245z" />
    <glyph glyph-name="F" unicode="F" horiz-adv-x="635" 
d="M170 355h300c10 0 15 -5 15 -15v-35c0 -10 -5 -15 -15 -15h-300v-275c0 -10 -5 -15 -15 -15h-35c-10 0 -15 5 -15 15v670c0 10 5 15 15 15h480c10 0 15 -5 15 -15v-35c0 -10 -5 -15 -15 -15h-430v-280z" />
    <glyph glyph-name="G" unicode="G" horiz-adv-x="765" 
d="M670 165c0 -55.333 -15.333 -98.333 -46 -129s-73.667 -46 -129 -46h-225c-55.333 0 -98.333 15.333 -129 46s-46 73.667 -46 129v370c0 55.333 15.333 98.333 46 129s73.667 46 129 46h225c55.333 0 98.333 -15.333 129 -46s46 -73.667 46 -129v-30
c0 -10 -5 -15 -15 -15h-35c-10 0 -15 5 -15 15v30c0 35.333 -9.5 62.5 -28.5 81.5s-46.167 28.5 -81.5 28.5h-225c-35.333 0 -62.5 -9.5 -81.5 -28.5s-28.5 -46.167 -28.5 -81.5v-370c0 -35.333 9.5 -62.5 28.5 -81.5s46.167 -28.5 81.5 -28.5h225
c35.333 0 62.5 9.5 81.5 28.5s28.5 46.167 28.5 81.5v130h-165c-10 0 -15 5 -15 15v35c0 10 5 15 15 15h215c10 0 15 -5 15 -15v-180z" />
    <glyph glyph-name="H" unicode="H" horiz-adv-x="750" 
d="M170 385h410v300c0 10 5 15 15 15h35c10 0 15 -5 15 -15v-670c0 -10 -5 -15 -15 -15h-35c-10 0 -15 5 -15 15v305h-410v-305c0 -10 -5 -15 -15 -15h-35c-10 0 -15 5 -15 15v670c0 10 5 15 15 15h35c10 0 15 -5 15 -15v-300z" />
    <glyph glyph-name="I" unicode="I" horiz-adv-x="275" 
d="M170 15c0 -10 -5 -15 -15 -15h-35c-10 0 -15 5 -15 15v670c0 10 5 15 15 15h35c10 0 15 -5 15 -15v-670z" />
    <glyph glyph-name="J" unicode="J" horiz-adv-x="660" 
d="M555 165c0 -55.333 -15.333 -98.333 -46 -129s-73.667 -46 -129 -46h-150c-55.333 0 -98.333 15.333 -129 46s-46 73.667 -46 129v50c0 10 5 15 15 15h35c10 0 15 -5 15 -15v-50c0 -35.333 9.5 -62.5 28.5 -81.5s46.167 -28.5 81.5 -28.5h150
c35.333 0 62.5 9.5 81.5 28.5s28.5 46.167 28.5 81.5v520c0 10 5 15 15 15h35c10 0 15 -5 15 -15v-520z" />
    <glyph glyph-name="K" unicode="K" horiz-adv-x="682" 
d="M170 335v-319.998c0 -10 -5 -15 -15 -15h-35c-10 0 -15 5 -15 15v670c0 10 5 15 15 15h35c10 0 15 -5 15 -15v-285h225l155 285c3.33301 5.33301 6.16602 9.16602 8.49902 11.499s6.16602 3.5 11.499 3.5h45c11.333 0 14.666 -5 9.99902 -15l-175 -315l195 -355
c4.66699 -10 1.33398 -15 -9.99902 -15h-45c-5.33301 0 -9.16602 1.16699 -11.499 3.5s-5.16602 6.16602 -8.49902 11.499l-175 320h-225z" />
    <glyph glyph-name="L" unicode="L" horiz-adv-x="625" 
d="M170 65h420c10 0 15 -5 15 -15v-35c0 -10 -5 -15 -15 -15h-470c-10 0 -15 5 -15 15v670c0 10 5 15 15 15h35c10 0 15 -5 15 -15v-620z" />
    <glyph glyph-name="M" unicode="M" horiz-adv-x="965" 
d="M485 90l285 595c2.66699 5.33301 5.66699 9.16602 9 11.499s8.66602 3.5 15.999 3.5h50c10 0 15 -5 15 -15v-670c0 -10 -5 -15 -15 -15h-35c-10 0 -15 5 -15 15v565h-5l-270 -565c-2.66699 -5.33301 -5.66699 -9.16602 -9 -11.499s-8.66602 -3.5 -15.999 -3.5h-25
c-7.33301 0 -12.666 1.16699 -15.999 3.5s-6.33301 6.16602 -9 11.499l-270 565h-5v-565c0 -10 -5 -15 -15 -15h-35c-10 0 -15 5 -15 15v670c0 10 5 15 15 15h50c7.33301 0 12.666 -1.16699 15.999 -3.5s6.33301 -6.16602 9 -11.499l285 -595h5z" />
    <glyph glyph-name="N" unicode="N" horiz-adv-x="775" 
d="M605 100v585c0 10 5 15 15 15h35c10 0 15 -5 15 -15v-670c0 -10 -5 -15 -15 -15h-45c-10 0 -16.667 1.16699 -20 3.5s-6.66602 6.16602 -9.99902 11.499l-405 585h-5v-585c0 -10 -5 -15 -15 -15h-35c-10 0 -15 5 -15 15v670c0 10 5 15 15 15h45
c10 0 16.667 -1.16699 20 -3.5s6.66602 -6.16602 9.99902 -11.499l405 -585h5z" />
    <glyph glyph-name="O" unicode="O" horiz-adv-x="780" 
d="M620 535c0 35.333 -9.5 62.5 -28.5 81.5s-46.167 28.5 -81.5 28.5h-240c-35.333 0 -62.5 -9.5 -81.5 -28.5s-28.5 -46.167 -28.5 -81.5v-370c0 -35.333 9.5 -62.5 28.5 -81.5s46.167 -28.5 81.5 -28.5h240c35.333 0 62.5 9.5 81.5 28.5s28.5 46.167 28.5 81.5v370z
M685 165c0 -55.333 -15.333 -98.333 -46 -129s-73.667 -46 -129 -46h-240c-55.333 0 -98.333 15.333 -129 46s-46 73.667 -46 129v370c0 55.333 15.333 98.333 46 129s73.667 46 129 46h240c55.333 0 98.333 -15.333 129 -46s46 -73.667 46 -129v-370z" />
    <glyph glyph-name="P" unicode="P" horiz-adv-x="725" 
d="M465 700c55.333 0 98.333 -15.333 129 -46s46 -73.667 46 -129v-120c0 -55.333 -15.333 -98.333 -46 -129s-73.667 -46 -129 -46h-295v-215c0 -10 -5 -15 -15 -15h-35c-10 0 -15 5 -15 15v670c0 10 5 15 15 15h345zM170 635v-340h295c35.333 0 62.5 9.5 81.5 28.5
s28.5 46.167 28.5 81.5v120c0 35.333 -9.5 62.5 -28.5 81.5s-46.167 28.5 -81.5 28.5h-295z" />
    <glyph glyph-name="Q" unicode="Q" horiz-adv-x="784" 
d="M620 20c-8 -6 -17.667 -10.999 -29 -14.999c-9.33301 -4 -20.833 -7.5 -34.5 -10.5s-29.167 -4.5 -46.5 -4.5h-240c-55.333 0 -98.333 15.333 -129 46s-46 73.667 -46 129v370c0 55.333 15.333 98.333 46 129s73.667 46 129 46h240c55.333 0 98.333 -15.333 129 -46
s46 -73.667 46 -129v-370c0 -16.667 -1.33301 -30.834 -4 -42.501s-5.66699 -21.5 -9 -29.5c-3.33301 -9.33301 -7.33301 -17 -12 -23l85 -95c2.66699 -2.66699 4 -6 4 -10s-1.33301 -7.33301 -4 -10l-25 -25c-2.66699 -2.66699 -6 -4 -10 -4s-7.33301 1.33301 -10 4z
M620 535.001c0 35.333 -9.50293 62.499 -28.5029 81.499s-46.167 28.5 -81.5 28.5h-240c-35.333 0 -62.5 -9.5 -81.5 -28.5s-28.5 -46.167 -28.5 -81.5v-370c0 -35.333 9.5 -62.5 28.5 -81.5s46.167 -28.5 81.5 -28.5h240c18.667 0 34.334 2.33301 47.001 7
c6.66699 2.66699 12.667 5.33398 18 8.00098l-65 75c-2.66699 2.66699 -4 6 -4 10s1.33301 7.33301 4 10l25 25c2.66699 2.66699 6 4 10 4s7.33301 -1.33301 10 -4l60 -70c0.666992 4 1.33398 8.33301 2.00098 13c0.666992 4 1.33398 8.66699 2.00098 14s1 11.333 1 18v370z
" />
    <glyph glyph-name="R" unicode="R" horiz-adv-x="732" 
d="M465 700c55.333 0 98.3291 -15.332 128.996 -45.999s46 -73.667 46 -129v-100c0 -38 -6.66699 -67.833 -20 -89.5s-27.666 -38.167 -42.999 -49.5c-18 -13.333 -38.667 -22 -62 -26l135 -245c4.66699 -10 1.33398 -15 -9.99902 -15h-45
c-5.33301 0 -9.16602 1.16699 -11.499 3.5s-5.16602 6.16602 -8.49902 11.499l-130 235h-275v-235c0 -10 -5 -15 -15 -15h-35c-10 0 -15 5 -15 15v670c0 10 5 15 15 15h345zM169.996 635.001v-320h295c35.333 0 62.5 9.5 81.5 28.5s28.5 46.167 28.5 81.5v100
c0 35.333 -9.5 62.5 -28.5 81.5s-46.167 28.5 -81.5 28.5h-295z" />
    <glyph glyph-name="S" unicode="S" horiz-adv-x="700" 
d="M155 510c0 -20 5.16699 -35.667 15.5 -47s26.833 -20.666 49.5 -27.999l300 -100c28 -9.33301 50.833 -24.333 68.5 -45s26.5 -47.334 26.5 -80.001v-45c0 -55.333 -15.333 -98.333 -46 -129s-73.667 -46 -129 -46h-190c-55.333 0 -98.333 15.333 -129 46
s-46 73.667 -46 129v30c0 10 5 15 15 15h35c10 0 15 -5 15 -15v-30c0 -35.333 9.5 -62.5 28.5 -81.5s46.167 -28.5 81.5 -28.5h190c35.333 0 62.5 9.5 81.5 28.5s28.5 46.167 28.5 81.5v40c0 20 -5.16699 35.667 -15.5 47s-26.833 20.666 -49.5 27.999l-300 100
c-28 9.33301 -50.833 24.333 -68.5 45s-26.5 47.334 -26.5 80.001v30c0 55.333 15.333 98.333 46 129s73.667 46 129 46h170c55.333 0 98.333 -15.333 129 -46s46 -73.667 46 -129v-30c0 -10 -5 -15 -15 -15h-35c-10 0 -15 5 -15 15v30c0 35.333 -9.5 62.5 -28.5 81.5
s-46.167 28.5 -81.5 28.5h-170c-35.333 0 -62.5 -9.5 -81.5 -28.5s-28.5 -46.167 -28.5 -81.5v-25z" />
    <glyph glyph-name="T" unicode="T" horiz-adv-x="575" 
d="M255 635h-230c-10 0 -15 5 -15 15v35c0 10 5 15 15 15h525c10 0 15 -5 15 -15v-35c0 -10 -5 -15 -15 -15h-230v-620c0 -10 -5 -15 -15 -15h-35c-10 0 -15 5 -15 15v620z" />
    <glyph glyph-name="U" unicode="U" horiz-adv-x="765" 
d="M105 685c0 10 5 15 15 15h35c10 0 15 -5 15 -15v-520c0 -35.333 9.5 -62.5 28.5 -81.5s46.167 -28.5 81.5 -28.5h205c35.333 0 62.5 9.5 81.5 28.5s28.5 46.167 28.5 81.5v520c0 10 5 15 15 15h35c10 0 15 -5 15 -15v-520c0 -55.333 -15.333 -98.333 -46 -129
s-73.667 -46 -129 -46h-205c-55.333 0 -98.333 15.333 -129 46s-46 73.667 -46 129v520z" />
    <glyph glyph-name="V" unicode="V" horiz-adv-x="639" 
d="M317 100h5l220 585c4 10 10.667 15 20 15h45c10.667 0 14 -5 10 -15l-260 -670c-4 -10 -10.667 -15 -20 -15h-35c-9.33301 0 -16 5 -20 15l-260 670c-4 10 -0.666992 15 10 15h45c9.33301 0 16 -5 20 -15z" />
    <glyph glyph-name="W" unicode="W" horiz-adv-x="899" 
d="M452 585h-4.99902l-160 -570c-3.33301 -10 -10 -15 -20 -15h-35c-10.667 0 -17.334 5 -20.001 15l-190 670c-3.33301 10 0 15 10 15h40c10 0 16.667 -5 20 -15l155 -570h5l160 570c2.66699 10 9.33398 15 20.001 15h35c10 0 16.667 -5 20 -15l160 -570h5l155 570
c2.66699 10 9.33398 15 20.001 15h40c9.33301 0 12.666 -5 9.99902 -15l-190 -670c-3.33301 -10 -10 -15 -20 -15h-35c-10.667 0 -17.334 5 -20.001 15z" />
    <glyph glyph-name="X" unicode="X" horiz-adv-x="606" 
d="M343 370l240 -355c3.33301 -5.33301 4 -9.16602 2 -11.499s-4.33301 -3.5 -7 -3.5h-45c-7.33301 0 -12.5 1.16699 -15.5 3.5s-6.16699 6.16602 -9.5 11.499l-205 300l-205 -300c-3.33301 -5.33301 -6.5 -9.16602 -9.5 -11.499s-8.16699 -3.5 -15.5 -3.5h-45
c-2.66699 0 -5 1.16699 -7 3.5s-1.33301 6.16602 2 11.499l240 355l-220 315c-3.33301 5.33301 -4 9.16602 -2 11.499s4.33301 3.5 7 3.5h45c7.33301 0 12.5 -1.16699 15.5 -3.5s6.16699 -6.16602 9.5 -11.499l185 -265l185 265c3.33301 5.33301 6.5 9.16602 9.5 11.499
s8.16699 3.5 15.5 3.5h45c2.66699 0 5 -1.16699 7 -3.5s1.33301 -6.16602 -2 -11.499z" />
    <glyph glyph-name="Y" unicode="Y" horiz-adv-x="611" 
d="M338 250v-235c0 -10 -5 -15 -15 -15h-35c-10 0 -15 5 -15 15v235l-260 435c-3.33301 5.33301 -4 9.16602 -2 11.499s4.33301 3.5 7 3.5h45c7.33301 0 12.5 -1.16699 15.5 -3.5s6.16699 -6.16602 9.5 -11.499l215 -365h5l215 365c3.33301 5.33301 6.5 9.16602 9.5 11.499
s8.16699 3.5 15.5 3.5h45c2.66699 0 5 -1.16699 7 -3.5s1.33301 -6.16602 -2 -11.499z" />
    <glyph glyph-name="Z" unicode="Z" horiz-adv-x="615" 
d="M125 70v-5h435c10 0 15 -5 15 -15v-35c0 -10 -5 -15 -15 -15h-505c-10 0 -15 5 -15 15v40c0 7.33301 1.5 12.833 4.5 16.5l10.5 13.5l435 545v5h-425c-10 0 -15 5 -15 15v35c0 10 5 15 15 15h495c10 0 15 -5 15 -15v-40c0 -7.33301 -1.5 -12.833 -4.5 -16.5l-10.5 -13.5z
" />
    <glyph glyph-name="bracketleft" unicode="[" horiz-adv-x="340" 
d="M170 -105h125c10 0 15 -5 15 -15v-35c0 -10 -5 -15 -15 -15h-175c-10 0 -15 5 -15 15v870c0 10 5 15 15 15h175c10 0 15 -5 15 -15v-35c0 -10 -5 -15 -15 -15h-125v-770z" />
    <glyph glyph-name="backslash" unicode="\" horiz-adv-x="374" 
d="M342 15c4 -10 0.666992 -15 -10 -15h-35c-9.33301 0 -16 5 -20 15l-245 670c-4 10 -0.666992 15 10 15h35c9.33301 0 16 -5 20 -15z" />
    <glyph glyph-name="bracketright" unicode="]" horiz-adv-x="340" 
d="M170 665h-125c-10 0 -15 5 -15 15v35c0 10 5 15 15 15h175c10 0 15 -5 15 -15v-870c0 -10 -5 -15 -15 -15h-175c-10 0 -15 5 -15 15v35c0 10 5 15 15 15h125v770z" />
    <glyph glyph-name="asciicircum" unicode="^" horiz-adv-x="483" 
d="M239 620l-127.001 -244.999c-3.33301 -5.33301 -6.16602 -9.16602 -8.49902 -11.499s-6.16602 -3.5 -11.499 -3.5h-40c-5.33301 0 -9 1.16699 -11 3.5s-1.66699 6.16602 1 11.499l162 310c3.33301 5.33301 6.16602 9.16602 8.49902 11.499s6.16602 3.5 11.499 3.5h35
c5.33301 0 9.16602 -1.16699 11.499 -3.5s5.16602 -6.16602 8.49902 -11.499l162 -310c4.66699 -10 1.33398 -15 -9.99902 -15h-40c-5.33301 0 -9.16602 1.16699 -11.499 3.5s-5.16602 6.16602 -8.49902 11.499l-127 245h-5z" />
    <glyph glyph-name="underscore" unicode="_" horiz-adv-x="365" 
d="M15 -185c-10 0 -15 5 -15 15v35c0 10 5 15 15 15h335c10 0 15 -5 15 -15v-35c0 -10 -5 -15 -15 -15h-335z" />
    <glyph glyph-name="grave" unicode="`" horiz-adv-x="199" 
d="M32 685c-2.66699 5.33301 -3.00293 9.16602 -1.00293 11.499s5.66699 3.5 11 3.5h40c5.33301 0 9.33301 -1.16699 12 -3.5s5.33398 -6.16602 8.00098 -11.499l65 -130c2.66699 -4.66699 3 -8.33398 1 -11.001s-5.66699 -4 -11 -4h-20
c-5.33301 0 -9.16602 1.33301 -11.499 4s-5.16602 6.33398 -8.49902 11.001z" />
    <glyph glyph-name="a" unicode="a" horiz-adv-x="550" 
d="M120 140c0 -28 8 -50 24 -66s38 -24 66 -24h80c35.333 0 63.333 10.333 84 31s31 48.667 31 84v70h-195c-28 0 -50 -8 -66 -24s-24 -38 -24 -66v-5zM60 145c0 48 13 85 39 111s63 39 111 39h195v70c0 30 -8.33301 53.333 -25 70s-40 25 -70 25h-65
c-30 0 -53.333 -8.33301 -70 -25s-25 -40 -25 -70c0 -10 -5 -15 -15 -15h-30c-10 0 -15 5 -15 15c0 50 13.333 88.333 40 115s65 40 115 40h65c50 0 88.333 -13.333 115 -40s40 -65 40 -115v-350c0 -10 -5 -15 -15 -15h-30c-10 0 -15 5 -15 15v40h-5
c-6.66699 -12.667 -15 -23.667 -25 -33c-9.33301 -8 -20.833 -15.333 -34.5 -22s-30.5 -10 -50.5 -10h-80c-48 0 -85 13 -111 39s-39 63 -39 111v5z" />
    <glyph glyph-name="b" unicode="b" horiz-adv-x="575" 
d="M100 0c-10 0 -15 5 -15 15v670c0 10 5 15 15 15h30c10 0 15 -5 15 -15v-175h200c50 0 88.333 -13.333 115 -40s40 -65 40 -115v-200c0 -50 -13.333 -88.333 -40 -115s-65 -40 -115 -40h-245zM145 450v-390h200c30 0 53.333 8.33301 70 25s25 40 25 70v200
c0 30 -8.33301 53.333 -25 70s-40 25 -70 25h-200z" />
    <glyph glyph-name="c" unicode="c" horiz-adv-x="560" 
d="M495 145c0 -50 -13.333 -88.333 -40 -115s-65 -40 -115 -40h-110c-50 0 -88.333 13.333 -115 40s-40 65 -40 115v220c0 50 13.333 88.333 40 115s65 40 115 40h110c50 0 88.333 -13.333 115 -40s40 -65 40 -115v-15c0 -10 -5 -15 -15 -15h-30c-10 0 -15 5 -15 15v15
c0 30 -8.33301 53.333 -25 70s-40 25 -70 25h-110c-30 0 -53.333 -8.33301 -70 -25s-25 -40 -25 -70v-220c0 -30 8.33301 -53.333 25 -70s40 -25 70 -25h110c30 0 53.333 8.33301 70 25s25 40 25 70v15c0 10 5 15 15 15h30c10 0 15 -5 15 -15v-15z" />
    <glyph glyph-name="d" unicode="d" horiz-adv-x="575" 
d="M230 -10c-50 0 -88.333 13.333 -115 40s-40 65 -40 115v210c0 50 13.333 88.333 40 115s65 40 115 40h200v175c0 10 5 15 15 15h30c10 0 15 -5 15 -15v-670c0 -10 -5 -15 -15 -15h-30c-10 0 -15 5 -15 15v40h-5c-6.66699 -12.667 -15 -23.667 -25 -33
c-9.33301 -8 -20.833 -15.333 -34.5 -22s-30.5 -10 -50.5 -10h-85zM230 450c-30 0 -53.333 -8.33301 -70 -25s-25 -40 -25 -70v-210c0 -30 8.33301 -53.333 25 -70s40 -25 70 -25h85c35.333 0 63.333 10.333 84 31s31 48.667 31 84v285h-200z" />
    <glyph glyph-name="e" unicode="e" horiz-adv-x="570" 
d="M495 145c0 -50 -13.333 -88.333 -40 -115s-65 -40 -115 -40h-110c-50 0 -88.333 13.333 -115 40s-40 65 -40 115v220c0 50 13.333 88.333 40 115s65 40 115 40h110c50 0 88.333 -13.333 115 -40s40 -65 40 -115v-120c0 -10 -5 -15 -15 -15h-345v-85
c0 -30 8.33301 -53.333 25 -70s40 -25 70 -25h110c30 0 53.333 8.33301 70 25s25 40 25 70c0 10 5 15 15 15h30c10 0 15 -5 15 -15zM135 290h300v75c0 30 -8.33301 53.333 -25 70s-40 25 -70 25h-110c-30 0 -53.333 -8.33301 -70 -25s-25 -40 -25 -70v-75z" />
    <glyph glyph-name="f" unicode="f" horiz-adv-x="355" 
d="M195 420v-405c0 -10 -5 -15 -15 -15h-30c-10 0 -15 5 -15 15v405h-85c-10 0 -15 5 -15 15v30c0 10 5 15 15 15h85v65c0 50 13.333 88.333 40 115s65 40 115 40h40c10 0 15 -5 15 -15v-30c0 -10 -5 -15 -15 -15h-40c-30 0 -53.333 -8.33301 -70 -25s-25 -40 -25 -70v-65
h105c10 0 15 -5 15 -15v-30c0 -10 -5 -15 -15 -15h-105z" />
    <glyph glyph-name="g" unicode="g" horiz-adv-x="575" 
d="M80 -40c0 10 5 15 15 15h30c10 0 15 -5 15 -15v-5c0 -30 8.33301 -53.333 25 -70s40 -25 70 -25h100c30 0 53.333 8.33301 70 25s25 40 25 70v85h-200c-50 0 -88.333 13.333 -115 40s-40 65 -40 115v170c0 50 13.333 88.333 40 115s65 40 115 40h85
c20 0 36.833 -3.5 50.5 -10.5s25.167 -14.5 34.5 -22.5c10 -9.33301 18.333 -20 25 -32h5v40c0 10 5 15 15 15h30c10 0 15 -5 15 -15v-540c0 -50 -13.333 -88.333 -40 -115s-65 -40 -115 -40h-100c-50 0 -88.333 13.333 -115 40s-40 65 -40 115v5zM430 100v245
c0 35.333 -10.333 63.333 -31 84s-48.667 31 -84 31h-85c-30 0 -53.333 -8.33301 -70 -25s-25 -40 -25 -70v-170c0 -30 8.33301 -53.333 25 -70s40 -25 70 -25h200z" />
    <glyph glyph-name="h" unicode="h" 
d="M345 510c50 0 88.333 -13.333 115 -40s40 -65 40 -115v-340c0 -10 -5 -15 -15 -15h-30c-10 0 -15 5 -15 15v340c0 30 -8.33301 53.333 -25 70s-40 25 -70 25h-200v-435c0 -10 -5 -15 -15 -15h-30c-10 0 -15 5 -15 15v670c0 10 5 15 15 15h30c10 0 15 -5 15 -15v-175h200z
" />
    <glyph glyph-name="i" unicode="i" horiz-adv-x="240" 
d="M105 0c-10 0 -15 5 -15 15v480c0 10 5 15 15 15h30c10 0 15 -5 15 -15v-480c0 -10 -5 -15 -15 -15h-30zM140 700c10 0 15 -5 15 -15v-35c0 -10 -5 -15 -15 -15h-40c-10 0 -15 5 -15 15v35c0 10 5 15 15 15h40z" />
    <glyph glyph-name="j" unicode="j" horiz-adv-x="245" 
d="M95 495c0 10 5 15 15 15h30c10 0 15 -5 15 -15v-540c0 -50 -13.333 -88.333 -40 -115s-65 -40 -115 -40h-35c-10 0 -15 5 -15 15v30c0 10 5 15 15 15h35c30 0 53.333 8.33301 70 25s25 40 25 70v540zM145 700c10 0 15 -5 15 -15v-35c0 -10 -5 -15 -15 -15h-40
c-10 0 -15 5 -15 15v35c0 10 5 15 15 15h40z" />
    <glyph glyph-name="k" unicode="k" horiz-adv-x="517" 
d="M145 240v-224.998c0 -10 -5 -15 -15 -15h-30c-10 0 -15 5 -15 15v670c0 10 5 15 15 15h30c10 0 15 -5 15 -15v-385h150l105 195c3.33301 5.33301 6.16602 9.16602 8.49902 11.499s6.16602 3.5 11.499 3.5h40c11.333 0 14.666 -5 9.99902 -15l-125 -225l140 -255
c4.66699 -10 1.33398 -15 -9.99902 -15h-40c-5.33301 0 -9.16602 1.16699 -11.499 3.5s-5.16602 6.16602 -8.49902 11.499l-120 225h-150z" />
    <glyph glyph-name="l" unicode="l" horiz-adv-x="230" 
d="M100 0c-10 0 -15 5 -15 15v670c0 10 5 15 15 15h30c10 0 15 -5 15 -15v-670c0 -10 -5 -15 -15 -15h-30z" />
    <glyph glyph-name="m" unicode="m" horiz-adv-x="835" 
d="M595 520c50 0 88.333 -13.333 115 -40s40 -65 40 -115v-350c0 -10 -5 -15 -15 -15h-30c-10 0 -15 5 -15 15v350c0 30 -8.33301 53.333 -25 70s-40 25 -70 25h-50c-30 0 -53.333 -8.33301 -70 -25s-25 -40 -25 -70v-350c0 -10 -5 -15 -15 -15h-30c-10 0 -15 5 -15 15v350
c0 30 -8.33301 53.333 -25 70s-40 25 -70 25h-35c-35.333 0 -63.333 -10.333 -84 -31s-31 -48.667 -31 -84v-330c0 -10 -5 -15 -15 -15h-30c-10 0 -15 5 -15 15v480c0 10 5 15 15 15h30c10 0 15 -5 15 -15v-40h5c6 12 14.333 22.667 25 32c8.66699 8 20 15.5 34 22.5
s31 10.5 51 10.5h35c23.333 0 43 -3.5 59 -10.5s28.667 -14.5 38 -22.5c11.333 -9.33301 20 -20 26 -32h4c6 12 14.667 22.667 26 32c9.33301 8 21.833 15.5 37.5 22.5s35.5 10.5 59.5 10.5h50z" />
    <glyph glyph-name="n" unicode="n" 
d="M345 520c50 0 88.333 -13.333 115 -40s40 -65 40 -115v-350c0 -10 -5 -15 -15 -15h-30c-10 0 -15 5 -15 15v350c0 30 -8.33301 53.333 -25 70s-40 25 -70 25h-85c-35.333 0 -63.333 -10.333 -84 -31s-31 -48.667 -31 -84v-330c0 -10 -5 -15 -15 -15h-30
c-10 0 -15 5 -15 15v480c0 10 5 15 15 15h30c10 0 15 -5 15 -15v-40h5c6 12 14.333 22.667 25 32c8.66699 8 20 15.5 34 22.5s31 10.5 51 10.5h85z" />
    <glyph glyph-name="o" unicode="o" horiz-adv-x="580" 
d="M445 365c0 30 -8.33301 53.333 -25 70s-40 25 -70 25h-120c-30 0 -53.333 -8.33301 -70 -25s-25 -40 -25 -70v-220c0 -30 8.33301 -53.333 25 -70s40 -25 70 -25h120c30 0 53.333 8.33301 70 25s25 40 25 70v220zM505 145c0 -50 -13.333 -88.333 -40 -115
s-65 -40 -115 -40h-120c-50 0 -88.333 13.333 -115 40s-40 65 -40 115v220c0 50 13.333 88.333 40 115s65 40 115 40h120c50 0 88.333 -13.333 115 -40s40 -65 40 -115v-220z" />
    <glyph glyph-name="p" unicode="p" horiz-adv-x="575" 
d="M345 520c50 0 88.333 -13.333 115 -40s40 -65 40 -115v-210c0 -50 -13.333 -88.333 -40 -115s-65 -40 -115 -40h-200v-175c0 -10 -5 -15 -15 -15h-30c-10 0 -15 5 -15 15v670c0 10 5 15 15 15h30c10 0 15 -5 15 -15v-40h5c6 12 14.333 22.667 25 32
c8.66699 8 20 15.5 34 22.5s31 10.5 51 10.5h85zM345 60c30 0 53.333 8.33301 70 25s25 40 25 70v210c0 30 -8.33301 53.333 -25 70s-40 25 -70 25h-85c-35.333 0 -63.333 -10.333 -84 -31s-31 -48.667 -31 -84v-285h200z" />
    <glyph glyph-name="q" unicode="q" horiz-adv-x="575" 
d="M475 510c10 0 15 -5 15 -15v-670c0 -10 -5 -15 -15 -15h-30c-10 0 -15 5 -15 15v175h-200c-50 -0 -88.333 13.333 -115 40s-40 65 -40 115v200c0 50 13.333 88.333 40 115s65 40 115 40h245zM430 60v390h-200c-30 0 -53.333 -8.33301 -70 -25s-25 -40 -25 -70v-200
c0 -30 8.33301 -53.333 25 -70s40 -25 70 -25h200z" />
    <glyph glyph-name="r" unicode="r" horiz-adv-x="350" 
d="M260 460c-35.333 0 -63.333 -10.333 -84 -31s-31 -48.667 -31 -84v-330c0 -10 -5 -15 -15 -15h-30c-10 0 -15 5 -15 15v480c0 10 5 15 15 15h30c10 0 15 -5 15 -15v-40h5c6 12 14.333 22.667 25 32c8.66699 8 20 15.5 34 22.5s31 10.5 51 10.5h65c10 0 15 -5 15 -15v-30
c0 -10 -5 -15 -15 -15h-65z" />
    <glyph glyph-name="s" unicode="s" horiz-adv-x="535" 
d="M470 135c0 -96.667 -48.333 -145 -145 -145h-115c-50 0 -88.333 13.333 -115 40s-40 65 -40 115v5c0 10 5 15 15 15h30c10 0 15 -5 15 -15v-5c0 -30 8.33301 -53.333 25 -70s40 -25 70 -25h115c56.667 0 85 28.333 85 85v5c0 15.333 -3.66699 27 -11 35
s-18.666 14.667 -33.999 20l-225 75c-22.667 7.33301 -40.834 19.166 -54.501 35.499s-20.5 39.5 -20.5 69.5c0 96.667 48.333 145 145 145h100c50 0 88.333 -13.333 115 -40s40 -65 40 -115v-5c0 -10 -5 -15 -15 -15h-30c-10 0 -15 5 -15 15v5c0 30 -8.33301 53.333 -25 70
s-40 25 -70 25h-100c-56.667 0 -85 -28.333 -85 -85c0 -15.333 3.66699 -27 11 -35s18.666 -14.667 33.999 -20l225 -75c22.667 -7.33301 40.834 -19.166 54.501 -35.499s20.5 -39.5 20.5 -69.5v-5z" />
    <glyph glyph-name="t" unicode="t" horiz-adv-x="385" 
d="M295 510c10 0 15 -5 15 -15v-30c0 -10 -5 -15 -15 -15h-105v-295c0 -30 8.33301 -53.333 25 -70s40 -25 70 -25h40c10 0 15 -5 15 -15v-30c0 -10 -5 -15 -15 -15h-40c-50 -0 -88.333 13.333 -115 40s-40 65 -40 115v295h-85c-10 0 -15 5 -15 15v30c0 10 5 15 15 15h85
v105c0 10 5 15 15 15h30c10 0 15 -5 15 -15v-105h105z" />
    <glyph glyph-name="u" unicode="u" 
d="M240 -10c-50 0 -88.333 13.333 -115 40s-40 65 -40 115v350c0 10 5 15 15 15h30c10 0 15 -5 15 -15v-350c0 -30 8.33301 -53.333 25 -70s40 -25 70 -25h85c35.333 0 63.333 10.333 84 31s31 48.667 31 84v330c0 10 5 15 15 15h30c10 0 15 -5 15 -15v-480
c0 -10 -5 -15 -15 -15h-30c-10 0 -15 5 -15 15v40h-5c-6.66699 -12.667 -15 -23.667 -25 -33c-9.33301 -8 -20.833 -15.333 -34.5 -22s-30.5 -10 -50.5 -10h-85z" />
    <glyph glyph-name="v" unicode="v" horiz-adv-x="494" 
d="M245 85h4l158 410c4 10 10.667 15 20 15h35c10.667 0 14 -5 10 -15l-190 -480c-4 -10 -10.667 -15 -20 -15h-30c-9.33301 0 -16 5 -20 15l-190 480c-4 10 -0.666992 15 10 15h35c9.33301 0 16 -5 20 -15z" />
    <glyph glyph-name="w" unicode="w" horiz-adv-x="684" 
d="M357 510c10 0 16.668 -5 20.001 -15l110 -390h5l105 390c2.66699 10 9.33398 15 20.001 15h35c9.33301 0 12.666 -5 9.99902 -15l-135 -480c-3.33301 -10 -10 -15 -20 -15h-35c-10.667 0 -17.334 5 -20.001 15l-108 390h-4l-108 -390c-3.33301 -10 -10 -15 -20 -15h-35
c-10.667 0 -17.334 5 -20.001 15l-135 480c-3.33301 10 0 15 10 15h35c10 0 16.667 -5 20 -15l105 -390h5l110 390c2.66699 10 9.33398 15 20.001 15h30z" />
    <glyph glyph-name="x" unicode="x" horiz-adv-x="466" 
d="M358 495c3.33301 5.33301 6.5 9.16602 9.5 11.499s8.16699 3.5 15.5 3.5h40c2.66699 0 5 -1.16699 7 -3.5s1.33301 -6.16602 -2 -11.499l-160 -230l175 -250c3.33301 -5.33301 4 -9.16602 2 -11.499s-4.33301 -3.5 -7 -3.5h-40c-7.33301 0 -12.5 1.16699 -15.5 3.5
s-6.16699 6.16602 -9.5 11.499l-140 200l-140 -200c-3.33301 -5.33301 -6.5 -9.16602 -9.5 -11.499s-8.16699 -3.5 -15.5 -3.5h-40c-2.66699 0 -5 1.16699 -7 3.5s-1.33301 6.16602 2 11.499l175 250l-160 230c-3.33301 5.33301 -4 9.16602 -2 11.499s4.33301 3.5 7 3.5h40
c7.33301 0 12.5 -1.16699 15.5 -3.5s6.16699 -6.16602 9.5 -11.499l125 -180z" />
    <glyph glyph-name="y" unicode="y" horiz-adv-x="494" 
d="M22 495c-4 10 -0.665039 15 10.002 15h35c9.33301 0 16 -5 20 -15l160 -410h5l155 410c4 10 10.667 15 20 15h35c10.667 0 14 -5 10 -15l-190 -495c-13.333 -35.333 -26.833 -65 -40.5 -89s-27.834 -43.5 -42.501 -58.5s-30.334 -25.833 -47.001 -32.5s-35 -10 -55 -10
h-15c-10 0 -15 5 -15 15v30c0 10 5 15 15 15h15c25.333 0 47.333 9.66699 66 29s36.667 53 54 101z" />
    <glyph glyph-name="z" unicode="z" horiz-adv-x="470" 
d="M115 65v-5h305c10 0 15 -5 15 -15v-30c0 -10 -5 -15 -15 -15h-370c-10 0 -15 5 -15 15v35c0 7.33301 1.33301 12.833 4 16.5s6.33398 8.16699 11.001 13.5l305 365v5h-295c-10 0 -15 5 -15 15v30c0 10 5 15 15 15h360c10 0 15 -5 15 -15v-35
c0 -7.33301 -1.33301 -12.833 -4 -16.5s-6.33398 -8.16699 -11.001 -13.5z" />
    <glyph glyph-name="braceleft" unicode="{" horiz-adv-x="380" 
d="M150 278c13.333 -4 25.666 -10.667 36.999 -20c9.33301 -8 18 -19.833 26 -35.5s12 -36.5 12 -62.5v-170c0 -30 8.33301 -53.333 25 -70s40 -25 70 -25h15c10 0 15 -5 15 -15v-35c0 -10 -5 -15 -15 -15h-15c-50 0 -89.167 14.167 -117.5 42.5s-42.5 67.5 -42.5 117.5v171
c0 27.333 -8 49 -24 65s-38 24 -66 24h-5c-10 0 -15 5 -15 15v30c0 10 5 15 15 15h5c28 0 50 8 66 24s24 37.667 24 65v171c0 50 14.167 89.167 42.5 117.5s67.5 42.5 117.5 42.5h15c10 0 15 -5 15 -15v-35c0 -10 -5 -15 -15 -15h-15c-30 0 -53.333 -8.33301 -70 -25
s-25 -40 -25 -70v-170c0 -26.667 -4 -47.667 -12 -63s-16.667 -27 -26 -35c-11.333 -9.33301 -23.666 -16 -36.999 -20v-4z" />
    <glyph glyph-name="bar" unicode="|" horiz-adv-x="305" 
d="M185 -175c0 -10 -5 -15 -15 -15h-35c-10 0 -15 5 -15 15v860c0 10 5 15 15 15h35c10 0 15 -5 15 -15v-860z" />
    <glyph glyph-name="braceright" unicode="}" horiz-adv-x="380" 
d="M230 282c-14 4 -26.667 10.667 -38 20c-9.33301 8 -17.833 19.667 -25.5 35s-11.5 36.333 -11.5 63v170c0 30 -8.33301 53.333 -25 70s-40 25 -70 25h-15c-10 0 -15 5 -15 15v35c0 10 5 15 15 15h15c50 0 89.167 -14.167 117.5 -42.5s42.5 -67.5 42.5 -117.5v-171
c0 -27.333 8 -49 24 -65s38 -24 66 -24h5c10 0 15 -5 15 -15v-30c0 -10 -5 -15 -15 -15h-5c-28 0 -50 -8 -66 -24s-24 -37.667 -24 -65v-171c0 -50 -14.167 -89.167 -42.5 -117.5s-67.5 -42.5 -117.5 -42.5h-15c-10 0 -15 5 -15 15v35c0 10 5 15 15 15h15
c30 0 53.333 8.33301 70 25s25 40 25 70v170c0 26 3.83301 46.833 11.5 62.5s16.167 27.5 25.5 35.5c11.333 9.33301 24 16 38 20v4z" />
    <glyph glyph-name="asciitilde" unicode="~" horiz-adv-x="425" 
d="M300 240c-21.333 0 -39.833 5.5 -55.5 16.5s-29.834 23 -42.501 36l-36 36c-11.333 11 -23.333 16.5 -36 16.5c-10 0 -18.333 -3.33301 -25 -10s-10 -15 -10 -25v-55c0 -10 -5 -15 -15 -15h-25c-10 0 -15 5 -15 15v55c0 28 7.83301 50 23.5 66s36.167 24 61.5 24
c21.333 0 39.833 -5.5 55.5 -16.5s29.834 -23 42.501 -36l36 -36c11.333 -11 23.333 -16.5 36 -16.5c10 0 18.333 3.33301 25 10s10 15 10 25v55c0 10 5 15 15 15h25c10 0 15 -5 15 -15v-55c0 -28 -7.83301 -50 -23.5 -66s-36.167 -24 -61.5 -24z" />
    <glyph glyph-name="nonbreakingspace" unicode="&#xa0;" horiz-adv-x="195" 
 />
    <glyph glyph-name="exclamdown" unicode="&#xa1;" horiz-adv-x="280" 
d="M150 320c10 0 15 -5 15 -15l5 -155v-325c0 -10 -5 -15 -15 -15h-30c-10 0 -15 5 -15 15v325l5 155c0 10 5 15 15 15h20zM120 440c-10 0 -15 5 -15 15v40c0 10 5 15 15 15h40c10 0 15 -5 15 -15v-40c0 -10 -5 -15 -15 -15h-40z" />
    <glyph glyph-name="cent" unicode="&#xa2;" horiz-adv-x="560" 
d="M135 145c0 -30 8.33301 -53.333 25 -70s40 -25 70 -25h110c30 0 53.333 8.33301 70 25s25 40 25 70v15c0 10 5 15 15 15h30c10 0 15 -5 15 -15v-15c0 -50 -13.333 -88.333 -40 -115s-65 -40 -115 -40h-20v-70c0 -10 -5 -15 -15 -15h-30c-10 0 -15 5 -15 15v70h-30
c-50 0 -88.333 13.333 -115 40s-40 65 -40 115v220c0 50 13.333 88.333 40 115s65 40 115 40h30v70c0 10 5 15 15 15h30c10 0 15 -5 15 -15v-70h20c50 0 88.333 -13.333 115 -40s40 -65 40 -115v-15c0 -10 -5 -15 -15 -15h-30c-10 0 -15 5 -15 15v15
c0 30 -8.33301 53.333 -25 70s-40 25 -70 25h-110c-30 0 -53.333 -8.33301 -70 -25s-25 -40 -25 -70v-220v0z" />
    <glyph glyph-name="sterling" unicode="&#xa3;" horiz-adv-x="540" 
d="M330 635c-70 0 -105 -35 -105 -105v-140h130c10 0 15 -5 15 -15v-35c0 -10 -5 -15 -15 -15h-130v-260h290c10 0 15 -5 15 -15v-35c0 -10 -5 -15 -15 -15h-480c-10 0 -15 5 -15 15v35c0 10 5 15 15 15h125v260h-75c-10 0 -15 5 -15 15v35c0 10 5 15 15 15h75v140
c0 55.333 14.5 97.5 43.5 126.5s71.167 43.5 126.5 43.5h60c10 0 15 -5 15 -15v-35c0 -10 -5 -15 -15 -15h-60z" />
    <glyph glyph-name="currency" unicode="&#xa4;" horiz-adv-x="695" 
d="M190 145v-130c0 -10 -5 -15 -15 -15h-35c-10 0 -15 5 -15 15v130h-70c-10 0 -15 5 -15 15v35c0 10 5 15 15 15h70v90h-70c-10 0 -15 5 -15 15v35c0 10 5 15 15 15h70v320c0 10 5 15 15 15h300c55.333 0 98.333 -15.333 129 -46s46 -73.667 46 -129v-50
c0 -55.333 -15.333 -98.333 -46 -129s-73.667 -46 -129 -46h-250v-90h320c10 0 15 -5 15 -15v-35c0 -10 -5 -15 -15 -15h-320zM190 635v-270h250c35.333 0 62.5 9.5 81.5 28.5s28.5 46.167 28.5 81.5v50c0 35.333 -9.5 62.5 -28.5 81.5s-46.167 28.5 -81.5 28.5h-250z" />
    <glyph glyph-name="yen" unicode="&#xa5;" horiz-adv-x="611" 
d="M128 115c-10 0 -15 5 -15 15v25c0 10 5 15 15 15h145v75h-145c-10 0 -15 5 -15 15v25c0 10 5 15 15 15h115l-230 385c-3.33301 5.33301 -4 9.16602 -2 11.499s4.33301 3.5 7 3.5h45c7.33301 0 12.5 -1.16699 15.5 -3.5s6.16699 -6.16602 9.5 -11.499l215 -365h5l215 365
c3.33301 5.33301 6.5 9.16602 9.5 11.499s8.16699 3.5 15.5 3.5h45c2.66699 0 5 -1.16699 7 -3.5s1.33301 -6.16602 -2 -11.499l-230 -385h115c10 0 15 -5 15 -15v-25c0 -10 -5 -15 -15 -15h-145v-75h145c10 0 15 -5 15 -15v-25c0 -10 -5 -15 -15 -15h-145v-100
c0 -10 -5 -15 -15 -15h-35c-10 0 -15 5 -15 15v100h-145z" />
    <glyph glyph-name="brokenbar" unicode="&#xa6;" horiz-adv-x="305" 
d="M185 360c0 -10 -5 -15 -15 -15h-35c-10 0 -15 5 -15 15v325c0 10 5 15 15 15h35c10 0 15 -5 15 -15v-325zM185 -175c0 -10 -5 -15 -15 -15h-35c-10 0 -15 5 -15 15v325c0 10 5 15 15 15h35c10 0 15 -5 15 -15v-325z" />
    <glyph glyph-name="section" unicode="&#xa7;" horiz-adv-x="605" 
d="M160 520c0 -15.333 3.66797 -26.9971 11.001 -34.9971s18.666 -14.667 33.999 -20l230 -75c22.667 -7.33301 40.834 -19.166 54.501 -35.499s20.5 -39.5 20.5 -69.5v-75c0 -22.667 -4.16699 -41.334 -12.5 -56.001s-17.5 -26.334 -27.5 -35.001
c-12 -10.667 -25.333 -18.667 -40 -24v-5c13.333 -4.66699 25.666 -11.667 36.999 -21c9.33301 -8 18 -18.667 26 -32s12 -30.666 12 -51.999v-40c0 -96.667 -48.333 -145 -145 -145h-100c-50 0 -88.333 13.333 -115 40s-40 65 -40 115c0 5.33301 1.16699 10 3.5 14
s6.16602 6 11.499 6h30c5.33301 0 9.16602 -2 11.499 -6s3.5 -8.66699 3.5 -14c0 -30 8.33301 -53.333 25 -70s40 -25 70 -25h100c56.667 0 85 28.333 85 85v40c0 15.333 -3.66699 27 -11 35s-18.666 14.667 -33.999 20l-230 75
c-22.667 7.33301 -40.834 19.166 -54.501 35.499s-20.5 39.5 -20.5 69.5v75c0 22.667 4.16699 41.167 12.5 55.5s17.5 26.166 27.5 35.499c12 10 25.333 18 40 24v5c-14 4.66699 -26.667 11.667 -38 21c-9.33301 8 -17.833 18.667 -25.5 32s-11.5 30.666 -11.5 51.999v35
c0 96.667 48.333 145 145 145h100c50 0 88.333 -13.333 115 -40s40 -65 40 -115c0 -5.33301 -1.16699 -10 -3.5 -14s-6.16602 -6 -11.499 -6h-30c-5.33301 0 -9.16602 2 -11.499 6s-3.5 8.66699 -3.5 14c0 30 -8.33301 53.333 -25 70s-40 25 -70 25h-100
c-56.667 0 -85 -28.333 -85 -85v-35zM155.001 220.003c0 -15.333 3.66797 -27 11.001 -35s18.666 -14.667 33.999 -20l165 -55c16 4.66699 30 11.334 42 20.001c10.667 7.33301 20.5 17.5 29.5 30.5s13.5 29.5 13.5 49.5v75c0 15.333 -3.66699 27 -11 35
s-18.666 14.667 -33.999 20l-165 55c-16.667 -4.66699 -31 -11.334 -43 -20.001c-10.667 -7.33301 -20.334 -17.5 -29.001 -30.5s-13 -29.5 -13 -49.5v-75z" />
    <glyph glyph-name="dieresis" unicode="&#xa8;" horiz-adv-x="300" 
d="M85 700c10 0 15 -5 15 -15v-40c0 -10 -5 -15 -15 -15h-40c-10 0 -15 5 -15 15v40c0 10 5 15 15 15h40zM255 700c10 0 15 -5 15 -15v-40c0 -10 -5 -15 -15 -15h-40c-10 0 -15 5 -15 15v40c0 10 5 15 15 15h40z" />
    <glyph glyph-name="copyright" unicode="&#xa9;" horiz-adv-x="910" 
d="M740 525c0 35.333 -9.5 62.5 -28.5 81.5s-46.167 28.5 -81.5 28.5h-350c-35.333 0 -62.5 -9.5 -81.5 -28.5s-28.5 -46.167 -28.5 -81.5v-350c0 -35.333 9.5 -62.5 28.5 -81.5s46.167 -28.5 81.5 -28.5h350c35.333 0 62.5 9.5 81.5 28.5s28.5 46.167 28.5 81.5v350z
M805 175c0 -55.333 -15.333 -98.333 -46 -129s-73.667 -46 -129 -46h-350c-55.333 -0 -98.333 15.333 -129 46s-46 73.667 -46 129v350c0 55.333 15.333 98.333 46 129s73.667 46 129 46h350c55.333 0 98.333 -15.333 129 -46s46 -73.667 46 -129v-350zM595 410
c0 -6.66699 -3.33301 -10 -10 -10h-35c-6.66699 0 -10 3.33301 -10 10v10c0 30 -15 45 -45 45h-80c-30 0 -45 -15 -45 -45v-140c0 -30 15 -45 45 -45h80c30 0 45 15 45 45v10c0 6.66699 3.33301 10 10 10h35c6.66699 0 10 -3.33301 10 -10v-10
c0 -30 -9.16699 -54.167 -27.5 -72.5s-42.5 -27.5 -72.5 -27.5h-80c-30 0 -54.167 9.16699 -72.5 27.5s-27.5 42.5 -27.5 72.5v140c0 30 9.16699 54.167 27.5 72.5s42.5 27.5 72.5 27.5h80c30 0 54.167 -9.16699 72.5 -27.5s27.5 -42.5 27.5 -72.5v-10z" />
    <glyph glyph-name="ordfeminine" unicode="&#xaa;" horiz-adv-x="355" 
d="M260 520h-130c-10 0 -18.333 -3.33301 -25 -10s-10 -15 -10 -25v-15c0 -10 3.33301 -18.333 10 -25s15 -10 25 -10h75c36.667 0 55 18.333 55 55v30zM260 420h-4.99805c-3.33301 -6.66699 -7.66602 -12.667 -12.999 -18c-4.66699 -4.66699 -10.834 -8.66699 -18.501 -12
s-17.167 -5 -28.5 -5h-65c-60 0 -90 30 -90 90v5c0 60 30 90 90 90h130v30c0 12.667 -4.33301 23.334 -13 32.001s-19.334 13 -32.001 13h-65c-12.667 0 -23.334 -4.33301 -32.001 -13s-13 -19.334 -13 -32.001c0 -6.66699 -3.33301 -10 -10 -10h-35
c-6.66699 0 -10 3.33301 -10 10c0 66.667 33.333 100 100 100h65c66.667 0 100 -33.333 100 -100v-200c0 -6.66699 -3.33301 -10 -10 -10h-35c-6.66699 0 -10 3.33301 -10 10v20z" />
    <glyph glyph-name="guillemotleft" unicode="&#xab;" horiz-adv-x="463" 
d="M115 255l120 -190c2.66699 -5.33301 3.16699 -9.16602 1.5 -11.499s-3.83398 -3.5 -6.50098 -3.5h-40c-7.33301 0 -12.5 1.16699 -15.5 3.5s-6.16699 6.16602 -9.5 11.499l-120 190l120 190c3.33301 5.33301 6.5 9.16602 9.5 11.499s8.16699 3.5 15.5 3.5h40
c2.66699 0 4.83398 -1.16699 6.50098 -3.5s1.16699 -6.16602 -1.5 -11.499zM295 255l120 -190c2.66699 -5.33301 3.16699 -9.16602 1.5 -11.499s-3.83398 -3.5 -6.50098 -3.5h-40c-7.33301 0 -12.5 1.16699 -15.5 3.5s-6.16699 6.16602 -9.5 11.499l-120 190l120 190
c3.33301 5.33301 6.5 9.16602 9.5 11.499s8.16699 3.5 15.5 3.5h40c2.66699 0 4.83398 -1.16699 6.50098 -3.5s1.16699 -6.16602 -1.5 -11.499z" />
    <glyph glyph-name="logicalnot" unicode="&#xac;" horiz-adv-x="450" 
d="M395 395c10 0 15 -5 15 -15v-145c0 -10 -5 -15 -15 -15h-30c-10 0 -15 5 -15 15v95h-295c-10 0 -15 5 -15 15v35c0 10 5 15 15 15h340z" />
    <glyph glyph-name="uni00AD" unicode="&#xad;" horiz-adv-x="425" 
d="M45 275c-10 0 -15 5 -15 15v35c0 10 5 15 15 15h335c10 0 15 -5 15 -15v-35c0 -10 -5 -15 -15 -15h-335z" />
    <glyph glyph-name="registered" unicode="&#xae;" horiz-adv-x="910" 
d="M540 420c0 30 -15 45 -45 45h-120v-110h120c30 0 45 15 45 45v20zM480 300l-105.001 -0.000976562v-110c0 -6.66699 -3.33301 -10 -10 -10h-35c-6.66699 0 -10 3.33301 -10 10v320c0 6.66699 3.33301 10 10 10h165c30 0 54.167 -9.16699 72.5 -27.5
s27.5 -42.5 27.5 -72.5v-20c0 -19.333 -3.16699 -34.666 -9.5 -45.999s-13.166 -20.333 -20.499 -27c-8.66699 -7.33301 -18.667 -13 -30 -17l65 -120c1.33301 -2.66699 1.5 -5 0.5 -7s-2.83301 -3 -5.5 -3h-40c-5.33301 0 -8.83301 1 -10.5 3s-3.16699 4.33301 -4.5 7z
M739.999 524.999c0 35.333 -9.5 62.5 -28.5 81.5s-46.167 28.5 -81.5 28.5h-350c-35.333 0 -62.5 -9.5 -81.5 -28.5s-28.5 -46.167 -28.5 -81.5v-350c0 -35.333 9.5 -62.5 28.5 -81.5s46.167 -28.5 81.5 -28.5h350c35.333 0 62.5 9.5 81.5 28.5s28.5 46.167 28.5 81.5v350z
M804.999 174.999c0 -55.333 -15.333 -98.333 -46 -129s-73.667 -46 -129 -46h-350c-55.333 0 -98.333 15.333 -129 46s-46 73.667 -46 129v350c0 55.333 15.333 98.333 46 129s73.667 46 129 46h350c55.333 0 98.333 -15.333 129 -46s46 -73.667 46 -129v-350z" />
    <glyph glyph-name="macron" unicode="&#xaf;" horiz-adv-x="330" 
d="M45 645c-10 0 -15 5 -15 15v25c0 10 5 15 15 15h240c10 0 15 -5 15 -15v-25c0 -10 -5 -15 -15 -15h-240z" />
    <glyph glyph-name="degree" unicode="&#xb0;" horiz-adv-x="390" 
d="M340 505c0 -80 -40 -120 -120 -120h-50c-80 0 -120 40 -120 120v75c0 80 40 120 120 120h50c80 0 120 -40 120 -120v-75zM285 580c0 20 -5.83301 35.833 -17.5 47.5s-27.5 17.5 -47.5 17.5h-50c-20 0 -35.833 -5.83301 -47.5 -17.5s-17.5 -27.5 -17.5 -47.5v-75
c0 -20 5.83301 -35.833 17.5 -47.5s27.5 -17.5 47.5 -17.5h50c20 0 35.833 5.83301 47.5 17.5s17.5 27.5 17.5 47.5v75z" />
    <glyph glyph-name="plusminus" unicode="&#xb1;" horiz-adv-x="465" 
d="M265 160h145c10 0 15 -5 15 -15v-35c0 -10 -5 -15 -15 -15h-355c-10 0 -15 5 -15 15v35c0 10 5 15 15 15h145v175h-145c-10 0 -15 5 -15 15v35c0 10 5 15 15 15h145v155c0 10 5 15 15 15h35c10 0 15 -5 15 -15v-155h145c10 0 15 -5 15 -15v-35c0 -10 -5 -15 -15 -15h-145
v-175z" />
    <glyph glyph-name="twosuperior" unicode="&#xb2;" horiz-adv-x="320" 
d="M190 650c15.333 9.33301 25.835 17.502 31.502 24.502s8.5 15.5 8.5 25.5c0 12.667 -4.33301 23.334 -13 32.001s-19.334 13 -32.001 13h-50c-12.667 0 -23.334 -4.33301 -32.001 -13s-13 -19.334 -13 -32.001c0 -6.66699 -3.33301 -10 -10 -10h-35
c-6.66699 0 -10 3.33301 -10 10c0 66.667 33.333 100 100 100h50c66.667 0 100 -33.333 100 -100c0 -20 -5.16699 -36.5 -15.5 -49.5s-26.833 -26.5 -49.5 -40.5l-105 -65v-5h155c6.66699 0 10 -3.33301 10 -10v-35c0 -6.66699 -3.33301 -10 -10 -10h-225
c-6.66699 0 -10 3.33301 -10 10v45c0 5.33301 1 9.66602 3 12.999s4.33301 5.66602 7 6.99902z" />
    <glyph glyph-name="threesuperior" unicode="&#xb3;" horiz-adv-x="325" 
d="M235 595c0 12.667 -4.33398 23.335 -13.001 32.002s-19.334 13 -32.001 13h-85c-6.66699 0 -10 3.33301 -10 10v10c0 5.33301 1 9.66602 3 12.999s4.33301 5.66602 7 6.99902l90 60v5h-145c-6.66699 0 -10 3.33301 -10 10v35c0 6.66699 3.33301 10 10 10h220
c6.66699 0 10 -3.33301 10 -10v-35c0 -5.33301 -1 -9.5 -3 -12.5s-4.33301 -5.5 -7 -7.5l-75 -50v-5c30 0 53.333 -8.33301 70 -25s25 -40 25 -70c0 -66.667 -33.333 -100 -100 -100h-55c-66.667 0 -100 33.333 -100 100c0 6.66699 3.33301 10 10 10h35
c6.66699 0 10 -3.33301 10 -10c0 -12.667 4.33301 -23.334 13 -32.001s19.334 -13 32.001 -13h55c12.667 0 23.334 4.33301 32.001 13s13 19.334 13 32.001v10z" />
    <glyph glyph-name="acute" unicode="&#xb4;" horiz-adv-x="199" 
d="M82 555c-3.33301 -4.66699 -6.16797 -8.33398 -8.50098 -11.001s-6.16602 -4 -11.499 -4h-20c-5.33301 0 -9 1.33301 -11 4s-1.66699 6.33398 1 11.001l65 130c4.66699 10 11.334 15 20.001 15h40c11.333 0 14.666 -5 9.99902 -15z" />
    <glyph glyph-name="mu" unicode="&#xb5;" 
d="M100 -190c-10 0 -15.002 5 -15.002 15v670c0 10 5 15 15 15h30c10 0 15 -5 15 -15v-350c0 -30 8.33301 -53.333 25 -70s40 -25 70 -25h85c35.333 0 63.333 10.333 84 31s31 48.667 31 84v330c0 10 5 15 15 15h30c10 0 15 -5 15 -15v-480c0 -10 -5 -15 -15 -15h-30
c-10 0 -15 5 -15 15v40h-5c-6.66699 -12.667 -15 -23.667 -25 -33c-9.33301 -8 -20.833 -15.333 -34.5 -22s-30.5 -10 -50.5 -10h-85c-17.333 0 -32.166 2 -44.499 6s-22.166 8.66699 -29.499 14c-8.66699 6 -15.667 12.667 -21 20v-205c0 -10 -5 -15 -15 -15h-30z" />
    <glyph glyph-name="paragraph" unicode="&#xb6;" horiz-adv-x="620" 
d="M500 700c10 0 15 -5 15 -15v-710c0 -55.333 -15.333 -98.333 -46 -129s-73.667 -46 -129 -46h-175c-10 0 -15 5 -15 15v35c0 10 5 15 15 15h50c10 0 15 5 15 15v460c-55.333 0 -97.5 14.5 -126.5 43.5s-43.5 71.167 -43.5 126.5v20c0 55.333 14.5 97.5 43.5 126.5
s71.167 43.5 126.5 43.5h270zM295 -135h45c35.333 0 62.5 9.5 81.5 28.5s28.5 46.167 28.5 81.5v660h-155v-770z" />
    <glyph glyph-name="periodcentered" unicode="&#xb7;" horiz-adv-x="200" 
d="M120 335c10 0 15 -5 15 -15v-40c0 -10 -5 -15 -15 -15h-40c-10 0 -15 5 -15 15v40c0 10 5 15 15 15h40z" />
    <glyph glyph-name="cedilla" unicode="&#xb8;" horiz-adv-x="235" 
d="M205 -160c0 -28 -8.33301 -49.999 -25 -65.999s-40 -24 -70 -24h-70c-6.66699 0 -10 3.33301 -10 10v30c0 6.66699 3.33301 10 10 10h70c15.333 0 26.666 3.66699 33.999 11s11 17 11 29v5c0 12 -3.66699 21.667 -11 29s-18.666 11 -33.999 11h-55
c-6.66699 0 -10 3.33301 -10 10v30c0 7.33301 1 13.166 3 17.499s4.33301 8.5 7 12.5l25 45h40l-35 -65h25c30 0 53.333 -8 70 -24s25 -38 25 -66v-5z" />
    <glyph glyph-name="onesuperior" unicode="&#xb9;" horiz-adv-x="225" 
d="M50 745c-6.66699 0 -10 3.33301 -10 10v35c0 6.66699 3.33301 10 10 10h125c6.66699 0 10 -3.33301 10 -10v-295c0 -6.66699 -3.33301 -10 -10 -10h-35c-6.66699 0 -10 3.33301 -10 10v250h-80z" />
    <glyph glyph-name="ordmasculine" unicode="&#xba;" horiz-adv-x="360" 
d="M320 505c0 -80 -40 -120 -120 -120h-40c-80 0 -120 40 -120 120v75c0 80 40 120 120 120h40c80 0 120 -40 120 -120v-75zM265 580c0 20 -5.83301 35.833 -17.5 47.5s-27.5 17.5 -47.5 17.5h-40c-20 0 -35.833 -5.83301 -47.5 -17.5s-17.5 -27.5 -17.5 -47.5v-75
c0 -20 5.83301 -35.833 17.5 -47.5s27.5 -17.5 47.5 -17.5h40c20 0 35.833 5.83301 47.5 17.5s17.5 27.5 17.5 47.5v75z" />
    <glyph glyph-name="guillemotright" unicode="&#xbb;" horiz-adv-x="463" 
d="M228 445c-2.66699 5.33301 -3.16699 9.16602 -1.5 11.499s3.83398 3.5 6.50098 3.5h40c7.33301 0 12.5 -1.16699 15.5 -3.5s6.16699 -6.16602 9.5 -11.499l120 -190l-120 -190c-3.33301 -5.33301 -6.5 -9.16602 -9.5 -11.499s-8.16699 -3.5 -15.5 -3.5h-40
c-2.66699 0 -4.83398 1.16699 -6.50098 3.5s-1.16699 6.16602 1.5 11.499l120 190zM48 445c-2.66699 5.33301 -3.16699 9.16602 -1.5 11.499s3.83398 3.5 6.50098 3.5h40c7.33301 0 12.5 -1.16699 15.5 -3.5s6.16699 -6.16602 9.5 -11.499l120 -190l-120 -190
c-3.33301 -5.33301 -6.5 -9.16602 -9.5 -11.499s-8.16699 -3.5 -15.5 -3.5h-40c-2.66699 0 -4.83398 1.16699 -6.50098 3.5s-1.16699 6.16602 1.5 11.499l120 190z" />
    <glyph glyph-name="onequarter" unicode="&#xbc;" horiz-adv-x="670" 
d="M195 15c-2.66699 -5.33301 -5.33301 -9.16602 -8 -11.499s-6.66699 -3.5 -12 -3.5h-35c-5.33301 0 -9 1.16699 -11 3.5s-1.66699 6.16602 1 11.499l305 670c4.66699 10 11.334 15 20.001 15h35c11.333 0 14.666 -5 9.99902 -15zM30.001 645
c-6.66699 0 -10 3.33301 -10 10v35c0 6.66699 3.33301 10 10 10h125c6.66699 0 10 -3.33301 10 -10v-295c0 -6.66699 -3.33301 -10 -10 -10h-35c-6.66699 0 -10 3.33301 -10 10v250h-80zM600.001 120l35 -0.000976562c6.66699 0 10 -3.33301 10 -10v-30
c0 -6.66699 -3.33301 -10 -10 -10h-35v-60c0 -6.66699 -3.33301 -10 -10 -10h-35c-6.66699 0 -10 3.33301 -10 10v60h-165c-6.66699 0 -10 3.33301 -10 10v30c0 5.33301 1.16699 9.33301 3.5 12s4.5 5.33398 6.5 8.00098l135 175c2 2.66699 4.5 5 7.5 7s7.16699 3 12.5 3h55
c6.66699 0 10 -3.33301 10 -10v-185zM545.001 119.999v140h-5l-105 -135v-5h110z" />
    <glyph glyph-name="onehalf" unicode="&#xbd;" horiz-adv-x="705" 
d="M195 15c-2.66699 -5.33301 -5.33301 -9.16602 -8 -11.499s-6.66699 -3.5 -12 -3.5h-35c-5.33301 0 -9 1.16699 -11 3.5s-1.66699 6.16602 1 11.499l305 670c4.66699 10 11.334 15 20.001 15h35c11.333 0 14.666 -5 9.99902 -15zM30.001 645
c-6.66699 0 -10 3.33301 -10 10v35c0 6.66699 3.33301 10 10 10h125c6.66699 0 10 -3.33301 10 -10v-295c0 -6.66699 -3.33301 -10 -10 -10h-35c-6.66699 0 -10 3.33301 -10 10v250h-80zM570.001 165c15.333 9.33301 25.835 17.502 31.502 24.502s8.5 15.5 8.5 25.5
c0 12.667 -4.33301 23.334 -13 32.001s-19.334 13 -32.001 13h-50c-12.667 0 -23.334 -4.33301 -32.001 -13s-13 -19.334 -13 -32.001c0 -6.66699 -3.33301 -10 -10 -10h-35c-6.66699 0 -10 3.33301 -10 10c0 66.667 33.333 100 100 100h50c66.667 0 100 -33.333 100 -100
c0 -20 -5.16699 -36.5 -15.5 -49.5s-26.833 -26.5 -49.5 -40.5l-105 -65v-5h155c6.66699 0 10 -3.33301 10 -10v-35c0 -6.66699 -3.33301 -10 -10 -10h-225c-6.66699 0 -10 3.33301 -10 10v45c0 5.33301 1 9.66602 3 12.999s4.33301 5.66602 7 6.99902z" />
    <glyph glyph-name="threequarters" unicode="&#xbe;" horiz-adv-x="745" 
d="M270 15c-2.66699 -5.33301 -5.33301 -9.16602 -8 -11.499s-6.66699 -3.5 -12 -3.5h-35c-5.33301 0 -9 1.16699 -11 3.5s-1.66699 6.16602 1 11.499l305 670c4.66699 10 11.334 15 20.001 15h35c11.333 0 14.666 -5 9.99902 -15zM675.001 120l35 -0.000976562
c6.66699 0 10 -3.33301 10 -10v-30c0 -6.66699 -3.33301 -10 -10 -10h-35v-60c0 -6.66699 -3.33301 -10 -10 -10h-35c-6.66699 0 -10 3.33301 -10 10v60h-165c-6.66699 0 -10 3.33301 -10 10v30c0 5.33301 1.16699 9.33301 3.5 12s4.5 5.33398 6.5 8.00098l135 175
c2 2.66699 4.5 5 7.5 7s7.16699 3 12.5 3h55c6.66699 0 10 -3.33301 10 -10v-185zM620.001 119.999v140h-5l-105 -135v-5h110zM230.001 494.999c0 12.667 -4.33398 23.335 -13.001 32.002s-19.334 13 -32.001 13h-85c-6.66699 0 -10 3.33301 -10 10v10
c0 5.33301 1 9.66602 3 12.999s4.33301 5.66602 7 6.99902l90 60v5h-145c-6.66699 0 -10 3.33301 -10 10v35c0 6.66699 3.33301 10 10 10h220c6.66699 0 10 -3.33301 10 -10v-35c0 -5.33301 -1 -9.5 -3 -12.5s-4.33301 -5.5 -7 -7.5l-75 -50v-5c30 0 53.333 -8.33301 70 -25
s25 -40 25 -70c0 -66.667 -33.333 -100 -100 -100h-55c-66.667 0 -100 33.333 -100 100c0 6.66699 3.33301 10 10 10h35c6.66699 0 10 -3.33301 10 -10c0 -12.667 4.33301 -23.334 13 -32.001s19.334 -13 32.001 -13h55c12.667 0 23.334 4.33301 32.001 13
s13 19.334 13 32.001v10z" />
    <glyph glyph-name="questiondown" unicode="&#xbf;" horiz-adv-x="565" 
d="M290 240l5 65c0.666992 10 5.66699 15 15 15h20c10 0 15 -5 15 -15l5 -115c0 -10 -5 -15 -15 -15h-100c-35.333 0 -62.5 -9.5 -81.5 -28.5s-28.5 -46.167 -28.5 -81.5v-90c0 -35.333 9.5 -62.5 28.5 -81.5s46.167 -28.5 81.5 -28.5h145c35.333 0 62.5 9.5 81.5 28.5
s28.5 46.167 28.5 81.5v30c0 10 5 15 15 15h35c10 0 15 -5 15 -15v-30c0 -55.333 -15.333 -98.333 -46 -129s-73.667 -46 -129 -46h-145c-55.333 0 -98.333 15.333 -129 46s-46 73.667 -46 129v90c0 55.333 15.333 98.333 46 129s73.667 46 129 46h55zM300 440
c-10 0 -15 5 -15 15v40c0 10 5 15 15 15h40c10 0 15 -5 15 -15v-40c0 -10 -5 -15 -15 -15h-40z" />
    <glyph glyph-name="Agrave" unicode="&#xc0;" horiz-adv-x="649" 
d="M487 195h-325l-70 -180c-4 -10 -10.667 -15 -20 -15h-45c-10.667 0 -14 5 -10 15l265 670c4 10 10.667 15 20 15h45c9.33301 0 16 -5 20 -15l265 -670c4 -10 0.666992 -15 -10 -15h-45c-9.33301 0 -16 5 -20 15zM462 260l-135 360h-5l-135 -360h275zM207 935
c-2.66699 5.33301 -3.00293 9.16602 -1.00293 11.499s5.66699 3.5 11 3.5h40c5.33301 0 9.33301 -1.16699 12 -3.5s5.33398 -6.16602 8.00098 -11.499l65 -130c2.66699 -4.66699 3 -8.33398 1 -11.001s-5.66699 -4 -11 -4h-20c-5.33301 0 -9.16602 1.33301 -11.499 4
s-5.16602 6.33398 -8.49902 11.001z" />
    <glyph glyph-name="Aacute" unicode="&#xc1;" horiz-adv-x="649" 
d="M487 195h-325l-70 -180c-4 -10 -10.667 -15 -20 -15h-45c-10.667 0 -14 5 -10 15l265 670c4 10 10.667 15 20 15h45c9.33301 0 16 -5 20 -15l265 -670c4 -10 0.666992 -15 -10 -15h-45c-9.33301 0 -16 5 -20 15zM462 260l-135 360h-5l-135 -360h275zM367 805
c-3.33301 -4.66699 -6.16797 -8.33398 -8.50098 -11.001s-6.16602 -4 -11.499 -4h-20c-5.33301 0 -9 1.33301 -11 4s-1.66699 6.33398 1 11.001l65 130c4.66699 10 11.334 15 20.001 15h40c11.333 0 14.666 -5 9.99902 -15z" />
    <glyph glyph-name="Acircumflex" unicode="&#xc2;" horiz-adv-x="649" 
d="M487 195h-325l-70 -180c-4 -10 -10.667 -15 -20 -15h-45c-10.667 0 -14 5 -10 15l265 670c4 10 10.667 15 20 15h45c9.33301 0 16 -5 20 -15l265 -670c4 -10 0.666992 -15 -10 -15h-45c-9.33301 0 -16 5 -20 15zM462 260l-135 360h-5l-135 -360h275zM335 960
c7.33301 0 12.5 -1.33301 15.5 -4s6.16699 -6.33398 9.5 -11.001l105 -140c2 -2.66699 3 -5.83398 3 -9.50098s-2.66699 -5.5 -8 -5.5h-30c-7.33301 0 -12.5 1.33301 -15.5 4s-6.16699 6.33398 -9.5 11.001l-80 105h-5l-80 -105
c-3.33301 -4.66699 -6.5 -8.33398 -9.5 -11.001s-8.16699 -4 -15.5 -4h-30c-5.33301 0 -8 1.83301 -8 5.5s1 6.83398 3 9.50098l105 140c3.33301 4.66699 6.5 8.33398 9.5 11.001s8.16699 4 15.5 4h25z" />
    <glyph glyph-name="Atilde" unicode="&#xc3;" horiz-adv-x="649" 
d="M487 195h-325l-70 -180c-4 -10 -10.667 -15 -20 -15h-45c-10.667 0 -14 5 -10 15l265 670c4 10 10.667 15 20 15h45c9.33301 0 16 -5 20 -15l265 -670c4 -10 0.666992 -15 -10 -15h-45c-9.33301 0 -16 5 -20 15zM462 260l-135 360h-5l-135 -360h275zM387 795
c-17.333 0 -31.666 4.5 -42.999 13.5s-21.166 18.667 -29.499 29s-15.666 20 -21.999 29s-13.166 13.5 -20.499 13.5c-16.667 0 -25 -8.33301 -25 -25v-50c0 -6.66699 -3.33301 -10 -10 -10h-30c-6.66699 0 -10 3.33301 -10 10v60c0 20 5.83301 35.833 17.5 47.5
s27.5 17.5 47.5 17.5c17.333 0 31.666 -4.5 42.999 -13.5s21.166 -18.667 29.499 -29s15.666 -20 21.999 -29s13.166 -13.5 20.499 -13.5c16.667 0 25 8.33301 25 25v50c0 6.66699 3.33301 10 10 10h30c6.66699 0 10 -3.33301 10 -10v-60
c0 -20 -5.83301 -35.833 -17.5 -47.5s-27.5 -17.5 -47.5 -17.5z" />
    <glyph glyph-name="Adieresis" unicode="&#xc4;" horiz-adv-x="649" 
d="M487 195h-325l-70 -180c-4 -10 -10.667 -15 -20 -15h-45c-10.667 0 -14 5 -10 15l265 670c4 10 10.667 15 20 15h45c9.33301 0 16 -5 20 -15l265 -670c4 -10 0.666992 -15 -10 -15h-45c-9.33301 0 -16 5 -20 15zM462 260l-135 360h-5l-135 -360h275zM260 900
c10 0 15 -5 15 -15v-40c0 -10 -5 -15 -15 -15h-40c-10 0 -15 5 -15 15v40c0 10 5 15 15 15h40zM430 900c10 0 15 -5 15 -15v-40c0 -10 -5 -15 -15 -15h-40c-10 0 -15 5 -15 15v40c0 10 5 15 15 15h40z" />
    <glyph glyph-name="Aring" unicode="&#xc5;" horiz-adv-x="649" 
d="M487 195h-325l-70 -180c-4 -10 -10.667 -15 -20 -15h-45c-10.667 0 -14 5 -10 15l265 670c4 10 10.667 15 20 15h45c9.33301 0 16 -5 20 -15l265 -670c4 -10 0.666992 -15 -10 -15h-45c-9.33301 0 -16 5 -20 15zM462 260l-135 360h-5l-135 -360h275zM330 985
c30 0 54.167 -8.83301 72.5 -26.5s27.5 -40.5 27.5 -68.5v-20c0 -28 -9.16699 -50.833 -27.5 -68.5s-42.5 -26.5 -72.5 -26.5h-10c-30 0 -54.167 8.83301 -72.5 26.5s-27.5 40.5 -27.5 68.5v20c0 28 9.16699 50.833 27.5 68.5s42.5 26.5 72.5 26.5h10zM320 940
c-17.333 0 -30.833 -4.5 -40.5 -13.5s-14.5 -21.167 -14.5 -36.5v-20c0 -15.333 4.83301 -27.5 14.5 -36.5s23.167 -13.5 40.5 -13.5h10c17.333 0 30.833 4.5 40.5 13.5s14.5 21.167 14.5 36.5v20c0 15.333 -4.83301 27.5 -14.5 36.5s-23.167 13.5 -40.5 13.5h-10z" />
    <glyph glyph-name="AE" unicode="&#xc6;" horiz-adv-x="1022" 
d="M577 390h290c10 0 15 -5 15 -15v-35c0 -10 -5 -15 -15 -15h-290v-260h390c10 0 15 -5 15 -15v-35c0 -10 -5 -15 -15 -15h-440c-10 0 -15 5 -15 15v175h-370l-70 -175c-4 -10 -10.667 -15 -20 -15h-40c-10.667 0 -14 5 -10 15l265 670c4 10 10.667 15 20 15h670
c10 0 15 -5 15 -15v-35c0 -10 -5 -15 -15 -15h-380v-245zM512 255v380h-195l-150 -380h345z" />
    <glyph glyph-name="Ccedilla" unicode="&#xc7;" horiz-adv-x="755" 
d="M490 -160c0 -28 -8.33301 -49.999 -25 -65.999s-40 -24 -70 -24h-70c-6.66699 0 -10 3.33301 -10 10v30c0 6.66699 3.33301 10 10 10h70c15.333 0 26.666 3.66699 33.999 11s11 17 11 29v5c0 12 -3.66699 21.667 -11 29s-18.666 11 -33.999 11h-55
c-6.66699 0 -10 3.33301 -10 10v30c0 7.33301 1 13.166 3 17.499s4.33301 8.5 7 12.5l20 35h-90c-55.333 0 -98.333 15.333 -129 46s-46 73.667 -46 129v370c0 55.333 15.333 98.333 46 129s73.667 46 129 46h225c55.333 0 98.333 -15.333 129 -46s46 -73.667 46 -129v-30
c0 -10 -5 -15 -15 -15h-35c-10 0 -15 5 -15 15v30c0 35.333 -9.5 62.5 -28.5 81.5s-46.167 28.5 -81.5 28.5h-225c-35.333 0 -62.5 -9.5 -81.5 -28.5s-28.5 -46.167 -28.5 -81.5v-370c0 -35.333 9.5 -62.5 28.5 -81.5s46.167 -28.5 81.5 -28.5h225
c35.333 0 62.5 9.5 81.5 28.5s28.5 46.167 28.5 81.5v30c0 10 5 15 15 15h35c10 0 15 -5 15 -15v-30c0 -55.333 -15.333 -98.333 -46 -129s-73.667 -46 -129 -46h-95l-30 -55h25c30 0 53.333 -8 70 -24s25 -38 25 -66v-5z" />
    <glyph glyph-name="Egrave" unicode="&#xc8;" horiz-adv-x="665" 
d="M170 390h340c10 0 15 -5 15 -15v-35c0 -10 -5 -15 -15 -15h-340v-260h440c10 0 15 -5 15 -15v-35c0 -10 -5 -15 -15 -15h-490c-10 0 -15 5 -15 15v670c0 10 5 15 15 15h480c10 0 15 -5 15 -15v-35c0 -10 -5 -15 -15 -15h-430v-245zM250 935
c-2.66699 5.33301 -3.00293 9.16602 -1.00293 11.499s5.66699 3.5 11 3.5h40c5.33301 0 9.33301 -1.16699 12 -3.5s5.33398 -6.16602 8.00098 -11.499l65 -130c2.66699 -4.66699 3 -8.33398 1 -11.001s-5.66699 -4 -11 -4h-20c-5.33301 0 -9.16602 1.33301 -11.499 4
s-5.16602 6.33398 -8.49902 11.001z" />
    <glyph glyph-name="Eacute" unicode="&#xc9;" horiz-adv-x="665" 
d="M170 390h340c10 0 15 -5 15 -15v-35c0 -10 -5 -15 -15 -15h-340v-260h440c10 0 15 -5 15 -15v-35c0 -10 -5 -15 -15 -15h-490c-10 0 -15 5 -15 15v670c0 10 5 15 15 15h480c10 0 15 -5 15 -15v-35c0 -10 -5 -15 -15 -15h-430v-245zM385 805
c-3.33301 -4.66699 -6.16797 -8.33398 -8.50098 -11.001s-6.16602 -4 -11.499 -4h-20c-5.33301 0 -9 1.33301 -11 4s-1.66699 6.33398 1 11.001l65 130c4.66699 10 11.334 15 20.001 15h40c11.333 0 14.666 -5 9.99902 -15z" />
    <glyph glyph-name="Ecircumflex" unicode="&#xca;" horiz-adv-x="665" 
d="M170 390h340c10 0 15 -5 15 -15v-35c0 -10 -5 -15 -15 -15h-340v-260h440c10 0 15 -5 15 -15v-35c0 -10 -5 -15 -15 -15h-490c-10 0 -15 5 -15 15v670c0 10 5 15 15 15h480c10 0 15 -5 15 -15v-35c0 -10 -5 -15 -15 -15h-430v-245zM370 960
c7.33301 0 12.5 -1.33301 15.5 -4s6.16699 -6.33398 9.5 -11.001l105 -140c2 -2.66699 3 -5.83398 3 -9.50098s-2.66699 -5.5 -8 -5.5h-30c-7.33301 0 -12.5 1.33301 -15.5 4s-6.16699 6.33398 -9.5 11.001l-80 105h-5l-80 -105
c-3.33301 -4.66699 -6.5 -8.33398 -9.5 -11.001s-8.16699 -4 -15.5 -4h-30c-5.33301 0 -8 1.83301 -8 5.5s1 6.83398 3 9.50098l105 140c3.33301 4.66699 6.5 8.33398 9.5 11.001s8.16699 4 15.5 4h25z" />
    <glyph glyph-name="Edieresis" unicode="&#xcb;" horiz-adv-x="665" 
d="M170 390h340c10 0 15 -5 15 -15v-35c0 -10 -5 -15 -15 -15h-340v-260h440c10 0 15 -5 15 -15v-35c0 -10 -5 -15 -15 -15h-490c-10 0 -15 5 -15 15v670c0 10 5 15 15 15h480c10 0 15 -5 15 -15v-35c0 -10 -5 -15 -15 -15h-430v-245zM290 900c10 0 15 -5 15 -15v-40
c0 -10 -5 -15 -15 -15h-40c-10 0 -15 5 -15 15v40c0 10 5 15 15 15h40zM460 900c10 0 15 -5 15 -15v-40c0 -10 -5 -15 -15 -15h-40c-10 0 -15 5 -15 15v40c0 10 5 15 15 15h40z" />
    <glyph glyph-name="Igrave" unicode="&#xcc;" horiz-adv-x="277" 
d="M172 15c0 -10 -5 -15 -15 -15h-35c-10 0 -15 5 -15 15v670c0 10 5 15 15 15h35c10 0 15 -5 15 -15v-670zM23 935c-2.66699 5.33301 -3.00293 9.16602 -1.00293 11.499s5.66699 3.5 11 3.5h40c5.33301 0 9.33301 -1.16699 12 -3.5s5.33398 -6.16602 8.00098 -11.499
l65 -130c2.66699 -4.66699 3 -8.33398 1 -11.001s-5.66699 -4 -11 -4h-20c-5.33301 0 -9.16602 1.33301 -11.499 4s-5.16602 6.33398 -8.49902 11.001z" />
    <glyph glyph-name="Iacute" unicode="&#xcd;" horiz-adv-x="277" 
d="M170 15c0 -10 -5 -15 -15 -15h-35c-10 0 -15 5 -15 15v670c0 10 5 15 15 15h35c10 0 15 -5 15 -15v-670zM170 805c-3.33301 -4.66699 -6.16797 -8.33398 -8.50098 -11.001s-6.16602 -4 -11.499 -4h-20c-5.33301 0 -9 1.33301 -11 4s-1.66699 6.33398 1 11.001l65 130
c4.66699 10 11.334 15 20.001 15h40c11.333 0 14.666 -5 9.99902 -15z" />
    <glyph glyph-name="Icircumflex" unicode="&#xce;" horiz-adv-x="271" 
d="M169 15c0 -10 -5 -15 -15 -15h-35c-10 0 -15 5 -15 15v670c0 10 5 15 15 15h35c10 0 15 -5 15 -15v-670zM149 960c7.33301 0 12.5 -1.33301 15.5 -4s6.16699 -6.33398 9.5 -11.001l105 -140c2 -2.66699 3 -5.83398 3 -9.50098s-2.66699 -5.5 -8 -5.5h-30
c-7.33301 0 -12.5 1.33301 -15.5 4s-6.16699 6.33398 -9.5 11.001l-80 105h-5l-80 -105c-3.33301 -4.66699 -6.5 -8.33398 -9.5 -11.001s-8.16699 -4 -15.5 -4h-30c-5.33301 0 -8 1.83301 -8 5.5s1 6.83398 3 9.50098l105 140c3.33301 4.66699 6.5 8.33398 9.5 11.001
s8.16699 4 15.5 4h25z" />
    <glyph glyph-name="Idieresis" unicode="&#xcf;" horiz-adv-x="275" 
d="M170 15c0 -10 -5 -15 -15 -15h-35c-10 0 -15 5 -15 15v670c0 10 5 15 15 15h35c10 0 15 -5 15 -15v-670zM71 890c10 0 15 -5 15 -15v-40c0 -10 -5 -15 -15 -15h-40c-10 0 -15 5 -15 15v40c0 10 5 15 15 15h40zM241 890c10 0 15 -5 15 -15v-40c0 -10 -5 -15 -15 -15h-40
c-10 0 -15 5 -15 15v40c0 10 5 15 15 15h40z" />
    <glyph glyph-name="Eth" unicode="&#xd0;" horiz-adv-x="785" 
d="M690 175c0 -55.333 -15.333 -98.333 -46 -129s-73.667 -46 -129 -46h-375c-10 0 -15 5 -15 15v300h-75c-10 0 -15 5 -15 15v35c0 10 5 15 15 15h75v305c0 10 5 15 15 15h375c55.333 0 98.333 -15.333 129 -46s46 -73.667 46 -129v-350zM190 315v-250h325
c35.333 0 62.5 9.5 81.5 28.5s28.5 46.167 28.5 81.5v350c0 35.333 -9.5 62.5 -28.5 81.5s-46.167 28.5 -81.5 28.5h-325v-255h165c10 0 15 -5 15 -15v-35c0 -10 -5 -15 -15 -15h-165z" />
    <glyph glyph-name="Ntilde" unicode="&#xd1;" horiz-adv-x="775" 
d="M605 100v585c0 10 5 15 15 15h35c10 0 15 -5 15 -15v-670c0 -10 -5 -15 -15 -15h-45c-10 0 -16.667 1.16699 -20 3.5s-6.66602 6.16602 -9.99902 11.499l-405 585h-5v-585c0 -10 -5 -15 -15 -15h-35c-10 0 -15 5 -15 15v670c0 10 5 15 15 15h45
c10 0 16.667 -1.16699 20 -3.5s6.66602 -6.16602 9.99902 -11.499l405 -585h5zM450 790c-17.333 0 -31.666 4.5 -42.999 13.5s-21.166 18.667 -29.499 29s-15.666 20 -21.999 29s-13.166 13.5 -20.499 13.5c-16.667 0 -25 -8.33301 -25 -25v-50
c0 -6.66699 -3.33301 -10 -10 -10h-30c-6.66699 0 -10 3.33301 -10 10v60c0 20 5.83301 35.833 17.5 47.5s27.5 17.5 47.5 17.5c17.333 0 31.666 -4.5 42.999 -13.5s21.166 -18.667 29.499 -29s15.666 -20 21.999 -29s13.166 -13.5 20.499 -13.5c16.667 0 25 8.33301 25 25
v50c0 6.66699 3.33301 10 10 10h30c6.66699 0 10 -3.33301 10 -10v-60c0 -20 -5.83301 -35.833 -17.5 -47.5s-27.5 -17.5 -47.5 -17.5z" />
    <glyph glyph-name="Ograve" unicode="&#xd2;" horiz-adv-x="780" 
d="M620 535c0 35.333 -9.5 62.5 -28.5 81.5s-46.167 28.5 -81.5 28.5h-240c-35.333 0 -62.5 -9.5 -81.5 -28.5s-28.5 -46.167 -28.5 -81.5v-370c0 -35.333 9.5 -62.5 28.5 -81.5s46.167 -28.5 81.5 -28.5h240c35.333 0 62.5 9.5 81.5 28.5s28.5 46.167 28.5 81.5v370z
M685 165c0 -55.333 -15.333 -98.333 -46 -129s-73.667 -46 -129 -46h-240c-55.333 0 -98.333 15.333 -129 46s-46 73.667 -46 129v370c0 55.333 15.333 98.333 46 129s73.667 46 129 46h240c55.333 0 98.333 -15.333 129 -46s46 -73.667 46 -129v-370zM272 945
c-2.66699 5.33301 -3.00293 9.16602 -1.00293 11.499s5.66699 3.5 11 3.5h40c5.33301 0 9.33301 -1.16699 12 -3.5s5.33398 -6.16602 8.00098 -11.499l65 -130c2.66699 -4.66699 3 -8.33398 1 -11.001s-5.66699 -4 -11 -4h-20c-5.33301 0 -9.16602 1.33301 -11.499 4
s-5.16602 6.33398 -8.49902 11.001z" />
    <glyph glyph-name="Oacute" unicode="&#xd3;" horiz-adv-x="780" 
d="M620 535c0 35.333 -9.5 62.5 -28.5 81.5s-46.167 28.5 -81.5 28.5h-240c-35.333 0 -62.5 -9.5 -81.5 -28.5s-28.5 -46.167 -28.5 -81.5v-370c0 -35.333 9.5 -62.5 28.5 -81.5s46.167 -28.5 81.5 -28.5h240c35.333 0 62.5 9.5 81.5 28.5s28.5 46.167 28.5 81.5v370z
M685 165c0 -55.333 -15.333 -98.333 -46 -129s-73.667 -46 -129 -46h-240c-55.333 0 -98.333 15.333 -129 46s-46 73.667 -46 129v370c0 55.333 15.333 98.333 46 129s73.667 46 129 46h240c55.333 0 98.333 -15.333 129 -46s46 -73.667 46 -129v-370zM412 815
c-3.33301 -4.66699 -6.16797 -8.33398 -8.50098 -11.001s-6.16602 -4 -11.499 -4h-20c-5.33301 0 -9 1.33301 -11 4s-1.66699 6.33398 1 11.001l65 130c4.66699 10 11.334 15 20.001 15h40c11.333 0 14.666 -5 9.99902 -15z" />
    <glyph glyph-name="Ocircumflex" unicode="&#xd4;" horiz-adv-x="780" 
d="M620 535c0 35.333 -9.5 62.5 -28.5 81.5s-46.167 28.5 -81.5 28.5h-240c-35.333 0 -62.5 -9.5 -81.5 -28.5s-28.5 -46.167 -28.5 -81.5v-370c0 -35.333 9.5 -62.5 28.5 -81.5s46.167 -28.5 81.5 -28.5h240c35.333 0 62.5 9.5 81.5 28.5s28.5 46.167 28.5 81.5v370z
M685 165c0 -55.333 -15.333 -98.333 -46 -129s-73.667 -46 -129 -46h-240c-55.333 0 -98.333 15.333 -129 46s-46 73.667 -46 129v370c0 55.333 15.333 98.333 46 129s73.667 46 129 46h240c55.333 0 98.333 -15.333 129 -46s46 -73.667 46 -129v-370zM395 970
c7.33301 0 12.5 -1.33301 15.5 -4s6.16699 -6.33398 9.5 -11.001l105 -140c2 -2.66699 3 -5.83398 3 -9.50098s-2.66699 -5.5 -8 -5.5h-30c-7.33301 0 -12.5 1.33301 -15.5 4s-6.16699 6.33398 -9.5 11.001l-80 105h-5l-80 -105
c-3.33301 -4.66699 -6.5 -8.33398 -9.5 -11.001s-8.16699 -4 -15.5 -4h-30c-5.33301 0 -8 1.83301 -8 5.5s1 6.83398 3 9.50098l105 140c3.33301 4.66699 6.5 8.33398 9.5 11.001s8.16699 4 15.5 4h25z" />
    <glyph glyph-name="Otilde" unicode="&#xd5;" horiz-adv-x="780" 
d="M620 535c0 35.333 -9.5 62.5 -28.5 81.5s-46.167 28.5 -81.5 28.5h-240c-35.333 0 -62.5 -9.5 -81.5 -28.5s-28.5 -46.167 -28.5 -81.5v-370c0 -35.333 9.5 -62.5 28.5 -81.5s46.167 -28.5 81.5 -28.5h240c35.333 0 62.5 9.5 81.5 28.5s28.5 46.167 28.5 81.5v370z
M685 165c0 -55.333 -15.333 -98.333 -46 -129s-73.667 -46 -129 -46h-240c-55.333 0 -98.333 15.333 -129 46s-46 73.667 -46 129v370c0 55.333 15.333 98.333 46 129s73.667 46 129 46h240c55.333 0 98.333 -15.333 129 -46s46 -73.667 46 -129v-370zM445 790
c-17.333 0 -31.666 4.5 -42.999 13.5s-21.166 18.667 -29.499 29s-15.666 20 -21.999 29s-13.166 13.5 -20.499 13.5c-16.667 0 -25 -8.33301 -25 -25v-50c0 -6.66699 -3.33301 -10 -10 -10h-30c-6.66699 0 -10 3.33301 -10 10v60c0 20 5.83301 35.833 17.5 47.5
s27.5 17.5 47.5 17.5c17.333 0 31.666 -4.5 42.999 -13.5s21.166 -18.667 29.499 -29s15.666 -20 21.999 -29s13.166 -13.5 20.499 -13.5c16.667 0 25 8.33301 25 25v50c0 6.66699 3.33301 10 10 10h30c6.66699 0 10 -3.33301 10 -10v-60
c0 -20 -5.83301 -35.833 -17.5 -47.5s-27.5 -17.5 -47.5 -17.5z" />
    <glyph glyph-name="Odieresis" unicode="&#xd6;" horiz-adv-x="780" 
d="M620 535c0 35.333 -9.5 62.5 -28.5 81.5s-46.167 28.5 -81.5 28.5h-240c-35.333 0 -62.5 -9.5 -81.5 -28.5s-28.5 -46.167 -28.5 -81.5v-370c0 -35.333 9.5 -62.5 28.5 -81.5s46.167 -28.5 81.5 -28.5h240c35.333 0 62.5 9.5 81.5 28.5s28.5 46.167 28.5 81.5v370z
M685 165c0 -55.333 -15.333 -98.333 -46 -129s-73.667 -46 -129 -46h-240c-55.333 0 -98.333 15.333 -129 46s-46 73.667 -46 129v370c0 55.333 15.333 98.333 46 129s73.667 46 129 46h240c55.333 0 98.333 -15.333 129 -46s46 -73.667 46 -129v-370zM325 910
c10 0 15 -5 15 -15v-40c0 -10 -5 -15 -15 -15h-40c-10 0 -15 5 -15 15v40c0 10 5 15 15 15h40zM495 910c10 0 15 -5 15 -15v-40c0 -10 -5 -15 -15 -15h-40c-10 0 -15 5 -15 15v40c0 10 5 15 15 15h40z" />
    <glyph glyph-name="multiply" unicode="&#xd7;" horiz-adv-x="378" 
d="M344 195c4.66699 -5.33301 4.66699 -10.333 0 -15l-25 -25c-4.66699 -5.33301 -9.66699 -5.33301 -15 0l-115 120l-115 -120c-5.33301 -5.33301 -10.333 -5.33301 -15 0l-25 25c-5.33301 4.66699 -5.33301 9.66699 0 15l115 120l-115 120
c-5.33301 4.66699 -5.33301 9.66699 0 15l25 25c4.66699 5.33301 9.66699 5.33301 15 0l115 -120l115 120c5.33301 5.33301 10.333 5.33301 15 0l25 -25c4.66699 -5.33301 4.66699 -10.333 0 -15l-115 -120z" />
    <glyph glyph-name="Oslash" unicode="&#xd8;" horiz-adv-x="780" 
d="M685 165c0 -55.333 -15.333 -98.333 -46 -129s-73.667 -46 -129 -46h-240c-55.333 0 -98.333 15.333 -129 46s-46 73.667 -46 129v370c0 55.333 15.333 98.333 46 129s73.667 46 129 46h240c55.333 0 98.333 -15.333 129 -46s46 -73.667 46 -129v-370zM620 535
c0 8.66699 -0.833984 16.6689 -2.50098 24.002s-3.5 13.666 -5.5 18.999l-7 17l-395 -525c6 -2.66699 12.333 -5.33398 19 -8.00098c12.667 -4.66699 26.334 -7 41.001 -7h240c35.333 0 62.5 9.5 81.5 28.5s28.5 46.167 28.5 81.5v370zM159.999 165.002
c0 -9.33301 0.664062 -17.499 1.99707 -24.499s3 -13.167 5 -18.5c2.66699 -6.66699 5.33398 -12.334 8.00098 -17.001l395 525c-6 2 -12.333 4.33301 -19 7c-5.33301 2 -11.666 3.83301 -18.999 5.5s-14.666 2.5 -21.999 2.5h-240c-35.333 0 -62.5 -9.5 -81.5 -28.5
s-28.5 -46.167 -28.5 -81.5v-370z" />
    <glyph glyph-name="Ugrave" unicode="&#xd9;" horiz-adv-x="765" 
d="M105 685c0 10 5 15 15 15h35c10 0 15 -5 15 -15v-520c0 -35.333 9.5 -62.5 28.5 -81.5s46.167 -28.5 81.5 -28.5h205c35.333 0 62.5 9.5 81.5 28.5s28.5 46.167 28.5 81.5v520c0 10 5 15 15 15h35c10 0 15 -5 15 -15v-520c0 -55.333 -15.333 -98.333 -46 -129
s-73.667 -46 -129 -46h-205c-55.333 0 -98.333 15.333 -129 46s-46 73.667 -46 129v520zM265 935c-2.66699 5.33301 -3.00293 9.16602 -1.00293 11.499s5.66699 3.5 11 3.5h40c5.33301 0 9.33301 -1.16699 12 -3.5s5.33398 -6.16602 8.00098 -11.499l65 -130
c2.66699 -4.66699 3 -8.33398 1 -11.001s-5.66699 -4 -11 -4h-20c-5.33301 0 -9.16602 1.33301 -11.499 4s-5.16602 6.33398 -8.49902 11.001z" />
    <glyph glyph-name="Uacute" unicode="&#xda;" horiz-adv-x="765" 
d="M105 685c0 10 5 15 15 15h35c10 0 15 -5 15 -15v-520c0 -35.333 9.5 -62.5 28.5 -81.5s46.167 -28.5 81.5 -28.5h205c35.333 0 62.5 9.5 81.5 28.5s28.5 46.167 28.5 81.5v520c0 10 5 15 15 15h35c10 0 15 -5 15 -15v-520c0 -55.333 -15.333 -98.333 -46 -129
s-73.667 -46 -129 -46h-205c-55.333 0 -98.333 15.333 -129 46s-46 73.667 -46 129v520zM405 805c-3.33301 -4.66699 -6.16797 -8.33398 -8.50098 -11.001s-6.16602 -4 -11.499 -4h-20c-5.33301 0 -9 1.33301 -11 4s-1.66699 6.33398 1 11.001l65 130
c4.66699 10 11.334 15 20.001 15h40c11.333 0 14.666 -5 9.99902 -15z" />
    <glyph glyph-name="Ucircumflex" unicode="&#xdb;" horiz-adv-x="765" 
d="M105 685c0 10 5 15 15 15h35c10 0 15 -5 15 -15v-520c0 -35.333 9.5 -62.5 28.5 -81.5s46.167 -28.5 81.5 -28.5h205c35.333 0 62.5 9.5 81.5 28.5s28.5 46.167 28.5 81.5v520c0 10 5 15 15 15h35c10 0 15 -5 15 -15v-520c0 -55.333 -15.333 -98.333 -46 -129
s-73.667 -46 -129 -46h-205c-55.333 0 -98.333 15.333 -129 46s-46 73.667 -46 129v520zM395 970c7.33301 0 12.5 -1.33301 15.5 -4s6.16699 -6.33398 9.5 -11.001l105 -140c2 -2.66699 3 -5.83398 3 -9.50098s-2.66699 -5.5 -8 -5.5h-30c-7.33301 0 -12.5 1.33301 -15.5 4
s-6.16699 6.33398 -9.5 11.001l-80 105h-5l-80 -105c-3.33301 -4.66699 -6.5 -8.33398 -9.5 -11.001s-8.16699 -4 -15.5 -4h-30c-5.33301 0 -8 1.83301 -8 5.5s1 6.83398 3 9.50098l105 140c3.33301 4.66699 6.5 8.33398 9.5 11.001s8.16699 4 15.5 4h25z" />
    <glyph glyph-name="Udieresis" unicode="&#xdc;" horiz-adv-x="765" 
d="M105 685c0 10 5 15 15 15h35c10 0 15 -5 15 -15v-520c0 -35.333 9.5 -62.5 28.5 -81.5s46.167 -28.5 81.5 -28.5h205c35.333 0 62.5 9.5 81.5 28.5s28.5 46.167 28.5 81.5v520c0 10 5 15 15 15h35c10 0 15 -5 15 -15v-520c0 -55.333 -15.333 -98.333 -46 -129
s-73.667 -46 -129 -46h-205c-55.333 0 -98.333 15.333 -129 46s-46 73.667 -46 129v520zM310 910c10 0 15 -5 15 -15v-40c0 -10 -5 -15 -15 -15h-40c-10 0 -15 5 -15 15v40c0 10 5 15 15 15h40zM480 910c10 0 15 -5 15 -15v-40c0 -10 -5 -15 -15 -15h-40c-10 0 -15 5 -15 15
v40c0 10 5 15 15 15h40z" />
    <glyph glyph-name="Yacute" unicode="&#xdd;" horiz-adv-x="611" 
d="M338 250v-235c0 -10 -5 -15 -15 -15h-35c-10 0 -15 5 -15 15v235l-260 435c-3.33301 5.33301 -4 9.16602 -2 11.499s4.33301 3.5 7 3.5h45c7.33301 0 12.5 -1.16699 15.5 -3.5s6.16699 -6.16602 9.5 -11.499l215 -365h5l215 365c3.33301 5.33301 6.5 9.16602 9.5 11.499
s8.16699 3.5 15.5 3.5h45c2.66699 0 5 -1.16699 7 -3.5s1.33301 -6.16602 -2 -11.499zM338 805c-3.33301 -4.66699 -6.16797 -8.33398 -8.50098 -11.001s-6.16602 -4 -11.499 -4h-20c-5.33301 0 -9 1.33301 -11 4s-1.66699 6.33398 1 11.001l65 130
c4.66699 10 11.334 15 20.001 15h40c11.333 0 14.666 -5 9.99902 -15z" />
    <glyph glyph-name="Thorn" unicode="&#xde;" horiz-adv-x="755" 
d="M670 265c0 -55.333 -15.333 -98.333 -46 -129s-73.667 -46 -129 -46h-325v-75c0 -10 -5 -15 -15 -15h-35c-10 0 -15 5 -15 15v670c0 10 5 15 15 15h35c10 0 15 -5 15 -15v-75h325c55.333 0 98.333 -15.333 129 -46s46 -73.667 46 -129v-170zM605 435
c0 35.333 -9.5 62.5 -28.5 81.5s-46.167 28.5 -81.5 28.5h-325v-390h325c35.333 0 62.5 9.5 81.5 28.5s28.5 46.167 28.5 81.5v170z" />
    <glyph glyph-name="germandbls" unicode="&#xdf;" horiz-adv-x="590" 
d="M380 60c25.333 0 45.001 7 59.001 21s21 33.667 21 59v105c0 25.333 -7 45 -21 59s-33.667 21 -59 21h-70c-10 0 -15 5 -15 15v30c0 10 5 15 15 15h20c25.333 0 45 7 59 21s21 33.667 21 59v95c0 25.333 -7 45 -21 59s-33.667 21 -59 21h-90
c-30 0 -53.333 -8.33301 -70 -25s-25 -40 -25 -70v-530c0 -10 -5 -15 -15 -15h-30c-10 0 -15 5 -15 15v530c0 50 13.333 88.333 40 115s65 40 115 40h90c45.333 0 80 -12 104 -36s36 -58.667 36 -104v-95c0 -21.333 -2.83301 -38.333 -8.5 -51s-12.167 -22.667 -19.5 -30
c-8 -8 -17 -13.667 -27 -17v-4c19.333 -4 36.666 -10.667 51.999 -20c13.333 -8 25.5 -19.833 36.5 -35.5s16.5 -36.5 16.5 -62.5v-105c0 -45.333 -12 -80 -36 -104s-58.667 -36 -104 -36h-55c-10 0 -15 5 -15 15v30c0 10 5 15 15 15h55z" />
    <glyph glyph-name="agrave" unicode="&#xe0;" horiz-adv-x="550" 
d="M120 140c0 -28 8 -50 24 -66s38 -24 66 -24h80c35.333 0 63.333 10.333 84 31s31 48.667 31 84v70h-195c-28 0 -50 -8 -66 -24s-24 -38 -24 -66v-5zM60 145c0 48 13 85 39 111s63 39 111 39h195v70c0 30 -8.33301 53.333 -25 70s-40 25 -70 25h-65
c-30 0 -53.333 -8.33301 -70 -25s-25 -40 -25 -70c0 -10 -5 -15 -15 -15h-30c-10 0 -15 5 -15 15c0 50 13.333 88.333 40 115s65 40 115 40h65c50 0 88.333 -13.333 115 -40s40 -65 40 -115v-350c0 -10 -5 -15 -15 -15h-30c-10 0 -15 5 -15 15v40h-5
c-6.66699 -12.667 -15 -23.667 -25 -33c-9.33301 -8 -20.833 -15.333 -34.5 -22s-30.5 -10 -50.5 -10h-80c-48 0 -85 13 -111 39s-39 63 -39 111v5zM167 745c-2.66699 5.33301 -3.00293 9.16602 -1.00293 11.499s5.66699 3.5 11 3.5h40c5.33301 0 9.33301 -1.16699 12 -3.5
s5.33398 -6.16602 8.00098 -11.499l65 -130c2.66699 -4.66699 3 -8.33398 1 -11.001s-5.66699 -4 -11 -4h-20c-5.33301 0 -9.16602 1.33301 -11.499 4s-5.16602 6.33398 -8.49902 11.001z" />
    <glyph glyph-name="aacute" unicode="&#xe1;" horiz-adv-x="550" 
d="M120 140c0 -28 8 -50 24 -66s38 -24 66 -24h80c35.333 0 63.333 10.333 84 31s31 48.667 31 84v70h-195c-28 0 -50 -8 -66 -24s-24 -38 -24 -66v-5zM60 145c0 48 13 85 39 111s63 39 111 39h195v70c0 30 -8.33301 53.333 -25 70s-40 25 -70 25h-65
c-30 0 -53.333 -8.33301 -70 -25s-25 -40 -25 -70c0 -10 -5 -15 -15 -15h-30c-10 0 -15 5 -15 15c0 50 13.333 88.333 40 115s65 40 115 40h65c50 0 88.333 -13.333 115 -40s40 -65 40 -115v-350c0 -10 -5 -15 -15 -15h-30c-10 0 -15 5 -15 15v40h-5
c-6.66699 -12.667 -15 -23.667 -25 -33c-9.33301 -8 -20.833 -15.333 -34.5 -22s-30.5 -10 -50.5 -10h-80c-48 0 -85 13 -111 39s-39 63 -39 111v5zM312 615c-3.33301 -4.66699 -6.16797 -8.33398 -8.50098 -11.001s-6.16602 -4 -11.499 -4h-20c-5.33301 0 -9 1.33301 -11 4
s-1.66699 6.33398 1 11.001l65 130c4.66699 10 11.334 15 20.001 15h40c11.333 0 14.666 -5 9.99902 -15z" />
    <glyph glyph-name="acircumflex" unicode="&#xe2;" horiz-adv-x="550" 
d="M120 140c0 -28 8 -50 24 -66s38 -24 66 -24h80c35.333 0 63.333 10.333 84 31s31 48.667 31 84v70h-195c-28 0 -50 -8 -66 -24s-24 -38 -24 -66v-5zM60 145c0 48 13 85 39 111s63 39 111 39h195v70c0 30 -8.33301 53.333 -25 70s-40 25 -70 25h-65
c-30 0 -53.333 -8.33301 -70 -25s-25 -40 -25 -70c0 -10 -5 -15 -15 -15h-30c-10 0 -15 5 -15 15c0 50 13.333 88.333 40 115s65 40 115 40h65c50 0 88.333 -13.333 115 -40s40 -65 40 -115v-350c0 -10 -5 -15 -15 -15h-30c-10 0 -15 5 -15 15v40h-5
c-6.66699 -12.667 -15 -23.667 -25 -33c-9.33301 -8 -20.833 -15.333 -34.5 -22s-30.5 -10 -50.5 -10h-80c-48 0 -85 13 -111 39s-39 63 -39 111v5zM289 770c7.33301 0 12.5 -1.33301 15.5 -4s6.16699 -6.33398 9.5 -11.001l105 -140c2 -2.66699 3 -5.83398 3 -9.50098
s-2.66699 -5.5 -8 -5.5h-30c-7.33301 0 -12.5 1.33301 -15.5 4s-6.16699 6.33398 -9.5 11.001l-80 105h-5l-80 -105c-3.33301 -4.66699 -6.5 -8.33398 -9.5 -11.001s-8.16699 -4 -15.5 -4h-30c-5.33301 0 -8 1.83301 -8 5.5s1 6.83398 3 9.50098l105 140
c3.33301 4.66699 6.5 8.33398 9.5 11.001s8.16699 4 15.5 4h25z" />
    <glyph glyph-name="atilde" unicode="&#xe3;" horiz-adv-x="550" 
d="M120 140c0 -28 8 -50 24 -66s38 -24 66 -24h80c35.333 0 63.333 10.333 84 31s31 48.667 31 84v70h-195c-28 0 -50 -8 -66 -24s-24 -38 -24 -66v-5zM60 145c0 48 13 85 39 111s63 39 111 39h195v70c0 30 -8.33301 53.333 -25 70s-40 25 -70 25h-65
c-30 0 -53.333 -8.33301 -70 -25s-25 -40 -25 -70c0 -10 -5 -15 -15 -15h-30c-10 0 -15 5 -15 15c0 50 13.333 88.333 40 115s65 40 115 40h65c50 0 88.333 -13.333 115 -40s40 -65 40 -115v-350c0 -10 -5 -15 -15 -15h-30c-10 0 -15 5 -15 15v40h-5
c-6.66699 -12.667 -15 -23.667 -25 -33c-9.33301 -8 -20.833 -15.333 -34.5 -22s-30.5 -10 -50.5 -10h-80c-48 0 -85 13 -111 39s-39 63 -39 111v5zM335 590c-17.333 0 -31.666 4.5 -42.999 13.5s-21.166 18.667 -29.499 29s-15.666 20 -21.999 29
s-13.166 13.5 -20.499 13.5c-16.667 0 -25 -8.33301 -25 -25v-50c0 -6.66699 -3.33301 -10 -10 -10h-30c-6.66699 0 -10 3.33301 -10 10v60c0 20 5.83301 35.833 17.5 47.5s27.5 17.5 47.5 17.5c17.333 0 31.666 -4.5 42.999 -13.5s21.166 -18.667 29.499 -29
s15.666 -20 21.999 -29s13.166 -13.5 20.499 -13.5c16.667 0 25 8.33301 25 25v50c0 6.66699 3.33301 10 10 10h30c6.66699 0 10 -3.33301 10 -10v-60c0 -20 -5.83301 -35.833 -17.5 -47.5s-27.5 -17.5 -47.5 -17.5z" />
    <glyph glyph-name="adieresis" unicode="&#xe4;" horiz-adv-x="550" 
d="M120 140c0 -28 8 -50 24 -66s38 -24 66 -24h80c35.333 0 63.333 10.333 84 31s31 48.667 31 84v70h-195c-28 0 -50 -8 -66 -24s-24 -38 -24 -66v-5zM60 145c0 48 13 85 39 111s63 39 111 39h195v70c0 30 -8.33301 53.333 -25 70s-40 25 -70 25h-65
c-30 0 -53.333 -8.33301 -70 -25s-25 -40 -25 -70c0 -10 -5 -15 -15 -15h-30c-10 0 -15 5 -15 15c0 50 13.333 88.333 40 115s65 40 115 40h65c50 0 88.333 -13.333 115 -40s40 -65 40 -115v-350c0 -10 -5 -15 -15 -15h-30c-10 0 -15 5 -15 15v40h-5
c-6.66699 -12.667 -15 -23.667 -25 -33c-9.33301 -8 -20.833 -15.333 -34.5 -22s-30.5 -10 -50.5 -10h-80c-48 0 -85 13 -111 39s-39 63 -39 111v5zM210 700c10 0 15 -5 15 -15v-40c0 -10 -5 -15 -15 -15h-40c-10 0 -15 5 -15 15v40c0 10 5 15 15 15h40zM380 700
c10 0 15 -5 15 -15v-40c0 -10 -5 -15 -15 -15h-40c-10 0 -15 5 -15 15v40c0 10 5 15 15 15h40z" />
    <glyph glyph-name="aring" unicode="&#xe5;" horiz-adv-x="550" 
d="M120 140c0 -28 8 -50 24 -66s38 -24 66 -24h80c35.333 0 63.333 10.333 84 31s31 48.667 31 84v70h-195c-28 0 -50 -8 -66 -24s-24 -38 -24 -66v-5zM60 145c0 48 13 85 39 111s63 39 111 39h195v70c0 30 -8.33301 53.333 -25 70s-40 25 -70 25h-65
c-30 0 -53.333 -8.33301 -70 -25s-25 -40 -25 -70c0 -10 -5 -15 -15 -15h-30c-10 0 -15 5 -15 15c0 50 13.333 88.333 40 115s65 40 115 40h65c50 0 88.333 -13.333 115 -40s40 -65 40 -115v-350c0 -10 -5 -15 -15 -15h-30c-10 0 -15 5 -15 15v40h-5
c-6.66699 -12.667 -15 -23.667 -25 -33c-9.33301 -8 -20.833 -15.333 -34.5 -22s-30.5 -10 -50.5 -10h-80c-48 0 -85 13 -111 39s-39 63 -39 111v5zM285 795c30 0 54.167 -8.83301 72.5 -26.5s27.5 -40.5 27.5 -68.5v-20c0 -28 -9.16699 -50.833 -27.5 -68.5
s-42.5 -26.5 -72.5 -26.5h-10c-30 0 -54.167 8.83301 -72.5 26.5s-27.5 40.5 -27.5 68.5v20c0 28 9.16699 50.833 27.5 68.5s42.5 26.5 72.5 26.5h10zM275 750c-17.333 0 -30.833 -4.5 -40.5 -13.5s-14.5 -21.167 -14.5 -36.5v-20c0 -15.333 4.83301 -27.5 14.5 -36.5
s23.167 -13.5 40.5 -13.5h10c17.333 0 30.833 4.5 40.5 13.5s14.5 21.167 14.5 36.5v20c0 15.333 -4.83301 27.5 -14.5 36.5s-23.167 13.5 -40.5 13.5h-10z" />
    <glyph glyph-name="ae" unicode="&#xe6;" horiz-adv-x="865" 
d="M120 140c0 -28 8 -50 24 -66s38 -24 66 -24h90c30 0 53.333 8.33301 70 25s25 40 25 70v90h-185c-28 0 -50 -8 -66 -24s-24 -38 -24 -66v-5zM455 295h275v70c0 30 -8.33301 53.333 -25 70s-40 25 -70 25h-85c-30 0 -53.333 -8.33301 -70 -25s-25 -40 -25 -70v-70z
M210 -10c-48 0 -85 13 -111 39s-39 63 -39 111v5c0 48 13 85 39 111s63 39 111 39h185v70c0 30 -8.33301 53.333 -25 70s-40 25 -70 25h-55c-30 0 -53.333 -8.33301 -70 -25s-25 -40 -25 -70c0 -10 -5 -15 -15 -15h-30c-10 0 -15 5 -15 15c0 50 13.333 88.333 40 115
s65 40 115 40h55c23.333 0 43 -3.66699 59 -11s28.667 -15.333 38 -24c11.333 -10.667 20 -22.334 26 -35.001h4c6 12.667 14.667 24.334 26 35.001c9.33301 8.66699 21.833 16.667 37.5 24s35.5 11 59.5 11h85c50 0 88.333 -13.333 115 -40s40 -65 40 -115v-115
c0 -10 -5 -15 -15 -15h-320v-90c0 -30 8.33301 -53.333 25 -70s40 -25 70 -25h85c30 0 53.333 8.33301 70 25s25 40 25 70c0 10 5 15 15 15h30c10 0 15 -5 15 -15c0 -50 -13.333 -88.333 -40 -115s-65 -40 -115 -40h-85c-24 0 -43.833 3.5 -59.5 10.5
s-28.167 15.167 -37.5 24.5c-11.333 10 -20 21.667 -26 35h-4c-6 -13.333 -14.667 -25 -26 -35c-9.33301 -9.33301 -22 -17.5 -38 -24.5s-35.667 -10.5 -59 -10.5h-90z" />
    <glyph glyph-name="ccedilla" unicode="&#xe7;" horiz-adv-x="560" 
d="M400 -160c0 -28 -8.33301 -49.999 -25 -65.999s-40 -24 -70 -24h-70c-6.66699 0 -10 3.33301 -10 10v30c0 6.66699 3.33301 10 10 10h70c15.333 0 26.666 3.66699 33.999 11s11 17 11 29v5c0 12 -3.66699 21.667 -11 29s-18.666 11 -33.999 11h-55
c-6.66699 0 -10 3.33301 -10 10v30c0 7.33301 1 13.166 3 17.499s4.33301 8.5 7 12.5l20 35h-40c-50 0 -88.333 13.333 -115 40s-40 65 -40 115v220c0 50 13.333 88.333 40 115s65 40 115 40h110c50 0 88.333 -13.333 115 -40s40 -65 40 -115v-15c0 -10 -5 -15 -15 -15h-30
c-10 0 -15 5 -15 15v15c0 30 -8.33301 53.333 -25 70s-40 25 -70 25h-110c-30 0 -53.333 -8.33301 -70 -25s-25 -40 -25 -70v-220c0 -30 8.33301 -53.333 25 -70s40 -25 70 -25h110c30 0 53.333 8.33301 70 25s25 40 25 70v15c0 10 5 15 15 15h30c10 0 15 -5 15 -15v-15
c0 -50 -13.333 -88.333 -40 -115s-65 -40 -115 -40h-30l-30 -55h25c30 0 53.333 -8 70 -24s25 -38 25 -66v-5z" />
    <glyph glyph-name="egrave" unicode="&#xe8;" horiz-adv-x="570" 
d="M495 145c0 -50 -13.333 -88.333 -40 -115s-65 -40 -115 -40h-110c-50 0 -88.333 13.333 -115 40s-40 65 -40 115v220c0 50 13.333 88.333 40 115s65 40 115 40h110c50 0 88.333 -13.333 115 -40s40 -65 40 -115v-120c0 -10 -5 -15 -15 -15h-345v-85
c0 -30 8.33301 -53.333 25 -70s40 -25 70 -25h110c30 0 53.333 8.33301 70 25s25 40 25 70c0 10 5 15 15 15h30c10 0 15 -5 15 -15zM135 290h300v75c0 30 -8.33301 53.333 -25 70s-40 25 -70 25h-110c-30 0 -53.333 -8.33301 -70 -25s-25 -40 -25 -70v-75zM167 745
c-2.66699 5.33301 -3.00293 9.16602 -1.00293 11.499s5.66699 3.5 11 3.5h40c5.33301 0 9.33301 -1.16699 12 -3.5s5.33398 -6.16602 8.00098 -11.499l65 -130c2.66699 -4.66699 3 -8.33398 1 -11.001s-5.66699 -4 -11 -4h-20c-5.33301 0 -9.16602 1.33301 -11.499 4
s-5.16602 6.33398 -8.49902 11.001z" />
    <glyph glyph-name="eacute" unicode="&#xe9;" horiz-adv-x="570" 
d="M495 145c0 -50 -13.333 -88.333 -40 -115s-65 -40 -115 -40h-110c-50 0 -88.333 13.333 -115 40s-40 65 -40 115v220c0 50 13.333 88.333 40 115s65 40 115 40h110c50 0 88.333 -13.333 115 -40s40 -65 40 -115v-120c0 -10 -5 -15 -15 -15h-345v-85
c0 -30 8.33301 -53.333 25 -70s40 -25 70 -25h110c30 0 53.333 8.33301 70 25s25 40 25 70c0 10 5 15 15 15h30c10 0 15 -5 15 -15zM135 290h300v75c0 30 -8.33301 53.333 -25 70s-40 25 -70 25h-110c-30 0 -53.333 -8.33301 -70 -25s-25 -40 -25 -70v-75zM312 615
c-3.33301 -4.66699 -6.16797 -8.33398 -8.50098 -11.001s-6.16602 -4 -11.499 -4h-20c-5.33301 0 -9 1.33301 -11 4s-1.66699 6.33398 1 11.001l65 130c4.66699 10 11.334 15 20.001 15h40c11.333 0 14.666 -5 9.99902 -15z" />
    <glyph glyph-name="ecircumflex" unicode="&#xea;" horiz-adv-x="570" 
d="M495 145c0 -50 -13.333 -88.333 -40 -115s-65 -40 -115 -40h-110c-50 0 -88.333 13.333 -115 40s-40 65 -40 115v220c0 50 13.333 88.333 40 115s65 40 115 40h110c50 0 88.333 -13.333 115 -40s40 -65 40 -115v-120c0 -10 -5 -15 -15 -15h-345v-85
c0 -30 8.33301 -53.333 25 -70s40 -25 70 -25h110c30 0 53.333 8.33301 70 25s25 40 25 70c0 10 5 15 15 15h30c10 0 15 -5 15 -15zM135 290h300v75c0 30 -8.33301 53.333 -25 70s-40 25 -70 25h-110c-30 0 -53.333 -8.33301 -70 -25s-25 -40 -25 -70v-75zM295 770
c7.33301 0 12.5 -1.33301 15.5 -4s6.16699 -6.33398 9.5 -11.001l105 -140c2 -2.66699 3 -5.83398 3 -9.50098s-2.66699 -5.5 -8 -5.5h-30c-7.33301 0 -12.5 1.33301 -15.5 4s-6.16699 6.33398 -9.5 11.001l-80 105h-5l-80 -105
c-3.33301 -4.66699 -6.5 -8.33398 -9.5 -11.001s-8.16699 -4 -15.5 -4h-30c-5.33301 0 -8 1.83301 -8 5.5s1 6.83398 3 9.50098l105 140c3.33301 4.66699 6.5 8.33398 9.5 11.001s8.16699 4 15.5 4h25z" />
    <glyph glyph-name="edieresis" unicode="&#xeb;" horiz-adv-x="570" 
d="M495 145c0 -50 -13.333 -88.333 -40 -115s-65 -40 -115 -40h-110c-50 0 -88.333 13.333 -115 40s-40 65 -40 115v220c0 50 13.333 88.333 40 115s65 40 115 40h110c50 0 88.333 -13.333 115 -40s40 -65 40 -115v-120c0 -10 -5 -15 -15 -15h-345v-85
c0 -30 8.33301 -53.333 25 -70s40 -25 70 -25h110c30 0 53.333 8.33301 70 25s25 40 25 70c0 10 5 15 15 15h30c10 0 15 -5 15 -15zM135 290h300v75c0 30 -8.33301 53.333 -25 70s-40 25 -70 25h-110c-30 0 -53.333 -8.33301 -70 -25s-25 -40 -25 -70v-75zM220 700
c10 0 15 -5 15 -15v-40c0 -10 -5 -15 -15 -15h-40c-10 0 -15 5 -15 15v40c0 10 5 15 15 15h40zM390 700c10 0 15 -5 15 -15v-40c0 -10 -5 -15 -15 -15h-40c-10 0 -15 5 -15 15v40c0 10 5 15 15 15h40z" />
    <glyph glyph-name="igrave" unicode="&#xec;" horiz-adv-x="230" 
d="M100 0c-10 0 -15 5 -15 15v480c0 10 5 15 15 15h30c10 0 15 -5 15 -15v-480c0 -10 -5 -15 -15 -15h-30zM3 745c-2.66699 5.33301 -3.00293 9.16602 -1.00293 11.499s5.66699 3.5 11 3.5h40c5.33301 0 9.33301 -1.16699 12 -3.5s5.33398 -6.16602 8.00098 -11.499l65 -130
c2.66699 -4.66699 3 -8.33398 1 -11.001s-5.66699 -4 -11 -4h-20c-5.33301 0 -9.16602 1.33301 -11.499 4s-5.16602 6.33398 -8.49902 11.001z" />
    <glyph glyph-name="iacute" unicode="&#xed;" horiz-adv-x="229" 
d="M100 0c-10 0 -15 5 -15 15v480c0 10 5 15 15 15h30c10 0 15 -5 15 -15v-480c0 -10 -5 -15 -15 -15h-30zM147 615c-3.33301 -4.66699 -6.16797 -8.33398 -8.50098 -11.001s-6.16602 -4 -11.499 -4h-20c-5.33301 0 -9 1.33301 -11 4s-1.66699 6.33398 1 11.001l65 130
c4.66699 10 11.334 15 20.001 15h40c11.333 0 14.666 -5 9.99902 -15z" />
    <glyph glyph-name="icircumflex" unicode="&#xee;" horiz-adv-x="231" 
d="M100 0c-10 0 -15 5 -15 15v480c0 10 5 15 15 15h30c10 0 15 -5 15 -15v-480c0 -10 -5 -15 -15 -15h-30zM129 770c7.33301 0 12.5 -1.33301 15.5 -4s6.16699 -6.33398 9.5 -11.001l105 -140c2 -2.66699 3 -5.83398 3 -9.50098s-2.66699 -5.5 -8 -5.5h-30
c-7.33301 0 -12.5 1.33301 -15.5 4s-6.16699 6.33398 -9.5 11.001l-80 105h-5l-80 -105c-3.33301 -4.66699 -6.5 -8.33398 -9.5 -11.001s-8.16699 -4 -15.5 -4h-30c-5.33301 0 -8 1.83301 -8 5.5s1 6.83398 3 9.50098l105 140c3.33301 4.66699 6.5 8.33398 9.5 11.001
s8.16699 4 15.5 4h25z" />
    <glyph glyph-name="idieresis" unicode="&#xef;" horiz-adv-x="230" 
d="M100 0c-10 0 -15 5 -15 15v480c0 10 5 15 15 15h30c10 0 15 -5 15 -15v-480c0 -10 -5 -15 -15 -15h-30zM51 700c10 0 15 -5 15 -15v-40c0 -10 -5 -15 -15 -15h-40c-10 0 -15 5 -15 15v40c0 10 5 15 15 15h40zM221 700c10 0 15 -5 15 -15v-40c0 -10 -5 -15 -15 -15h-40
c-10 0 -15 5 -15 15v40c0 10 5 15 15 15h40z" />
    <glyph glyph-name="eth" unicode="&#xf0;" horiz-adv-x="560" 
d="M265 720c4 9.33301 10.666 12.6689 19.999 10.002l25 -10c10.667 -3.33301 14 -10 10 -20l-25 -65l70 -25c38 -14.667 66.667 -33.334 86 -56.001s29 -54 29 -94v-315c0 -50 -13.333 -88.333 -40 -115s-65 -40 -115 -40h-105c-50 0 -88.333 13.333 -115 40
s-40 65 -40 115v110c0 50 13.333 88.333 40 115s65 40 115 40h200v50c0 25.333 -6.16699 45.166 -18.5 59.499s-31.166 26.166 -56.499 35.499l-70 25l-25 -65c-4 -9.33301 -10.667 -12.666 -20 -9.99902l-25 10c-10.667 3.33301 -14 10 -10 20l25 65l-80 30
c-10.667 4 -14 10.667 -10 20l10 25c4 10.667 10.667 14 20 10l80 -30zM219.999 350.003c-30 0 -53.333 -8.33301 -70 -25s-25 -40 -25 -70v-110c0 -30 8.33301 -53.333 25 -70s40 -25 70 -25h105c30 0 53.333 8.33301 70 25s25 40 25 70v205h-200z" />
    <glyph glyph-name="ntilde" unicode="&#xf1;" 
d="M345 520c50 0 88.333 -13.333 115 -40s40 -65 40 -115v-350c0 -10 -5 -15 -15 -15h-30c-10 0 -15 5 -15 15v350c0 30 -8.33301 53.333 -25 70s-40 25 -70 25h-85c-35.333 0 -63.333 -10.333 -84 -31s-31 -48.667 -31 -84v-330c0 -10 -5 -15 -15 -15h-30
c-10 0 -15 5 -15 15v480c0 10 5 15 15 15h30c10 0 15 -5 15 -15v-40h5c6 12 14.333 22.667 25 32c8.66699 8 20 15.5 34 22.5s31 10.5 51 10.5h85zM350 600c-17.333 0 -31.666 4.5 -42.999 13.5s-21.166 18.667 -29.499 29s-15.666 20 -21.999 29s-13.166 13.5 -20.499 13.5
c-16.667 0 -25 -8.33301 -25 -25v-50c0 -6.66699 -3.33301 -10 -10 -10h-30c-6.66699 0 -10 3.33301 -10 10v60c0 20 5.83301 35.833 17.5 47.5s27.5 17.5 47.5 17.5c17.333 0 31.666 -4.5 42.999 -13.5s21.166 -18.667 29.499 -29s15.666 -20 21.999 -29
s13.166 -13.5 20.499 -13.5c16.667 0 25 8.33301 25 25v50c0 6.66699 3.33301 10 10 10h30c6.66699 0 10 -3.33301 10 -10v-60c0 -20 -5.83301 -35.833 -17.5 -47.5s-27.5 -17.5 -47.5 -17.5z" />
    <glyph glyph-name="ograve" unicode="&#xf2;" horiz-adv-x="580" 
d="M445 365c0 30 -8.33301 53.333 -25 70s-40 25 -70 25h-120c-30 0 -53.333 -8.33301 -70 -25s-25 -40 -25 -70v-220c0 -30 8.33301 -53.333 25 -70s40 -25 70 -25h120c30 0 53.333 8.33301 70 25s25 40 25 70v220zM505 145c0 -50 -13.333 -88.333 -40 -115
s-65 -40 -115 -40h-120c-50 0 -88.333 13.333 -115 40s-40 65 -40 115v220c0 50 13.333 88.333 40 115s65 40 115 40h120c50 0 88.333 -13.333 115 -40s40 -65 40 -115v-220zM172 745c-2.66699 5.33301 -3.00293 9.16602 -1.00293 11.499s5.66699 3.5 11 3.5h40
c5.33301 0 9.33301 -1.16699 12 -3.5s5.33398 -6.16602 8.00098 -11.499l65 -130c2.66699 -4.66699 3 -8.33398 1 -11.001s-5.66699 -4 -11 -4h-20c-5.33301 0 -9.16602 1.33301 -11.499 4s-5.16602 6.33398 -8.49902 11.001z" />
    <glyph glyph-name="oacute" unicode="&#xf3;" horiz-adv-x="580" 
d="M445 365c0 30 -8.33301 53.333 -25 70s-40 25 -70 25h-120c-30 0 -53.333 -8.33301 -70 -25s-25 -40 -25 -70v-220c0 -30 8.33301 -53.333 25 -70s40 -25 70 -25h120c30 0 53.333 8.33301 70 25s25 40 25 70v220zM505 145c0 -50 -13.333 -88.333 -40 -115
s-65 -40 -115 -40h-120c-50 0 -88.333 13.333 -115 40s-40 65 -40 115v220c0 50 13.333 88.333 40 115s65 40 115 40h120c50 0 88.333 -13.333 115 -40s40 -65 40 -115v-220zM317 615c-3.33301 -4.66699 -6.16797 -8.33398 -8.50098 -11.001s-6.16602 -4 -11.499 -4h-20
c-5.33301 0 -9 1.33301 -11 4s-1.66699 6.33398 1 11.001l65 130c4.66699 10 11.334 15 20.001 15h40c11.333 0 14.666 -5 9.99902 -15z" />
    <glyph glyph-name="ocircumflex" unicode="&#xf4;" horiz-adv-x="580" 
d="M445 365c0 30 -8.33301 53.333 -25 70s-40 25 -70 25h-120c-30 0 -53.333 -8.33301 -70 -25s-25 -40 -25 -70v-220c0 -30 8.33301 -53.333 25 -70s40 -25 70 -25h120c30 0 53.333 8.33301 70 25s25 40 25 70v220zM505 145c0 -50 -13.333 -88.333 -40 -115
s-65 -40 -115 -40h-120c-50 0 -88.333 13.333 -115 40s-40 65 -40 115v220c0 50 13.333 88.333 40 115s65 40 115 40h120c50 0 88.333 -13.333 115 -40s40 -65 40 -115v-220zM300 770c7.33301 0 12.5 -1.33301 15.5 -4s6.16699 -6.33398 9.5 -11.001l105 -140
c2 -2.66699 3 -5.83398 3 -9.50098s-2.66699 -5.5 -8 -5.5h-30c-7.33301 0 -12.5 1.33301 -15.5 4s-6.16699 6.33398 -9.5 11.001l-80 105h-5l-80 -105c-3.33301 -4.66699 -6.5 -8.33398 -9.5 -11.001s-8.16699 -4 -15.5 -4h-30c-5.33301 0 -8 1.83301 -8 5.5
s1 6.83398 3 9.50098l105 140c3.33301 4.66699 6.5 8.33398 9.5 11.001s8.16699 4 15.5 4h25z" />
    <glyph glyph-name="otilde" unicode="&#xf5;" horiz-adv-x="580" 
d="M445 365c0 30 -8.33301 53.333 -25 70s-40 25 -70 25h-120c-30 0 -53.333 -8.33301 -70 -25s-25 -40 -25 -70v-220c0 -30 8.33301 -53.333 25 -70s40 -25 70 -25h120c30 0 53.333 8.33301 70 25s25 40 25 70v220zM505 145c0 -50 -13.333 -88.333 -40 -115
s-65 -40 -115 -40h-120c-50 0 -88.333 13.333 -115 40s-40 65 -40 115v220c0 50 13.333 88.333 40 115s65 40 115 40h120c50 0 88.333 -13.333 115 -40s40 -65 40 -115v-220zM350 600c-17.333 0 -31.666 4.5 -42.999 13.5s-21.166 18.667 -29.499 29s-15.666 20 -21.999 29
s-13.166 13.5 -20.499 13.5c-16.667 0 -25 -8.33301 -25 -25v-50c0 -6.66699 -3.33301 -10 -10 -10h-30c-6.66699 0 -10 3.33301 -10 10v60c0 20 5.83301 35.833 17.5 47.5s27.5 17.5 47.5 17.5c17.333 0 31.666 -4.5 42.999 -13.5s21.166 -18.667 29.499 -29
s15.666 -20 21.999 -29s13.166 -13.5 20.499 -13.5c16.667 0 25 8.33301 25 25v50c0 6.66699 3.33301 10 10 10h30c6.66699 0 10 -3.33301 10 -10v-60c0 -20 -5.83301 -35.833 -17.5 -47.5s-27.5 -17.5 -47.5 -17.5z" />
    <glyph glyph-name="odieresis" unicode="&#xf6;" horiz-adv-x="580" 
d="M445 365c0 30 -8.33301 53.333 -25 70s-40 25 -70 25h-120c-30 0 -53.333 -8.33301 -70 -25s-25 -40 -25 -70v-220c0 -30 8.33301 -53.333 25 -70s40 -25 70 -25h120c30 0 53.333 8.33301 70 25s25 40 25 70v220zM505 145c0 -50 -13.333 -88.333 -40 -115
s-65 -40 -115 -40h-120c-50 0 -88.333 13.333 -115 40s-40 65 -40 115v220c0 50 13.333 88.333 40 115s65 40 115 40h120c50 0 88.333 -13.333 115 -40s40 -65 40 -115v-220zM225 700c10 0 15 -5 15 -15v-40c0 -10 -5 -15 -15 -15h-40c-10 0 -15 5 -15 15v40
c0 10 5 15 15 15h40zM395 700c10 0 15 -5 15 -15v-40c0 -10 -5 -15 -15 -15h-40c-10 0 -15 5 -15 15v40c0 10 5 15 15 15h40z" />
    <glyph glyph-name="divide" unicode="&#xf7;" horiz-adv-x="430" 
d="M385 340c10 0 15 -5 15 -15v-35c0 -10 -5 -15 -15 -15h-340c-10 0 -15 5 -15 15v35c0 10 5 15 15 15h340zM195 460c-10 0 -15 5 -15 15v40c0 10 5 15 15 15h40c10 0 15 -5 15 -15v-40c0 -10 -5 -15 -15 -15h-40zM195 85c-10 0 -15 5 -15 15v40c0 10 5 15 15 15h40
c10 0 15 -5 15 -15v-40c0 -10 -5 -15 -15 -15h-40z" />
    <glyph glyph-name="oslash" unicode="&#xf8;" horiz-adv-x="580" 
d="M505 145c0 -50 -13.333 -88.333 -40 -115s-65 -40 -115 -40h-120c-50 0 -88.333 13.333 -115 40s-40 65 -40 115v220c0 50 13.333 88.333 40 115s65 40 115 40h120c50 0 88.333 -13.333 115 -40s40 -65 40 -115v-220zM445 365c0 8.66699 -0.833008 16.5 -2.5 23.5
s-3.5 12.833 -5.5 17.5l-7 14l-250 -360c4 -2 8.66699 -3.66699 14 -5c10 -3.33301 22 -5 36 -5h120c30 0 53.333 8.33301 70 25s25 40 25 70v220zM135 145c0 -16.667 2.33203 -30.333 6.99902 -41c2.66699 -5.33301 5.33398 -10 8.00098 -14l250 360
c-4 1.33301 -8.66699 3 -14 5c-4.66699 1.33301 -10 2.5 -16 3.5s-12.667 1.5 -20 1.5h-120c-30 0 -53.333 -8.33301 -70 -25s-25 -40 -25 -70v-220z" />
    <glyph glyph-name="ugrave" unicode="&#xf9;" 
d="M240 -10c-50 0 -88.333 13.333 -115 40s-40 65 -40 115v350c0 10 5 15 15 15h30c10 0 15 -5 15 -15v-350c0 -30 8.33301 -53.333 25 -70s40 -25 70 -25h85c35.333 0 63.333 10.333 84 31s31 48.667 31 84v330c0 10 5 15 15 15h30c10 0 15 -5 15 -15v-480
c0 -10 -5 -15 -15 -15h-30c-10 0 -15 5 -15 15v40h-5c-6.66699 -12.667 -15 -23.667 -25 -33c-9.33301 -8 -20.833 -15.333 -34.5 -22s-30.5 -10 -50.5 -10h-85zM185 735c-2.66699 5.33301 -3.00293 9.16602 -1.00293 11.499s5.66699 3.5 11 3.5h40
c5.33301 0 9.33301 -1.16699 12 -3.5s5.33398 -6.16602 8.00098 -11.499l65 -130c2.66699 -4.66699 3 -8.33398 1 -11.001s-5.66699 -4 -11 -4h-20c-5.33301 0 -9.16602 1.33301 -11.499 4s-5.16602 6.33398 -8.49902 11.001z" />
    <glyph glyph-name="uacute" unicode="&#xfa;" 
d="M240 -10c-50 0 -88.333 13.333 -115 40s-40 65 -40 115v350c0 10 5 15 15 15h30c10 0 15 -5 15 -15v-350c0 -30 8.33301 -53.333 25 -70s40 -25 70 -25h85c35.333 0 63.333 10.333 84 31s31 48.667 31 84v330c0 10 5 15 15 15h30c10 0 15 -5 15 -15v-480
c0 -10 -5 -15 -15 -15h-30c-10 0 -15 5 -15 15v40h-5c-6.66699 -12.667 -15 -23.667 -25 -33c-9.33301 -8 -20.833 -15.333 -34.5 -22s-30.5 -10 -50.5 -10h-85zM315 605c-3.33301 -4.66699 -6.16797 -8.33398 -8.50098 -11.001s-6.16602 -4 -11.499 -4h-20
c-5.33301 0 -9 1.33301 -11 4s-1.66699 6.33398 1 11.001l65 130c4.66699 10 11.334 15 20.001 15h40c11.333 0 14.666 -5 9.99902 -15z" />
    <glyph glyph-name="ucircumflex" unicode="&#xfb;" 
d="M240 -10c-50 0 -88.333 13.333 -115 40s-40 65 -40 115v350c0 10 5 15 15 15h30c10 0 15 -5 15 -15v-350c0 -30 8.33301 -53.333 25 -70s40 -25 70 -25h85c35.333 0 63.333 10.333 84 31s31 48.667 31 84v330c0 10 5 15 15 15h30c10 0 15 -5 15 -15v-480
c0 -10 -5 -15 -15 -15h-30c-10 0 -15 5 -15 15v40h-5c-6.66699 -12.667 -15 -23.667 -25 -33c-9.33301 -8 -20.833 -15.333 -34.5 -22s-30.5 -10 -50.5 -10h-85zM305 760c7.33301 0 12.5 -1.33301 15.5 -4s6.16699 -6.33398 9.5 -11.001l105 -140
c2 -2.66699 3 -5.83398 3 -9.50098s-2.66699 -5.5 -8 -5.5h-30c-7.33301 0 -12.5 1.33301 -15.5 4s-6.16699 6.33398 -9.5 11.001l-80 105h-5l-80 -105c-3.33301 -4.66699 -6.5 -8.33398 -9.5 -11.001s-8.16699 -4 -15.5 -4h-30c-5.33301 0 -8 1.83301 -8 5.5
s1 6.83398 3 9.50098l105 140c3.33301 4.66699 6.5 8.33398 9.5 11.001s8.16699 4 15.5 4h25z" />
    <glyph glyph-name="udieresis" unicode="&#xfc;" 
d="M240 -10c-50 0 -88.333 13.333 -115 40s-40 65 -40 115v350c0 10 5 15 15 15h30c10 0 15 -5 15 -15v-350c0 -30 8.33301 -53.333 25 -70s40 -25 70 -25h85c35.333 0 63.333 10.333 84 31s31 48.667 31 84v330c0 10 5 15 15 15h30c10 0 15 -5 15 -15v-480
c0 -10 -5 -15 -15 -15h-30c-10 0 -15 5 -15 15v40h-5c-6.66699 -12.667 -15 -23.667 -25 -33c-9.33301 -8 -20.833 -15.333 -34.5 -22s-30.5 -10 -50.5 -10h-85zM225 700c10 0 15 -5 15 -15v-40c0 -10 -5 -15 -15 -15h-40c-10 0 -15 5 -15 15v40c0 10 5 15 15 15h40z
M395 700c10 0 15 -5 15 -15v-40c0 -10 -5 -15 -15 -15h-40c-10 0 -15 5 -15 15v40c0 10 5 15 15 15h40z" />
    <glyph glyph-name="yacute" unicode="&#xfd;" horiz-adv-x="494" 
d="M22 495c-4 10 -0.665039 15 10.002 15h35c9.33301 0 16 -5 20 -15l160 -410h5l155 410c4 10 10.667 15 20 15h35c10.667 0 14 -5 10 -15l-190 -495c-13.333 -35.333 -26.833 -65 -40.5 -89s-27.834 -43.5 -42.501 -58.5s-30.334 -25.833 -47.001 -32.5s-35 -10 -55 -10
h-15c-10 0 -15 5 -15 15v30c0 10 5 15 15 15h15c25.333 0 47.333 9.66699 66 29s36.667 53 54 101zM269.002 615c-3.33301 -4.66699 -6.16797 -8.33398 -8.50098 -11.001s-6.16602 -4 -11.499 -4h-20c-5.33301 0 -9 1.33301 -11 4s-1.66699 6.33398 1 11.001l65 130
c4.66699 10 11.334 15 20.001 15h40c11.333 0 14.666 -5 9.99902 -15z" />
    <glyph glyph-name="thorn" unicode="&#xfe;" horiz-adv-x="575" 
d="M500 155c0 -50 -13.333 -88.333 -40 -115s-65 -40 -115 -40h-200v-175c0 -10 -5 -15 -15 -15h-30c-10 0 -15 5 -15 15v860c0 10 5 15 15 15h30c10 0 15 -5 15 -15v-175h200c50 0 88.333 -13.333 115 -40s40 -65 40 -115v-200zM440 355c0 30 -8.33301 53.333 -25 70
s-40 25 -70 25h-200v-390h200c30 0 53.333 8.33301 70 25s25 40 25 70v200z" />
    <glyph glyph-name="ydieresis" unicode="&#xff;" horiz-adv-x="494" 
d="M22 495c-4 10 -0.665039 15 10.002 15h35c9.33301 0 16 -5 20 -15l160 -410h5l155 410c4 10 10.667 15 20 15h35c10.667 0 14 -5 10 -15l-190 -495c-13.333 -35.333 -26.833 -65 -40.5 -89s-27.834 -43.5 -42.501 -58.5s-30.334 -25.833 -47.001 -32.5s-35 -10 -55 -10
h-15c-10 0 -15 5 -15 15v30c0 10 5 15 15 15h15c25.333 0 47.333 9.66699 66 29s36.667 53 54 101zM185.002 710c10 0 15 -5 15 -15v-40c0 -10 -5 -15 -15 -15h-40c-10 0 -15 5 -15 15v40c0 10 5 15 15 15h40zM355.002 710c10 0 15 -5 15 -15v-40c0 -10 -5 -15 -15 -15h-40
c-10 0 -15 5 -15 15v40c0 10 5 15 15 15h40z" />
    <glyph glyph-name="Amacron" unicode="&#x100;" horiz-adv-x="649" 
d="M487 195h-325l-70 -180c-4 -10 -10.667 -15 -20 -15h-45c-10.667 0 -14 5 -10 15l265 670c4 10 10.667 15 20 15h45c9.33301 0 16 -5 20 -15l265 -670c4 -10 0.666992 -15 -10 -15h-45c-9.33301 0 -16 5 -20 15zM462 260l-135 360h-5l-135 -360h275zM205 825
c-10 0 -15 5 -15 15v25c0 10 5 15 15 15h240c10 0 15 -5 15 -15v-25c0 -10 -5 -15 -15 -15h-240z" />
    <glyph glyph-name="amacron" unicode="&#x101;" horiz-adv-x="550" 
d="M120 140c0 -28 8 -50 24 -66s38 -24 66 -24h80c35.333 0 63.333 10.333 84 31s31 48.667 31 84v70h-195c-28 0 -50 -8 -66 -24s-24 -38 -24 -66v-5zM60 145c0 48 13 85 39 111s63 39 111 39h195v70c0 30 -8.33301 53.333 -25 70s-40 25 -70 25h-65
c-30 0 -53.333 -8.33301 -70 -25s-25 -40 -25 -70c0 -10 -5 -15 -15 -15h-30c-10 0 -15 5 -15 15c0 50 13.333 88.333 40 115s65 40 115 40h65c50 0 88.333 -13.333 115 -40s40 -65 40 -115v-350c0 -10 -5 -15 -15 -15h-30c-10 0 -15 5 -15 15v40h-5
c-6.66699 -12.667 -15 -23.667 -25 -33c-9.33301 -8 -20.833 -15.333 -34.5 -22s-30.5 -10 -50.5 -10h-80c-48 0 -85 13 -111 39s-39 63 -39 111v5zM160 636c-10 0 -15 5 -15 15v25c0 10 5 15 15 15h240c10 0 15 -5 15 -15v-25c0 -10 -5 -15 -15 -15h-240z" />
    <glyph glyph-name="Abreve" unicode="&#x102;" horiz-adv-x="649" 
d="M487 195h-325l-70 -180c-4 -10 -10.667 -15 -20 -15h-45c-10.667 0 -14 5 -10 15l265 670c4 10 10.667 15 20 15h45c9.33301 0 16 -5 20 -15l265 -670c4 -10 0.666992 -15 -10 -15h-45c-9.33301 0 -16 5 -20 15zM462 260l-135 360h-5l-135 -360h275zM300 785
c-35.333 0 -62.5 9.5 -81.5 28.5s-28.5 46.167 -28.5 81.5v15c0 10 5 15 15 15h25c10 0 15 -5 15 -15v-15c0 -36.667 18.333 -55 55 -55h55c36.667 0 55 18.333 55 55v15c0 10 5 15 15 15h25c10 0 15 -5 15 -15v-15c0 -35.333 -9.5 -62.5 -28.5 -81.5
s-46.167 -28.5 -81.5 -28.5h-55z" />
    <glyph glyph-name="abreve" unicode="&#x103;" horiz-adv-x="550" 
d="M120 140c0 -28 8 -50 24 -66s38 -24 66 -24h80c35.333 0 63.333 10.333 84 31s31 48.667 31 84v70h-195c-28 0 -50 -8 -66 -24s-24 -38 -24 -66v-5zM60 145c0 48 13 85 39 111s63 39 111 39h195v70c0 30 -8.33301 53.333 -25 70s-40 25 -70 25h-65
c-30 0 -53.333 -8.33301 -70 -25s-25 -40 -25 -70c0 -10 -5 -15 -15 -15h-30c-10 0 -15 5 -15 15c0 50 13.333 88.333 40 115s65 40 115 40h65c50 0 88.333 -13.333 115 -40s40 -65 40 -115v-350c0 -10 -5 -15 -15 -15h-30c-10 0 -15 5 -15 15v40h-5
c-6.66699 -12.667 -15 -23.667 -25 -33c-9.33301 -8 -20.833 -15.333 -34.5 -22s-30.5 -10 -50.5 -10h-80c-48 0 -85 13 -111 39s-39 63 -39 111v5zM250 600c-35.333 0 -62.5 9.5 -81.5 28.5s-28.5 46.167 -28.5 81.5v15c0 10 5 15 15 15h25c10 0 15 -5 15 -15v-15
c0 -36.667 18.333 -55 55 -55h55c36.667 0 55 18.333 55 55v15c0 10 5 15 15 15h25c10 0 15 -5 15 -15v-15c0 -35.333 -9.5 -62.5 -28.5 -81.5s-46.167 -28.5 -81.5 -28.5h-55z" />
    <glyph glyph-name="Aogonek" unicode="&#x104;" horiz-adv-x="649" 
d="M577 0c-9.33301 0 -16 5.00098 -20 15.001l-70 180h-325l-70 -180c-4 -10 -10.667 -15 -20 -15h-45c-10.667 0 -14 5 -10 15l265 670c4 10 10.667 15 20 15h45c9.33301 0 16 -5 20 -15l265 -670c4 -10 0.666992 -15 -10 -15c-20.667 -10 -39 -21.333 -55 -34
c-14 -11.333 -26.667 -24.666 -38 -39.999s-17 -32.333 -17 -51c0 -12.667 4.5 -23.334 13.5 -32.001s21.167 -13 36.5 -13h55c6.66699 0 10 -3.33301 10 -10v-30c0 -6.66699 -3.33301 -10 -10 -10h-55c-30 0 -54.167 8.83301 -72.5 26.5s-27.5 40.5 -27.5 68.5
c0 21.333 5.83301 39.666 17.5 54.999s24.834 28.333 39.501 39c17.333 12 36.666 22.333 57.999 31zM462 260.001l-135 360h-5l-135 -360h275z" />
    <glyph glyph-name="aogonek" unicode="&#x105;" horiz-adv-x="550" 
d="M410 5c-1.33301 0.666992 -2.33301 1.66699 -3 3c-1.33301 2.66699 -2 5 -2 7v40h-5c-6.66699 -12.667 -15 -23.667 -25 -33c-9.33301 -8 -20.833 -15.333 -34.5 -22s-30.5 -10 -50.5 -10h-80c-48 0 -85 13 -111 39s-39 63 -39 111v5c0 48 13 85 39 111s63 39 111 39h195
v70c0 30 -8.33301 53.333 -25 70s-40 25 -70 25h-65c-30 0 -53.333 -8.33301 -70 -25s-25 -40 -25 -70c0 -10 -5 -15 -15 -15h-30c-10 0 -15 5 -15 15c0 50 13.333 88.333 40 115s65 40 115 40h65c50 0 88.333 -13.333 115 -40s40 -65 40 -115v-350c0 -10 -5 -15 -15 -15
c-20 -10 -37.667 -21.333 -53 -34c-13.333 -11.333 -25.333 -24.666 -36 -39.999s-16 -32.333 -16 -51c0 -12.667 4.5 -23.334 13.5 -32.001s21.167 -13 36.5 -13h50c6.66699 0 10 -3.33301 10 -10v-30c0 -6.66699 -3.33301 -10 -10 -10h-50
c-30 0 -54.167 8.83301 -72.5 26.5s-27.5 40.5 -27.5 68.5c0 21.333 5.83301 40 17.5 56s24.834 29.667 39.501 41c17.333 12.667 36.666 23.667 57.999 33zM120 140c0 -28 8 -50 24 -66s38 -24 66 -24h80c35.333 0 63.333 10.333 84 31s31 48.667 31 84v70h-195
c-28 0 -50 -8 -66 -24s-24 -38 -24 -66v-5z" />
    <glyph glyph-name="Cacute" unicode="&#x106;" horiz-adv-x="755" 
d="M670 165c0 -55.333 -15.333 -98.333 -46 -129s-73.667 -46 -129 -46h-225c-55.333 0 -98.333 15.333 -129 46s-46 73.667 -46 129v370c0 55.333 15.333 98.333 46 129s73.667 46 129 46h225c55.333 0 98.333 -15.333 129 -46s46 -73.667 46 -129v-30
c0 -10 -5 -15 -15 -15h-35c-10 0 -15 5 -15 15v30c0 35.333 -9.5 62.5 -28.5 81.5s-46.167 28.5 -81.5 28.5h-225c-35.333 0 -62.5 -9.5 -81.5 -28.5s-28.5 -46.167 -28.5 -81.5v-370c0 -35.333 9.5 -62.5 28.5 -81.5s46.167 -28.5 81.5 -28.5h225
c35.333 0 62.5 9.5 81.5 28.5s28.5 46.167 28.5 81.5v30c0 10 5 15 15 15h35c10 0 15 -5 15 -15v-30zM400 805c-3.33301 -4.66699 -6.16797 -8.33398 -8.50098 -11.001s-6.16602 -4 -11.499 -4h-20c-5.33301 0 -9 1.33301 -11 4s-1.66699 6.33398 1 11.001l65 130
c4.66699 10 11.334 15 20.001 15h40c11.333 0 14.666 -5 9.99902 -15z" />
    <glyph glyph-name="cacute" unicode="&#x107;" horiz-adv-x="560" 
d="M495 145c0 -50 -13.333 -88.333 -40 -115s-65 -40 -115 -40h-110c-50 0 -88.333 13.333 -115 40s-40 65 -40 115v220c0 50 13.333 88.333 40 115s65 40 115 40h110c50 0 88.333 -13.333 115 -40s40 -65 40 -115v-15c0 -10 -5 -15 -15 -15h-30c-10 0 -15 5 -15 15v15
c0 30 -8.33301 53.333 -25 70s-40 25 -70 25h-110c-30 0 -53.333 -8.33301 -70 -25s-25 -40 -25 -70v-220c0 -30 8.33301 -53.333 25 -70s40 -25 70 -25h110c30 0 53.333 8.33301 70 25s25 40 25 70v15c0 10 5 15 15 15h30c10 0 15 -5 15 -15v-15zM307 615
c-3.33301 -4.66699 -6.16797 -8.33398 -8.50098 -11.001s-6.16602 -4 -11.499 -4h-20c-5.33301 0 -9 1.33301 -11 4s-1.66699 6.33398 1 11.001l65 130c4.66699 10 11.334 15 20.001 15h40c11.333 0 14.666 -5 9.99902 -15z" />
    <glyph glyph-name="Ccircumflex" unicode="&#x108;" horiz-adv-x="755" 
d="M670 165c0 -55.333 -15.333 -98.333 -46 -129s-73.667 -46 -129 -46h-225c-55.333 0 -98.333 15.333 -129 46s-46 73.667 -46 129v370c0 55.333 15.333 98.333 46 129s73.667 46 129 46h225c55.333 0 98.333 -15.333 129 -46s46 -73.667 46 -129v-30
c0 -10 -5 -15 -15 -15h-35c-10 0 -15 5 -15 15v30c0 35.333 -9.5 62.5 -28.5 81.5s-46.167 28.5 -81.5 28.5h-225c-35.333 0 -62.5 -9.5 -81.5 -28.5s-28.5 -46.167 -28.5 -81.5v-370c0 -35.333 9.5 -62.5 28.5 -81.5s46.167 -28.5 81.5 -28.5h225
c35.333 0 62.5 9.5 81.5 28.5s28.5 46.167 28.5 81.5v30c0 10 5 15 15 15h35c10 0 15 -5 15 -15v-30zM390 960c7.33301 0 12.5 -1.33301 15.5 -4s6.16699 -6.33398 9.5 -11.001l105 -140c2 -2.66699 3 -5.83398 3 -9.50098s-2.66699 -5.5 -8 -5.5h-30
c-7.33301 0 -12.5 1.33301 -15.5 4s-6.16699 6.33398 -9.5 11.001l-80 105h-5l-80 -105c-3.33301 -4.66699 -6.5 -8.33398 -9.5 -11.001s-8.16699 -4 -15.5 -4h-30c-5.33301 0 -8 1.83301 -8 5.5s1 6.83398 3 9.50098l105 140c3.33301 4.66699 6.5 8.33398 9.5 11.001
s8.16699 4 15.5 4h25z" />
    <glyph glyph-name="ccircumflex" unicode="&#x109;" horiz-adv-x="560" 
d="M495 145c0 -50 -13.333 -88.333 -40 -115s-65 -40 -115 -40h-110c-50 0 -88.333 13.333 -115 40s-40 65 -40 115v220c0 50 13.333 88.333 40 115s65 40 115 40h110c50 0 88.333 -13.333 115 -40s40 -65 40 -115v-15c0 -10 -5 -15 -15 -15h-30c-10 0 -15 5 -15 15v15
c0 30 -8.33301 53.333 -25 70s-40 25 -70 25h-110c-30 0 -53.333 -8.33301 -70 -25s-25 -40 -25 -70v-220c0 -30 8.33301 -53.333 25 -70s40 -25 70 -25h110c30 0 53.333 8.33301 70 25s25 40 25 70v15c0 10 5 15 15 15h30c10 0 15 -5 15 -15v-15zM292 770
c7.33301 0 12.5 -1.33301 15.5 -4s6.16699 -6.33398 9.5 -11.001l105 -140c2 -2.66699 3 -5.83398 3 -9.50098s-2.66699 -5.5 -8 -5.5h-30c-7.33301 0 -12.5 1.33301 -15.5 4s-6.16699 6.33398 -9.5 11.001l-80 105h-5l-80 -105
c-3.33301 -4.66699 -6.5 -8.33398 -9.5 -11.001s-8.16699 -4 -15.5 -4h-30c-5.33301 0 -8 1.83301 -8 5.5s1 6.83398 3 9.50098l105 140c3.33301 4.66699 6.5 8.33398 9.5 11.001s8.16699 4 15.5 4h25z" />
    <glyph glyph-name="Ccaron" unicode="&#x10c;" horiz-adv-x="755" 
d="M670 165c0 -55.333 -15.333 -98.333 -46 -129s-73.667 -46 -129 -46h-225c-55.333 0 -98.333 15.333 -129 46s-46 73.667 -46 129v370c0 55.333 15.333 98.333 46 129s73.667 46 129 46h225c55.333 0 98.333 -15.333 129 -46s46 -73.667 46 -129v-30
c0 -10 -5 -15 -15 -15h-35c-10 0 -15 5 -15 15v30c0 35.333 -9.5 62.5 -28.5 81.5s-46.167 28.5 -81.5 28.5h-225c-35.333 0 -62.5 -9.5 -81.5 -28.5s-28.5 -46.167 -28.5 -81.5v-370c0 -35.333 9.5 -62.5 28.5 -81.5s46.167 -28.5 81.5 -28.5h225
c35.333 0 62.5 9.5 81.5 28.5s28.5 46.167 28.5 81.5v30c0 10 5 15 15 15h35c10 0 15 -5 15 -15v-30zM365 785c-7.33301 0 -12.5 1.33301 -15.5 4s-6.16699 6.33398 -9.5 11.001l-105 140c-2 2.66699 -3 5.83398 -3 9.50098s2.66699 5.5 8 5.5h30
c7.33301 0 12.5 -1.33301 15.5 -4s6.16699 -6.33398 9.5 -11.001l80 -105h5l80 105c3.33301 4.66699 6.5 8.33398 9.5 11.001s8.16699 4 15.5 4h30c5.33301 0 8 -1.83301 8 -5.5s-1 -6.83398 -3 -9.50098l-105 -140c-3.33301 -4.66699 -6.5 -8.33398 -9.5 -11.001
s-8.16699 -4 -15.5 -4h-25z" />
    <glyph glyph-name="ccaron" unicode="&#x10d;" horiz-adv-x="560" 
d="M495 145c0 -50 -13.333 -88.333 -40 -115s-65 -40 -115 -40h-110c-50 0 -88.333 13.333 -115 40s-40 65 -40 115v220c0 50 13.333 88.333 40 115s65 40 115 40h110c50 0 88.333 -13.333 115 -40s40 -65 40 -115v-15c0 -10 -5 -15 -15 -15h-30c-10 0 -15 5 -15 15v15
c0 30 -8.33301 53.333 -25 70s-40 25 -70 25h-110c-30 0 -53.333 -8.33301 -70 -25s-25 -40 -25 -70v-220c0 -30 8.33301 -53.333 25 -70s40 -25 70 -25h110c30 0 53.333 8.33301 70 25s25 40 25 70v15c0 10 5 15 15 15h30c10 0 15 -5 15 -15v-15zM267 600
c-7.33301 0 -12.5 1.33301 -15.5 4s-6.16699 6.33398 -9.5 11.001l-105 140c-2 2.66699 -3 5.83398 -3 9.50098s2.66699 5.5 8 5.5h30c7.33301 0 12.5 -1.33301 15.5 -4s6.16699 -6.33398 9.5 -11.001l80 -105h5l80 105c3.33301 4.66699 6.5 8.33398 9.5 11.001
s8.16699 4 15.5 4h30c5.33301 0 8 -1.83301 8 -5.5s-1 -6.83398 -3 -9.50098l-105 -140c-3.33301 -4.66699 -6.5 -8.33398 -9.5 -11.001s-8.16699 -4 -15.5 -4h-25z" />
    <glyph glyph-name="Dcaron" unicode="&#x10e;" horiz-adv-x="765" 
d="M670 175c0 -55.333 -15.333 -98.333 -46 -129s-73.667 -46 -129 -46h-375c-10 0 -15 5 -15 15v670c0 10 5 15 15 15h375c55.333 0 98.333 -15.333 129 -46s46 -73.667 46 -129v-350zM170 65h325c35.333 0 62.5 9.5 81.5 28.5s28.5 46.167 28.5 81.5v350
c0 35.333 -9.5 62.5 -28.5 81.5s-46.167 28.5 -81.5 28.5h-325v-570zM350 790c-7.33301 0 -12.5 1.33301 -15.5 4s-6.16699 6.33398 -9.5 11.001l-105 140c-2 2.66699 -3 5.83398 -3 9.50098s2.66699 5.5 8 5.5h30c7.33301 0 12.5 -1.33301 15.5 -4
s6.16699 -6.33398 9.5 -11.001l80 -105h5l80 105c3.33301 4.66699 6.5 8.33398 9.5 11.001s8.16699 4 15.5 4h30c5.33301 0 8 -1.83301 8 -5.5s-1 -6.83398 -3 -9.50098l-105 -140c-3.33301 -4.66699 -6.5 -8.33398 -9.5 -11.001s-8.16699 -4 -15.5 -4h-25z" />
    <glyph glyph-name="dcaron" unicode="&#x10f;" horiz-adv-x="620" 
d="M230 -10c-50 0 -88.333 13.333 -115 40s-40 65 -40 115v210c0 50 13.333 88.333 40 115s65 40 115 40h200v175c0 10 5 15 15 15h30c10 0 15 -5 15 -15v-670c0 -10 -5 -15 -15 -15h-30c-10 0 -15 5 -15 15v40h-5c-6.66699 -12.667 -15 -23.667 -25 -33
c-9.33301 -8 -20.833 -15.333 -34.5 -22s-30.5 -10 -50.5 -10h-85zM230 450c-30 0 -53.333 -8.33301 -70 -25s-25 -40 -25 -70v-210c0 -30 8.33301 -53.333 25 -70s40 -25 70 -25h85c35.333 0 63.333 10.333 84 31s31 48.667 31 84v285h-200zM650 650
c0 -7.33301 -1.16699 -13.333 -3.5 -18l-11.5 -22l-35 -70c-1.33301 -2.66699 -2.83301 -5 -4.5 -7s-5.16699 -3 -10.5 -3h-15c-6 0 -7.66699 3.33301 -5 10l45 90h-15c-10 0 -15 5 -15 15v40c0 10 5 15 15 15h40c10 0 15 -5 15 -15v-35z" />
    <glyph glyph-name="Dcroat" unicode="&#x110;" horiz-adv-x="785" 
d="M690 175c0 -55.333 -15.333 -98.333 -46 -129s-73.667 -46 -129 -46h-375c-10 0 -15 5 -15 15v300h-75c-10 0 -15 5 -15 15v35c0 10 5 15 15 15h75v305c0 10 5 15 15 15h375c55.333 0 98.333 -15.333 129 -46s46 -73.667 46 -129v-350zM190 315v-250h325
c35.333 0 62.5 9.5 81.5 28.5s28.5 46.167 28.5 81.5v350c0 35.333 -9.5 62.5 -28.5 81.5s-46.167 28.5 -81.5 28.5h-325v-255h165c10 0 15 -5 15 -15v-35c0 -10 -5 -15 -15 -15h-165z" />
    <glyph glyph-name="dcroat" unicode="&#x111;" horiz-adv-x="565" 
d="M475 530v-515c0 -10 -5 -15 -15 -15h-30c-10 0 -15 5 -15 15v40h-5c-6.66699 -12.667 -15 -23.667 -25 -33c-9.33301 -8 -20.833 -15.333 -34.5 -22s-30.5 -10 -50.5 -10h-85c-50 0 -88.333 13.333 -115 40s-40 65 -40 115v130c0 50 13.333 88.333 40 115s65 40 115 40
h200v100h-125c-10 0 -15 5 -15 15v30c0 10 5 15 15 15h125v95c0 10 5 15 15 15h30c10 0 15 -5 15 -15v-95h75c10 0 15 -5 15 -15v-30c0 -10 -5 -15 -15 -15h-75zM215 370c-30 0 -53.333 -8.33301 -70 -25s-25 -40 -25 -70v-130c0 -30 8.33301 -53.333 25 -70s40 -25 70 -25
h85c35.333 0 63.333 10.333 84 31s31 48.667 31 84v205h-200z" />
    <glyph glyph-name="Emacron" unicode="&#x112;" horiz-adv-x="665" 
d="M170 390h340c10 0 15 -5 15 -15v-35c0 -10 -5 -15 -15 -15h-340v-260h440c10 0 15 -5 15 -15v-35c0 -10 -5 -15 -15 -15h-490c-10 0 -15 5 -15 15v670c0 10 5 15 15 15h480c10 0 15 -5 15 -15v-35c0 -10 -5 -15 -15 -15h-430v-245zM230 825c-10 0 -15 5 -15 15v25
c0 10 5 15 15 15h240c10 0 15 -5 15 -15v-25c0 -10 -5 -15 -15 -15h-240z" />
    <glyph glyph-name="emacron" unicode="&#x113;" horiz-adv-x="570" 
d="M495 145c0 -50 -13.333 -88.333 -40 -115s-65 -40 -115 -40h-110c-50 0 -88.333 13.333 -115 40s-40 65 -40 115v220c0 50 13.333 88.333 40 115s65 40 115 40h110c50 0 88.333 -13.333 115 -40s40 -65 40 -115v-120c0 -10 -5 -15 -15 -15h-345v-85
c0 -30 8.33301 -53.333 25 -70s40 -25 70 -25h110c30 0 53.333 8.33301 70 25s25 40 25 70c0 10 5 15 15 15h30c10 0 15 -5 15 -15zM135 290h300v75c0 30 -8.33301 53.333 -25 70s-40 25 -70 25h-110c-30 0 -53.333 -8.33301 -70 -25s-25 -40 -25 -70v-75zM165 645
c-10 0 -15 5 -15 15v25c0 10 5 15 15 15h240c10 0 15 -5 15 -15v-25c0 -10 -5 -15 -15 -15h-240z" />
    <glyph glyph-name="Edotaccent" unicode="&#x116;" horiz-adv-x="665" 
d="M170 390h340c10 0 15 -5 15 -15v-35c0 -10 -5 -15 -15 -15h-340v-260h440c10 0 15 -5 15 -15v-35c0 -10 -5 -15 -15 -15h-490c-10 0 -15 5 -15 15v670c0 10 5 15 15 15h480c10 0 15 -5 15 -15v-35c0 -10 -5 -15 -15 -15h-430v-245zM380 900c10 0 15 -5 15 -15v-40
c0 -10 -5 -15 -15 -15h-40c-10 0 -15 5 -15 15v40c0 10 5 15 15 15h40z" />
    <glyph glyph-name="edotaccent" unicode="&#x117;" horiz-adv-x="570" 
d="M495 145c0 -50 -13.333 -88.333 -40 -115s-65 -40 -115 -40h-110c-50 0 -88.333 13.333 -115 40s-40 65 -40 115v220c0 50 13.333 88.333 40 115s65 40 115 40h110c50 0 88.333 -13.333 115 -40s40 -65 40 -115v-120c0 -10 -5 -15 -15 -15h-345v-85
c0 -30 8.33301 -53.333 25 -70s40 -25 70 -25h110c30 0 53.333 8.33301 70 25s25 40 25 70c0 10 5 15 15 15h30c10 0 15 -5 15 -15zM135 290h300v75c0 30 -8.33301 53.333 -25 70s-40 25 -70 25h-110c-30 0 -53.333 -8.33301 -70 -25s-25 -40 -25 -70v-75zM305 700
c10 0 15 -5 15 -15v-40c0 -10 -5 -15 -15 -15h-40c-10 0 -15 5 -15 15v40c0 10 5 15 15 15h40z" />
    <glyph glyph-name="Eogonek" unicode="&#x118;" horiz-adv-x="665" 
d="M120 0c-10 0 -15 5.00098 -15 15.001v670c0 10 5 15 15 15h480c10 0 15 -5 15 -15v-35c0 -10 -5 -15 -15 -15h-430v-245h340c10 0 15 -5 15 -15v-35c0 -10 -5 -15 -15 -15h-340v-260h440c10 0 15 -5 15 -15v-35c0 -10 -5 -15 -15 -15h-185
c-21.333 -10 -40.666 -21.333 -57.999 -34c-14.667 -11.333 -27.834 -24.666 -39.501 -39.999s-17.5 -32.333 -17.5 -51c0 -12.667 4.5 -23.334 13.5 -32.001s21.167 -13 36.5 -13h55c6.66699 0 10 -3.33301 10 -10v-30c0 -6.66699 -3.33301 -10 -10 -10h-55
c-30 0 -54.167 8.83301 -72.5 26.5s-27.5 40.5 -27.5 68.5c0 21.333 5.83301 39.666 17.5 54.999s24.834 28.333 39.501 39c17.333 12 36.666 22.333 57.999 31h-255z" />
    <glyph glyph-name="eogonek" unicode="&#x119;" horiz-adv-x="570" 
d="M495 145c0 -50 -12.999 -88.334 -38.999 -115.001s-63 -40 -111 -40c-18 -8.66699 -34 -19 -48 -31c-12 -10 -22.833 -22.167 -32.5 -36.5s-14.5 -30.166 -14.5 -47.499c0 -12.667 4.5 -23.334 13.5 -32.001s21.167 -13 36.5 -13h55c6.66699 0 10 -3.33301 10 -10v-30
c0 -6.66699 -3.33301 -10 -10 -10h-55c-30 0 -54.167 8.83301 -72.5 26.5s-27.5 40.5 -27.5 68.5c0 18.667 4.66699 35.334 14 50.001s19.666 26.667 30.999 36c12.667 11.333 27.667 21 45 29h-60c-50 0 -88.333 13.333 -115 40s-40 65 -40 115v220
c0 50 13.333 88.333 40 115s65 40 115 40h110c50 0 88.333 -13.333 115 -40s40 -65 40 -115v-120c0 -10 -5 -15 -15 -15h-345v-85c0 -30 8.33301 -53.333 25 -70s40 -25 70 -25h110c30 0 53.333 8.33301 70 25s25 40 25 70c0 10 5 15 15 15h30c10 0 15 -5 15 -15z
M135.001 289.999h300v75c0 30 -8.33301 53.333 -25 70s-40 25 -70 25h-110c-30 0 -53.333 -8.33301 -70 -25s-25 -40 -25 -70v-75z" />
    <glyph glyph-name="Ecaron" unicode="&#x11a;" horiz-adv-x="665" 
d="M170 390h340c10 0 15 -5 15 -15v-35c0 -10 -5 -15 -15 -15h-340v-260h440c10 0 15 -5 15 -15v-35c0 -10 -5 -15 -15 -15h-490c-10 0 -15 5 -15 15v670c0 10 5 15 15 15h480c10 0 15 -5 15 -15v-35c0 -10 -5 -15 -15 -15h-430v-245zM350 790
c-7.33301 0 -12.5 1.33301 -15.5 4s-6.16699 6.33398 -9.5 11.001l-105 140c-2 2.66699 -3 5.83398 -3 9.50098s2.66699 5.5 8 5.5h30c7.33301 0 12.5 -1.33301 15.5 -4s6.16699 -6.33398 9.5 -11.001l80 -105h5l80 105c3.33301 4.66699 6.5 8.33398 9.5 11.001
s8.16699 4 15.5 4h30c5.33301 0 8 -1.83301 8 -5.5s-1 -6.83398 -3 -9.50098l-105 -140c-3.33301 -4.66699 -6.5 -8.33398 -9.5 -11.001s-8.16699 -4 -15.5 -4h-25z" />
    <glyph glyph-name="ecaron" unicode="&#x11b;" horiz-adv-x="570" 
d="M495 145c0 -50 -13.333 -88.333 -40 -115s-65 -40 -115 -40h-110c-50 0 -88.333 13.333 -115 40s-40 65 -40 115v220c0 50 13.333 88.333 40 115s65 40 115 40h110c50 0 88.333 -13.333 115 -40s40 -65 40 -115v-120c0 -10 -5 -15 -15 -15h-345v-85
c0 -30 8.33301 -53.333 25 -70s40 -25 70 -25h110c30 0 53.333 8.33301 70 25s25 40 25 70c0 10 5 15 15 15h30c10 0 15 -5 15 -15zM135 290h300v75c0 30 -8.33301 53.333 -25 70s-40 25 -70 25h-110c-30 0 -53.333 -8.33301 -70 -25s-25 -40 -25 -70v-75zM270 600
c-7.33301 0 -12.5 1.33301 -15.5 4s-6.16699 6.33398 -9.5 11.001l-105 140c-2 2.66699 -3 5.83398 -3 9.50098s2.66699 5.5 8 5.5h30c7.33301 0 12.5 -1.33301 15.5 -4s6.16699 -6.33398 9.5 -11.001l80 -105h5l80 105c3.33301 4.66699 6.5 8.33398 9.5 11.001
s8.16699 4 15.5 4h30c5.33301 0 8 -1.83301 8 -5.5s-1 -6.83398 -3 -9.50098l-105 -140c-3.33301 -4.66699 -6.5 -8.33398 -9.5 -11.001s-8.16699 -4 -15.5 -4h-25z" />
    <glyph glyph-name="Gbreve" unicode="&#x11e;" horiz-adv-x="765" 
d="M670 165c0 -55.333 -15.333 -98.333 -46 -129s-73.667 -46 -129 -46h-225c-55.333 0 -98.333 15.333 -129 46s-46 73.667 -46 129v370c0 55.333 15.333 98.333 46 129s73.667 46 129 46h225c55.333 0 98.333 -15.333 129 -46s46 -73.667 46 -129v-30
c0 -10 -5 -15 -15 -15h-35c-10 0 -15 5 -15 15v30c0 35.333 -9.5 62.5 -28.5 81.5s-46.167 28.5 -81.5 28.5h-225c-35.333 0 -62.5 -9.5 -81.5 -28.5s-28.5 -46.167 -28.5 -81.5v-370c0 -35.333 9.5 -62.5 28.5 -81.5s46.167 -28.5 81.5 -28.5h225
c35.333 0 62.5 9.5 81.5 28.5s28.5 46.167 28.5 81.5v130h-165c-10 0 -15 5 -15 15v35c0 10 5 15 15 15h215c10 0 15 -5 15 -15v-180zM340 800c-35.333 0 -62.5 9.5 -81.5 28.5s-28.5 46.167 -28.5 81.5v15c0 10 5 15 15 15h25c10 0 15 -5 15 -15v-15
c0 -36.667 18.333 -55 55 -55h55c36.667 0 55 18.333 55 55v15c0 10 5 15 15 15h25c10 0 15 -5 15 -15v-15c0 -35.333 -9.5 -62.5 -28.5 -81.5s-46.167 -28.5 -81.5 -28.5h-55z" />
    <glyph glyph-name="gbreve" unicode="&#x11f;" horiz-adv-x="575" 
d="M80 -40c0 10 5 15 15 15h30c10 0 15 -5 15 -15v-5c0 -30 8.33301 -53.333 25 -70s40 -25 70 -25h100c30 0 53.333 8.33301 70 25s25 40 25 70v85h-200c-50 0 -88.333 13.333 -115 40s-40 65 -40 115v170c0 50 13.333 88.333 40 115s65 40 115 40h85
c20 0 36.833 -3.5 50.5 -10.5s25.167 -14.5 34.5 -22.5c10 -9.33301 18.333 -20 25 -32h5v40c0 10 5 15 15 15h30c10 0 15 -5 15 -15v-540c0 -50 -13.333 -88.333 -40 -115s-65 -40 -115 -40h-100c-50 0 -88.333 13.333 -115 40s-40 65 -40 115v5zM430 100v245
c0 35.333 -10.333 63.333 -31 84s-48.667 31 -84 31h-85c-30 0 -53.333 -8.33301 -70 -25s-25 -40 -25 -70v-170c0 -30 8.33301 -53.333 25 -70s40 -25 70 -25h200zM260 610c-35.333 0 -62.5 9.5 -81.5 28.5s-28.5 46.167 -28.5 81.5v15c0 10 5 15 15 15h25
c10 0 15 -5 15 -15v-15c0 -36.667 18.333 -55 55 -55h55c36.667 0 55 18.333 55 55v15c0 10 5 15 15 15h25c10 0 15 -5 15 -15v-15c0 -35.333 -9.5 -62.5 -28.5 -81.5s-46.167 -28.5 -81.5 -28.5h-55z" />
    <glyph glyph-name="Gcommaaccent" unicode="&#x122;" horiz-adv-x="765" 
d="M670 165c0 -55.333 -15.333 -98.333 -46 -129s-73.667 -46 -129 -46h-225c-55.333 0 -98.333 15.333 -129 46s-46 73.667 -46 129v370c0 55.333 15.333 98.333 46 129s73.667 46 129 46h225c55.333 0 98.333 -15.333 129 -46s46 -73.667 46 -129v-30
c0 -10 -5 -15 -15 -15h-35c-10 0 -15 5 -15 15v30c0 35.333 -9.5 62.5 -28.5 81.5s-46.167 28.5 -81.5 28.5h-225c-35.333 0 -62.5 -9.5 -81.5 -28.5s-28.5 -46.167 -28.5 -81.5v-370c0 -35.333 9.5 -62.5 28.5 -81.5s46.167 -28.5 81.5 -28.5h225
c35.333 0 62.5 9.5 81.5 28.5s28.5 46.167 28.5 81.5v130h-165c-10 0 -15 5 -15 15v35c0 10 5 15 15 15h215c10 0 15 -5 15 -15v-180zM420 -155c0 -7.33301 -1.16699 -13.333 -3.5 -18l-11.5 -22l-35 -70c-1.33301 -2.66699 -2.83301 -5 -4.5 -7s-5.16699 -3 -10.5 -3h-15
c-6 0 -7.66699 3.33301 -5 10l45 90h-15c-10 0 -15 5 -15 15v40c0 10 5 15 15 15h40c10 0 15 -5 15 -15v-35z" />
    <glyph glyph-name="gcommaaccent" unicode="&#x123;" horiz-adv-x="575" 
d="M245 650c0 7.33301 1.16699 13.333 3.5 18l11.5 22l35 70c1.33301 2.66699 2.83301 5 4.5 7s5.16699 3 10.5 3h15c6 0 7.66699 -3.33301 5 -10l-45 -90h15c10 0 15 -5 15 -15v-40c0 -10 -5 -15 -15 -15h-40c-10 0 -15 5 -15 15v35zM80 -40c0 10 5 15 15 15h30
c10 0 15 -5 15 -15v-5c0 -30 8.33301 -53.333 25 -70s40 -25 70 -25h100c30 0 53.333 8.33301 70 25s25 40 25 70v85h-200c-50 0 -88.333 13.333 -115 40s-40 65 -40 115v170c0 50 13.333 88.333 40 115s65 40 115 40h85c20 0 36.833 -3.5 50.5 -10.5
s25.167 -14.5 34.5 -22.5c10 -9.33301 18.333 -20 25 -32h5v40c0 10 5 15 15 15h30c10 0 15 -5 15 -15v-540c0 -50 -13.333 -88.333 -40 -115s-65 -40 -115 -40h-100c-50 0 -88.333 13.333 -115 40s-40 65 -40 115v5zM430 100v245c0 35.333 -10.333 63.333 -31 84
s-48.667 31 -84 31h-85c-30 0 -53.333 -8.33301 -70 -25s-25 -40 -25 -70v-170c0 -30 8.33301 -53.333 25 -70s40 -25 70 -25h200z" />
    <glyph glyph-name="Imacron" unicode="&#x12a;" horiz-adv-x="275" 
d="M170 15c0 -10 -5 -15 -15 -15h-35c-10 0 -15 5 -15 15v670c0 10 5 15 15 15h35c10 0 15 -5 15 -15v-670zM16 835c-10 0 -15 5 -15 15v25c0 10 5 15 15 15h240c10 0 15 -5 15 -15v-25c0 -10 -5 -15 -15 -15h-240z" />
    <glyph glyph-name="imacron" unicode="&#x12b;" horiz-adv-x="230" 
d="M100 0c-10 0 -15 5 -15 15v480c0 10 5 15 15 15h30c10 0 15 -5 15 -15v-480c0 -10 -5 -15 -15 -15h-30zM-4 645c-10 0 -15 5 -15 15v25c0 10 5 15 15 15h240c10 0 15 -5 15 -15v-25c0 -10 -5 -15 -15 -15h-240z" />
    <glyph glyph-name="Iogonek" unicode="&#x12e;" horiz-adv-x="275" 
d="M110 5c-1.33301 0 -2.33301 0.333008 -3 1c-1.33301 1.33301 -2 4.33301 -2 9v670c0 10 5 15 15 15h35c10 0 15 -5 15 -15v-670c0 -10 -5 -15 -15 -15c-20 -10 -37.667 -21.333 -53 -34c-13.333 -11.333 -25.333 -24.666 -36 -39.999s-16 -32.333 -16 -51
c0 -12.667 4.5 -23.334 13.5 -32.001s21.167 -13 36.5 -13h55c6.66699 0 10 -3.33301 10 -10v-30c0 -6.66699 -3.33301 -10 -10 -10h-55c-30 0 -54.167 8.83301 -72.5 26.5s-27.5 40.5 -27.5 68.5c0 21.333 5.66699 40 17 56s24 29.667 38 41c16 12.667 34.333 23.667 55 33
z" />
    <glyph glyph-name="iogonek" unicode="&#x12f;" horiz-adv-x="230" 
d="M85 5c-1.33301 0 -2.33203 0.333008 -2.99902 1c-1.33301 1.33301 -2 4.33301 -2 9v480c0 10 5 15 15 15h30c10 0 15 -5 15 -15v-480c0 -10 -5 -15 -15 -15c-20.667 -10 -39 -21.333 -55 -34c-14 -11.333 -26.667 -24.666 -38 -39.999s-17 -32.333 -17 -51
c0 -12.667 4.5 -23.334 13.5 -32.001s21.167 -13 36.5 -13h55c6.66699 0 10 -3.33301 10 -10v-30c0 -6.66699 -3.33301 -10 -10 -10h-55c-30 0 -54.167 8.83301 -72.5 26.5s-27.5 40.5 -27.5 68.5c0 21.333 6.16699 40 18.5 56s26.166 29.667 41.499 41
c17.333 12.667 37.333 23.667 60 33zM130.001 700c10 0 15 -5 15 -15v-35c0 -10 -5 -15 -15 -15h-40c-10 0 -15 5 -15 15v35c0 10 5 15 15 15h40z" />
    <glyph glyph-name="Idotaccent" unicode="&#x130;" horiz-adv-x="275" 
d="M170 15c0 -10 -5 -15 -15 -15h-35c-10 0 -15 5 -15 15v670c0 10 5 15 15 15h35c10 0 15 -5 15 -15v-670zM155 900c10 0 15 -5 15 -15v-40c0 -10 -5 -15 -15 -15h-40c-10 0 -15 5 -15 15v40c0 10 5 15 15 15h40z" />
    <glyph glyph-name="dotlessi" unicode="&#x131;" horiz-adv-x="230" 
d="M100 0c-10 0 -15 5 -15 15v480c0 10 5 15 15 15h30c10 0 15 -5 15 -15v-480c0 -10 -5 -15 -15 -15h-30z" />
    <glyph glyph-name="Kcommaaccent" unicode="&#x136;" horiz-adv-x="682" 
d="M170 335v-319.998c0 -10 -5 -15 -15 -15h-35c-10 0 -15 5 -15 15v670c0 10 5 15 15 15h35c10 0 15 -5 15 -15v-285h225l155 285c3.33301 5.33301 6.16602 9.16602 8.49902 11.499s6.16602 3.5 11.499 3.5h45c11.333 0 14.666 -5 9.99902 -15l-175 -315l195 -355
c4.66699 -10 1.33398 -15 -9.99902 -15h-45c-5.33301 0 -9.16602 1.16699 -11.499 3.5s-5.16602 6.16602 -8.49902 11.499l-175 320h-225zM385 -149.998c0 -7.33301 -1.16699 -13.333 -3.5 -18l-11.5 -22l-35 -70c-1.33301 -2.66699 -2.83301 -5 -4.5 -7
s-5.16699 -3 -10.5 -3h-15c-6 0 -7.66699 3.33301 -5 10l45 90h-15c-10 0 -15 5 -15 15v40c0 10 5 15 15 15h40c10 0 15 -5 15 -15v-35z" />
    <glyph glyph-name="kcommaaccent" unicode="&#x137;" horiz-adv-x="517" 
d="M145 240v-224.998c0 -10 -5 -15 -15 -15h-30c-10 0 -15 5 -15 15v670c0 10 5 15 15 15h30c10 0 15 -5 15 -15v-385h150l105 195c3.33301 5.33301 6.16602 9.16602 8.49902 11.499s6.16602 3.5 11.499 3.5h40c11.333 0 14.666 -5 9.99902 -15l-125 -225l140 -255
c4.66699 -10 1.33398 -15 -9.99902 -15h-40c-5.33301 0 -9.16602 1.16699 -11.499 3.5s-5.16602 6.16602 -8.49902 11.499l-120 225h-150zM305 -139.998c0 -7.33301 -1.16699 -13.333 -3.5 -18l-11.5 -22l-35 -70c-1.33301 -2.66699 -2.83301 -5 -4.5 -7
s-5.16699 -3 -10.5 -3h-15c-6 0 -7.66699 3.33301 -5 10l45 90h-15c-10 0 -15 5 -15 15v40c0 10 5 15 15 15h40c10 0 15 -5 15 -15v-35z" />
    <glyph glyph-name="Lacute" unicode="&#x139;" horiz-adv-x="625" 
d="M170 65h420c10 0 15 -5 15 -15v-35c0 -10 -5 -15 -15 -15h-470c-10 0 -15 5 -15 15v670c0 10 5 15 15 15h35c10 0 15 -5 15 -15v-620zM175 805c-3.33301 -4.66699 -6.16797 -8.33398 -8.50098 -11.001s-6.16602 -4 -11.499 -4h-20c-5.33301 0 -9 1.33301 -11 4
s-1.66699 6.33398 1 11.001l65 130c4.66699 10 11.334 15 20.001 15h40c11.333 0 14.666 -5 9.99902 -15z" />
    <glyph glyph-name="lacute" unicode="&#x13a;" horiz-adv-x="234" 
d="M100 0c-10 0 -15 5 -15 15v670c0 10 5 15 15 15h30c10 0 15 -5 15 -15v-670c0 -10 -5 -15 -15 -15h-30zM147 805c-3.33301 -4.66699 -6.16797 -8.33398 -8.50098 -11.001s-6.16602 -4 -11.499 -4h-20c-5.33301 0 -9 1.33301 -11 4s-1.66699 6.33398 1 11.001l65 130
c4.66699 10 11.334 15 20.001 15h40c11.333 0 14.666 -5 9.99902 -15z" />
    <glyph glyph-name="Lcommaaccent" unicode="&#x13b;" horiz-adv-x="625" 
d="M170 65h420c10 0 15 -5 15 -15v-35c0 -10 -5 -15 -15 -15h-470c-10 0 -15 5 -15 15v670c0 10 5 15 15 15h35c10 0 15 -5 15 -15v-620zM390 -150c0 -7.33301 -1.16699 -13.333 -3.5 -18l-11.5 -22l-35 -70c-1.33301 -2.66699 -2.83301 -5 -4.5 -7s-5.16699 -3 -10.5 -3
h-15c-6 0 -7.66699 3.33301 -5 10l45 90h-15c-10 0 -15 5 -15 15v40c0 10 5 15 15 15h40c10 0 15 -5 15 -15v-35z" />
    <glyph glyph-name="lcommaaccent" unicode="&#x13c;" horiz-adv-x="231" 
d="M101 0c-10 0 -15 5 -15 15v670c0 10 5 15 15 15h30c10 0 15 -5 15 -15v-670c0 -10 -5 -15 -15 -15h-30zM151 -140c0 -7.33301 -1.16699 -13.333 -3.5 -18l-11.5 -22l-35 -70c-1.33301 -2.66699 -2.83301 -5 -4.5 -7s-5.16699 -3 -10.5 -3h-15
c-6 0 -7.66699 3.33301 -5 10l45 90h-15c-10 0 -15 5 -15 15v40c0 10 5 15 15 15h40c10 0 15 -5 15 -15v-35z" />
    <glyph glyph-name="Lcaron" unicode="&#x13d;" horiz-adv-x="625" 
d="M170 65h420c10 0 15 -5 15 -15v-35c0 -10 -5 -15 -15 -15h-470c-10 0 -15 5 -15 15v670c0 10 5 15 15 15h35c10 0 15 -5 15 -15v-620zM336 650c0 -7.33301 -1.16699 -13.333 -3.5 -18l-11.5 -22l-35 -70c-1.33301 -2.66699 -2.83301 -5 -4.5 -7s-5.16699 -3 -10.5 -3h-15
c-6 0 -7.66699 3.33301 -5 10l45 90h-15c-10 0 -15 5 -15 15v40c0 10 5 15 15 15h40c10 0 15 -5 15 -15v-35z" />
    <glyph glyph-name="lcaron" unicode="&#x13e;" horiz-adv-x="255" 
d="M100 0c-10 0 -15 5 -15 15v670c0 10 5 15 15 15h30c10 0 15 -5 15 -15v-670c0 -10 -5 -15 -15 -15h-30zM285 650c0 -7.33301 -1.16699 -13.333 -3.5 -18l-11.5 -22l-35 -70c-1.33301 -2.66699 -2.83301 -5 -4.5 -7s-5.16699 -3 -10.5 -3h-15c-6 0 -7.66699 3.33301 -5 10
l45 90h-15c-10 0 -15 5 -15 15v40c0 10 5 15 15 15h40c10 0 15 -5 15 -15v-35z" />
    <glyph glyph-name="Lslash" unicode="&#x141;" horiz-adv-x="650" 
d="M130 375v310c0 10 5 15 15 15h35c10 0 15 -5 15 -15v-290l105 40c10 4 15 0.666992 15 -10v-25c0 -9.33301 -5 -16 -15 -20l-105 -40v-275h420c10 0 15 -5 15 -15v-35c0 -10 -5 -15 -15 -15h-470c-10 0 -15 5 -15 15v305l-105 -40c-10 -4 -15 -0.666992 -15 10v25
c0 9.33301 5 16 15 20z" />
    <glyph glyph-name="lslash" unicode="&#x142;" horiz-adv-x="300" 
d="M120 375v310c0 10 5 15 15 15h30c10 0 15 -5 15 -15v-290l105 40c10 4 15 0.666992 15 -10v-25c0 -9.33301 -5 -16 -15 -20l-105 -40v-325c0 -10 -5 -15 -15 -15h-30c-10 0 -15 5 -15 15v305l-105 -40c-10 -4 -15 -0.666992 -15 10v25c0 9.33301 5 16 15 20z" />
    <glyph glyph-name="Nacute" unicode="&#x143;" horiz-adv-x="775" 
d="M605 100v585c0 10 5 15 15 15h35c10 0 15 -5 15 -15v-670c0 -10 -5 -15 -15 -15h-45c-10 0 -16.667 1.16699 -20 3.5s-6.66602 6.16602 -9.99902 11.499l-405 585h-5v-585c0 -10 -5 -15 -15 -15h-35c-10 0 -15 5 -15 15v670c0 10 5 15 15 15h45
c10 0 16.667 -1.16699 20 -3.5s6.66602 -6.16602 9.99902 -11.499l405 -585h5zM420 805c-3.33301 -4.66699 -6.16797 -8.33398 -8.50098 -11.001s-6.16602 -4 -11.499 -4h-20c-5.33301 0 -9 1.33301 -11 4s-1.66699 6.33398 1 11.001l65 130c4.66699 10 11.334 15 20.001 15
h40c11.333 0 14.666 -5 9.99902 -15z" />
    <glyph glyph-name="nacute" unicode="&#x144;" 
d="M345 520c50 0 88.333 -13.333 115 -40s40 -65 40 -115v-350c0 -10 -5 -15 -15 -15h-30c-10 0 -15 5 -15 15v350c0 30 -8.33301 53.333 -25 70s-40 25 -70 25h-85c-35.333 0 -63.333 -10.333 -84 -31s-31 -48.667 -31 -84v-330c0 -10 -5 -15 -15 -15h-30
c-10 0 -15 5 -15 15v480c0 10 5 15 15 15h30c10 0 15 -5 15 -15v-40h5c6 12 14.333 22.667 25 32c8.66699 8 20 15.5 34 22.5s31 10.5 51 10.5h85zM315 615c-3.33301 -4.66699 -6.16797 -8.33398 -8.50098 -11.001s-6.16602 -4 -11.499 -4h-20c-5.33301 0 -9 1.33301 -11 4
s-1.66699 6.33398 1 11.001l65 130c4.66699 10 11.334 15 20.001 15h40c11.333 0 14.666 -5 9.99902 -15z" />
    <glyph glyph-name="Ncommaaccent" unicode="&#x145;" horiz-adv-x="775" 
d="M605 100v585c0 10 5 15 15 15h35c10 0 15 -5 15 -15v-670c0 -10 -5 -15 -15 -15h-45c-10 0 -16.667 1.16699 -20 3.5s-6.66602 6.16602 -9.99902 11.499l-405 585h-5v-585c0 -10 -5 -15 -15 -15h-35c-10 0 -15 5 -15 15v670c0 10 5 15 15 15h45
c10 0 16.667 -1.16699 20 -3.5s6.66602 -6.16602 9.99902 -11.499l405 -585h5zM430 -150c0 -7.33301 -1.16699 -13.333 -3.5 -18l-11.5 -22l-35 -70c-1.33301 -2.66699 -2.83301 -5 -4.5 -7s-5.16699 -3 -10.5 -3h-15c-6 0 -7.66699 3.33301 -5 10l45 90h-15
c-10 0 -15 5 -15 15v40c0 10 5 15 15 15h40c10 0 15 -5 15 -15v-35z" />
    <glyph glyph-name="ncommaaccent" unicode="&#x146;" 
d="M345 520c50 0 88.333 -13.333 115 -40s40 -65 40 -115v-350c0 -10 -5 -15 -15 -15h-30c-10 0 -15 5 -15 15v350c0 30 -8.33301 53.333 -25 70s-40 25 -70 25h-85c-35.333 0 -63.333 -10.333 -84 -31s-31 -48.667 -31 -84v-330c0 -10 -5 -15 -15 -15h-30
c-10 0 -15 5 -15 15v480c0 10 5 15 15 15h30c10 0 15 -5 15 -15v-40h5c6 12 14.333 22.667 25 32c8.66699 8 20 15.5 34 22.5s31 10.5 51 10.5h85zM330 -140c0 -7.33301 -1.16699 -13.333 -3.5 -18l-11.5 -22l-35 -70c-1.33301 -2.66699 -2.83301 -5 -4.5 -7
s-5.16699 -3 -10.5 -3h-15c-6 0 -7.66699 3.33301 -5 10l45 90h-15c-10 0 -15 5 -15 15v40c0 10 5 15 15 15h40c10 0 15 -5 15 -15v-35z" />
    <glyph glyph-name="Ncaron" unicode="&#x147;" horiz-adv-x="775" 
d="M605 100v585c0 10 5 15 15 15h35c10 0 15 -5 15 -15v-670c0 -10 -5 -15 -15 -15h-45c-10 0 -16.667 1.16699 -20 3.5s-6.66602 6.16602 -9.99902 11.499l-405 585h-5v-585c0 -10 -5 -15 -15 -15h-35c-10 0 -15 5 -15 15v670c0 10 5 15 15 15h45
c10 0 16.667 -1.16699 20 -3.5s6.66602 -6.16602 9.99902 -11.499l405 -585h5zM375 790c-7.33301 0 -12.5 1.33301 -15.5 4s-6.16699 6.33398 -9.5 11.001l-105 140c-2 2.66699 -3 5.83398 -3 9.50098s2.66699 5.5 8 5.5h30c7.33301 0 12.5 -1.33301 15.5 -4
s6.16699 -6.33398 9.5 -11.001l80 -105h5l80 105c3.33301 4.66699 6.5 8.33398 9.5 11.001s8.16699 4 15.5 4h30c5.33301 0 8 -1.83301 8 -5.5s-1 -6.83398 -3 -9.50098l-105 -140c-3.33301 -4.66699 -6.5 -8.33398 -9.5 -11.001s-8.16699 -4 -15.5 -4h-25z" />
    <glyph glyph-name="ncaron" unicode="&#x148;" 
d="M345 520c50 0 88.333 -13.333 115 -40s40 -65 40 -115v-350c0 -10 -5 -15 -15 -15h-30c-10 0 -15 5 -15 15v350c0 30 -8.33301 53.333 -25 70s-40 25 -70 25h-85c-35.333 0 -63.333 -10.333 -84 -31s-31 -48.667 -31 -84v-330c0 -10 -5 -15 -15 -15h-30
c-10 0 -15 5 -15 15v480c0 10 5 15 15 15h30c10 0 15 -5 15 -15v-40h5c6 12 14.333 22.667 25 32c8.66699 8 20 15.5 34 22.5s31 10.5 51 10.5h85zM280 600c-7.33301 0 -12.5 1.33301 -15.5 4s-6.16699 6.33398 -9.5 11.001l-105 140c-2 2.66699 -3 5.83398 -3 9.50098
s2.66699 5.5 8 5.5h30c7.33301 0 12.5 -1.33301 15.5 -4s6.16699 -6.33398 9.5 -11.001l80 -105h5l80 105c3.33301 4.66699 6.5 8.33398 9.5 11.001s8.16699 4 15.5 4h30c5.33301 0 8 -1.83301 8 -5.5s-1 -6.83398 -3 -9.50098l-105 -140
c-3.33301 -4.66699 -6.5 -8.33398 -9.5 -11.001s-8.16699 -4 -15.5 -4h-25z" />
    <glyph glyph-name="Omacron" unicode="&#x14c;" horiz-adv-x="780" 
d="M620 535c0 35.333 -9.5 62.5 -28.5 81.5s-46.167 28.5 -81.5 28.5h-240c-35.333 0 -62.5 -9.5 -81.5 -28.5s-28.5 -46.167 -28.5 -81.5v-370c0 -35.333 9.5 -62.5 28.5 -81.5s46.167 -28.5 81.5 -28.5h240c35.333 0 62.5 9.5 81.5 28.5s28.5 46.167 28.5 81.5v370z
M685 165c0 -55.333 -15.333 -98.333 -46 -129s-73.667 -46 -129 -46h-240c-55.333 0 -98.333 15.333 -129 46s-46 73.667 -46 129v370c0 55.333 15.333 98.333 46 129s73.667 46 129 46h240c55.333 0 98.333 -15.333 129 -46s46 -73.667 46 -129v-370zM270 835
c-10 0 -15 5 -15 15v25c0 10 5 15 15 15h240c10 0 15 -5 15 -15v-25c0 -10 -5 -15 -15 -15h-240z" />
    <glyph glyph-name="omacron" unicode="&#x14d;" horiz-adv-x="580" 
d="M445 365c0 30 -8.33301 53.333 -25 70s-40 25 -70 25h-120c-30 0 -53.333 -8.33301 -70 -25s-25 -40 -25 -70v-220c0 -30 8.33301 -53.333 25 -70s40 -25 70 -25h120c30 0 53.333 8.33301 70 25s25 40 25 70v220zM505 145c0 -50 -13.333 -88.333 -40 -115
s-65 -40 -115 -40h-120c-50 0 -88.333 13.333 -115 40s-40 65 -40 115v220c0 50 13.333 88.333 40 115s65 40 115 40h120c50 0 88.333 -13.333 115 -40s40 -65 40 -115v-220zM170 645c-10 0 -15 5 -15 15v25c0 10 5 15 15 15h240c10 0 15 -5 15 -15v-25
c0 -10 -5 -15 -15 -15h-240z" />
    <glyph glyph-name="Ohungarumlaut" unicode="&#x150;" horiz-adv-x="780" 
d="M620 535c0 35.333 -9.5 62.5 -28.5 81.5s-46.167 28.5 -81.5 28.5h-240c-35.333 0 -62.5 -9.5 -81.5 -28.5s-28.5 -46.167 -28.5 -81.5v-370c0 -35.333 9.5 -62.5 28.5 -81.5s46.167 -28.5 81.5 -28.5h240c35.333 0 62.5 9.5 81.5 28.5s28.5 46.167 28.5 81.5v370z
M685 165c0 -55.333 -15.333 -98.333 -46 -129s-73.667 -46 -129 -46h-240c-55.333 0 -98.333 15.333 -129 46s-46 73.667 -46 129v370c0 55.333 15.333 98.333 46 129s73.667 46 129 46h240c55.333 0 98.333 -15.333 129 -46s46 -73.667 46 -129v-370zM332 815
c-3.33301 -4.66699 -6.16797 -8.33398 -8.50098 -11.001s-6.16602 -4 -11.499 -4h-15c-5.33301 0 -9 1.33301 -11 4s-1.66699 6.33398 1 11.001l65 130c4.66699 10 11.334 15 20.001 15h35c11.333 0 14.666 -5 9.99902 -15zM476.998 815
c-3.33301 -4.66699 -6.16797 -8.33398 -8.50098 -11.001s-6.16602 -4 -11.499 -4h-15c-5.33301 0 -9 1.33301 -11 4s-1.66699 6.33398 1 11.001l65 130c4.66699 10 11.334 15 20.001 15h35c11.333 0 14.666 -5 9.99902 -15z" />
    <glyph glyph-name="ohungarumlaut" unicode="&#x151;" horiz-adv-x="580" 
d="M445 365c0 30 -8.33301 53.333 -25 70s-40 25 -70 25h-120c-30 0 -53.333 -8.33301 -70 -25s-25 -40 -25 -70v-220c0 -30 8.33301 -53.333 25 -70s40 -25 70 -25h120c30 0 53.333 8.33301 70 25s25 40 25 70v220zM505 145c0 -50 -13.333 -88.333 -40 -115
s-65 -40 -115 -40h-120c-50 0 -88.333 13.333 -115 40s-40 65 -40 115v220c0 50 13.333 88.333 40 115s65 40 115 40h120c50 0 88.333 -13.333 115 -40s40 -65 40 -115v-220zM242 615c-3.33301 -4.66699 -6.16797 -8.33398 -8.50098 -11.001s-6.16602 -4 -11.499 -4h-15
c-5.33301 0 -9 1.33301 -11 4s-1.66699 6.33398 1 11.001l65 130c4.66699 10 11.334 15 20.001 15h35c11.333 0 14.666 -5 9.99902 -15zM386.998 615c-3.33301 -4.66699 -6.16797 -8.33398 -8.50098 -11.001s-6.16602 -4 -11.499 -4h-15c-5.33301 0 -9 1.33301 -11 4
s-1.66699 6.33398 1 11.001l65 130c4.66699 10 11.334 15 20.001 15h35c11.333 0 14.666 -5 9.99902 -15z" />
    <glyph glyph-name="OE" unicode="&#x152;" horiz-adv-x="1050" 
d="M95 525c0 55.333 15.333 98.333 46 129s73.667 46 129 46h715c10 0 15 -5 15 -15v-35c0 -10 -5 -15 -15 -15h-385v-245h295c10 0 15 -5 15 -15v-35c0 -10 -5 -15 -15 -15h-295v-260h395c10 0 15 -5 15 -15v-35c0 -10 -5 -15 -15 -15h-725
c-55.333 -0 -98.333 15.333 -129 46s-46 73.667 -46 129v350zM160 175c0 -35.333 9.5 -62.5 28.5 -81.5s46.167 -28.5 81.5 -28.5h265v570h-265c-35.333 0 -62.5 -9.5 -81.5 -28.5s-28.5 -46.167 -28.5 -81.5v-350z" />
    <glyph glyph-name="oe" unicode="&#x153;" horiz-adv-x="880" 
d="M415 365c0 30 -8.33301 53.333 -25 70s-40 25 -70 25h-90c-30 0 -53.333 -8.33301 -70 -25s-25 -40 -25 -70v-220c0 -30 8.33301 -53.333 25 -70s40 -25 70 -25h90c30 0 53.333 8.33301 70 25s25 40 25 70v220zM475 290h270v75c0 30 -8.33301 53.333 -25 70
s-40 25 -70 25h-80c-30 0 -53.333 -8.33301 -70 -25s-25 -40 -25 -70v-75zM230 -10c-50 0 -88.333 13.333 -115 40s-40 65 -40 115v220c0 50 13.333 88.333 40 115s65 40 115 40h90c23.333 0 43 -3.66699 59 -11s28.667 -15.333 38 -24
c11.333 -10.667 20 -22.334 26 -35.001h4c6 12.667 14.667 24.334 26 35.001c9.33301 8.66699 21.833 16.667 37.5 24s35.5 11 59.5 11h80c50 0 88.333 -13.333 115 -40s40 -65 40 -115v-120c0 -10 -5 -15 -15 -15h-315v-85c0 -30 8.33301 -53.333 25 -70s40 -25 70 -25h80
c30 0 53.333 8.33301 70 25s25 40 25 70c0 10 5 15 15 15h30c10 0 15 -5 15 -15c0 -50 -13.333 -88.333 -40 -115s-65 -40 -115 -40h-80c-24 0 -43.833 3.5 -59.5 10.5s-28.167 15.167 -37.5 24.5c-11.333 10 -20 21.667 -26 35h-4c-6 -13.333 -14.667 -25 -26 -35
c-9.33301 -9.33301 -22 -17.5 -38 -24.5s-35.667 -10.5 -59 -10.5h-90z" />
    <glyph glyph-name="Racute" unicode="&#x154;" horiz-adv-x="732" 
d="M465 700c55.333 0 98.3291 -15.332 128.996 -45.999s46 -73.667 46 -129v-100c0 -38 -6.66699 -67.833 -20 -89.5s-27.666 -38.167 -42.999 -49.5c-18 -13.333 -38.667 -22 -62 -26l135 -245c4.66699 -10 1.33398 -15 -9.99902 -15h-45
c-5.33301 0 -9.16602 1.16699 -11.499 3.5s-5.16602 6.16602 -8.49902 11.499l-130 235h-275v-235c0 -10 -5 -15 -15 -15h-35c-10 0 -15 5 -15 15v670c0 10 5 15 15 15h345zM169.996 635.001v-320h295c35.333 0 62.5 9.5 81.5 28.5s28.5 46.167 28.5 81.5v100
c0 35.333 -9.5 62.5 -28.5 81.5s-46.167 28.5 -81.5 28.5h-295zM377.996 805.001c-3.33301 -4.66699 -6.16797 -8.33398 -8.50098 -11.001s-6.16602 -4 -11.499 -4h-20c-5.33301 0 -9 1.33301 -11 4s-1.66699 6.33398 1 11.001l65 130c4.66699 10 11.334 15 20.001 15h40
c11.333 0 14.666 -5 9.99902 -15z" />
    <glyph glyph-name="racute" unicode="&#x155;" horiz-adv-x="350" 
d="M260 460c-35.333 0 -63.333 -10.333 -84 -31s-31 -48.667 -31 -84v-330c0 -10 -5 -15 -15 -15h-30c-10 0 -15 5 -15 15v480c0 10 5 15 15 15h30c10 0 15 -5 15 -15v-40h5c6 12 14.333 22.667 25 32c8.66699 8 20 15.5 34 22.5s31 10.5 51 10.5h65c10 0 15 -5 15 -15v-30
c0 -10 -5 -15 -15 -15h-65zM242 615c-3.33301 -4.66699 -6.16797 -8.33398 -8.50098 -11.001s-6.16602 -4 -11.499 -4h-20c-5.33301 0 -9 1.33301 -11 4s-1.66699 6.33398 1 11.001l65 130c4.66699 10 11.334 15 20.001 15h40c11.333 0 14.666 -5 9.99902 -15z" />
    <glyph glyph-name="Rcommaaccent" unicode="&#x156;" horiz-adv-x="732" 
d="M465 700c55.333 0 98.3291 -15.332 128.996 -45.999s46 -73.667 46 -129v-100c0 -38 -6.66699 -67.833 -20 -89.5s-27.666 -38.167 -42.999 -49.5c-18 -13.333 -38.667 -22 -62 -26l135 -245c4.66699 -10 1.33398 -15 -9.99902 -15h-45
c-5.33301 0 -9.16602 1.16699 -11.499 3.5s-5.16602 6.16602 -8.49902 11.499l-130 235h-275v-235c0 -10 -5 -15 -15 -15h-35c-10 0 -15 5 -15 15v670c0 10 5 15 15 15h345zM169.996 635.001v-320h295c35.333 0 62.5 9.5 81.5 28.5s28.5 46.167 28.5 81.5v100
c0 35.333 -9.5 62.5 -28.5 81.5s-46.167 28.5 -81.5 28.5h-295zM399.996 -139.999c0 -7.33301 -1.16699 -13.333 -3.5 -18l-11.5 -22l-35 -70c-1.33301 -2.66699 -2.83301 -5 -4.5 -7s-5.16699 -3 -10.5 -3h-15c-6 0 -7.66699 3.33301 -5 10l45 90h-15c-10 0 -15 5 -15 15
v40c0 10 5 15 15 15h40c10 0 15 -5 15 -15v-35z" />
    <glyph glyph-name="rcommaaccent" unicode="&#x157;" horiz-adv-x="350" 
d="M260 460c-35.333 0 -63.333 -10.333 -84 -31s-31 -48.667 -31 -84v-330c0 -10 -5 -15 -15 -15h-30c-10 0 -15 5 -15 15v480c0 10 5 15 15 15h30c10 0 15 -5 15 -15v-40h5c6 12 14.333 22.667 25 32c8.66699 8 20 15.5 34 22.5s31 10.5 51 10.5h65c10 0 15 -5 15 -15v-30
c0 -10 -5 -15 -15 -15h-65zM218 -155c0 -7.33301 -1.16699 -13.333 -3.5 -18l-11.5 -22l-35 -70c-1.33301 -2.66699 -2.83301 -5 -4.5 -7s-5.16699 -3 -10.5 -3h-15c-6 0 -7.66699 3.33301 -5 10l45 90h-15c-10 0 -15 5 -15 15v40c0 10 5 15 15 15h40c10 0 15 -5 15 -15v-35
z" />
    <glyph glyph-name="Rcaron" unicode="&#x158;" horiz-adv-x="732" 
d="M465 700c55.333 0 98.3291 -15.332 128.996 -45.999s46 -73.667 46 -129v-100c0 -38 -6.66699 -67.833 -20 -89.5s-27.666 -38.167 -42.999 -49.5c-18 -13.333 -38.667 -22 -62 -26l135 -245c4.66699 -10 1.33398 -15 -9.99902 -15h-45
c-5.33301 0 -9.16602 1.16699 -11.499 3.5s-5.16602 6.16602 -8.49902 11.499l-130 235h-275v-235c0 -10 -5 -15 -15 -15h-35c-10 0 -15 5 -15 15v670c0 10 5 15 15 15h345zM169.996 635.001v-320h295c35.333 0 62.5 9.5 81.5 28.5s28.5 46.167 28.5 81.5v100
c0 35.333 -9.5 62.5 -28.5 81.5s-46.167 28.5 -81.5 28.5h-295zM342.996 790.001c-7.33301 0 -12.5 1.33301 -15.5 4s-6.16699 6.33398 -9.5 11.001l-105 140c-2 2.66699 -3 5.83398 -3 9.50098s2.66699 5.5 8 5.5h30c7.33301 0 12.5 -1.33301 15.5 -4
s6.16699 -6.33398 9.5 -11.001l80 -105h5l80 105c3.33301 4.66699 6.5 8.33398 9.5 11.001s8.16699 4 15.5 4h30c5.33301 0 8 -1.83301 8 -5.5s-1 -6.83398 -3 -9.50098l-105 -140c-3.33301 -4.66699 -6.5 -8.33398 -9.5 -11.001s-8.16699 -4 -15.5 -4h-25z" />
    <glyph glyph-name="rcaron" unicode="&#x159;" horiz-adv-x="351" 
d="M260 460c-35.333 0 -63.333 -10.333 -84 -31s-31 -48.667 -31 -84v-330c0 -10 -5 -15 -15 -15h-30c-10 0 -15 5 -15 15v480c0 10 5 15 15 15h30c10 0 15 -5 15 -15v-40h5c6 12 14.333 22.667 25 32c8.66699 8 20 15.5 34 22.5s31 10.5 51 10.5h65c10 0 15 -5 15 -15v-30
c0 -10 -5 -15 -15 -15h-65zM193 600c-7.33301 0 -12.5 1.33301 -15.5 4s-6.16699 6.33398 -9.5 11.001l-105 140c-2 2.66699 -3 5.83398 -3 9.50098s2.66699 5.5 8 5.5h30c7.33301 0 12.5 -1.33301 15.5 -4s6.16699 -6.33398 9.5 -11.001l80 -105h5l80 105
c3.33301 4.66699 6.5 8.33398 9.5 11.001s8.16699 4 15.5 4h30c5.33301 0 8 -1.83301 8 -5.5s-1 -6.83398 -3 -9.50098l-105 -140c-3.33301 -4.66699 -6.5 -8.33398 -9.5 -11.001s-8.16699 -4 -15.5 -4h-25z" />
    <glyph glyph-name="Sacute" unicode="&#x15a;" horiz-adv-x="700" 
d="M155 510c0 -20 5.16699 -35.667 15.5 -47s26.833 -20.666 49.5 -27.999l300 -100c28 -9.33301 50.833 -24.333 68.5 -45s26.5 -47.334 26.5 -80.001v-45c0 -55.333 -15.333 -98.333 -46 -129s-73.667 -46 -129 -46h-190c-55.333 0 -98.333 15.333 -129 46
s-46 73.667 -46 129v30c0 10 5 15 15 15h35c10 0 15 -5 15 -15v-30c0 -35.333 9.5 -62.5 28.5 -81.5s46.167 -28.5 81.5 -28.5h190c35.333 0 62.5 9.5 81.5 28.5s28.5 46.167 28.5 81.5v40c0 20 -5.16699 35.667 -15.5 47s-26.833 20.666 -49.5 27.999l-300 100
c-28 9.33301 -50.833 24.333 -68.5 45s-26.5 47.334 -26.5 80.001v30c0 55.333 15.333 98.333 46 129s73.667 46 129 46h170c55.333 0 98.333 -15.333 129 -46s46 -73.667 46 -129v-30c0 -10 -5 -15 -15 -15h-35c-10 0 -15 5 -15 15v30c0 35.333 -9.5 62.5 -28.5 81.5
s-46.167 28.5 -81.5 28.5h-170c-35.333 0 -62.5 -9.5 -81.5 -28.5s-28.5 -46.167 -28.5 -81.5v-25zM372 805c-3.33301 -4.66699 -6.16797 -8.33398 -8.50098 -11.001s-6.16602 -4 -11.499 -4h-20c-5.33301 0 -9 1.33301 -11 4s-1.66699 6.33398 1 11.001l65 130
c4.66699 10 11.334 15 20.001 15h40c11.333 0 14.666 -5 9.99902 -15z" />
    <glyph glyph-name="sacute" unicode="&#x15b;" horiz-adv-x="535" 
d="M470 135c0 -96.667 -48.333 -145 -145 -145h-115c-50 0 -88.333 13.333 -115 40s-40 65 -40 115v5c0 10 5 15 15 15h30c10 0 15 -5 15 -15v-5c0 -30 8.33301 -53.333 25 -70s40 -25 70 -25h115c56.667 0 85 28.333 85 85v5c0 15.333 -3.66699 27 -11 35
s-18.666 14.667 -33.999 20l-225 75c-22.667 7.33301 -40.834 19.166 -54.501 35.499s-20.5 39.5 -20.5 69.5c0 96.667 48.333 145 145 145h100c50 0 88.333 -13.333 115 -40s40 -65 40 -115v-5c0 -10 -5 -15 -15 -15h-30c-10 0 -15 5 -15 15v5c0 30 -8.33301 53.333 -25 70
s-40 25 -70 25h-100c-56.667 0 -85 -28.333 -85 -85c0 -15.333 3.66699 -27 11 -35s18.666 -14.667 33.999 -20l225 -75c22.667 -7.33301 40.834 -19.166 54.501 -35.499s20.5 -39.5 20.5 -69.5v-5zM285 615c-3.33301 -4.66699 -6.16797 -8.33398 -8.50098 -11.001
s-6.16602 -4 -11.499 -4h-20c-5.33301 0 -9 1.33301 -11 4s-1.66699 6.33398 1 11.001l65 130c4.66699 10 11.334 15 20.001 15h40c11.333 0 14.666 -5 9.99902 -15z" />
    <glyph glyph-name="Scedilla" unicode="&#x15e;" horiz-adv-x="700" 
d="M460 -160c0 -28 -8.33301 -49.999 -25 -65.999s-40 -24 -70 -24h-70c-6.66699 0 -10 3.33301 -10 10v30c0 6.66699 3.33301 10 10 10h70c15.333 0 26.666 3.66699 33.999 11s11 17 11 29v5c0 12 -3.66699 21.667 -11 29s-18.666 11 -33.999 11h-55
c-6.66699 0 -10 3.33301 -10 10v30c0 7.33301 1 13.166 3 17.499s4.33301 8.5 7 12.5l20 35h-80c-55.333 0 -98.333 15.333 -129 46s-46 73.667 -46 129v30c0 10 5 15 15 15h35c10 0 15 -5 15 -15v-30c0 -35.333 9.5 -62.5 28.5 -81.5s46.167 -28.5 81.5 -28.5h190
c35.333 0 62.5 9.5 81.5 28.5s28.5 46.167 28.5 81.5v40c0 20 -5.16699 35.667 -15.5 47s-26.833 20.666 -49.5 27.999l-300 100c-28 9.33301 -50.833 24.333 -68.5 45s-26.5 47.334 -26.5 80.001v30c0 55.333 15.333 98.333 46 129s73.667 46 129 46h170
c55.333 0 98.333 -15.333 129 -46s46 -73.667 46 -129v-30c0 -10 -5 -15 -15 -15h-35c-10 0 -15 5 -15 15v30c0 35.333 -9.5 62.5 -28.5 81.5s-46.167 28.5 -81.5 28.5h-170c-35.333 0 -62.5 -9.5 -81.5 -28.5s-28.5 -46.167 -28.5 -81.5v-25
c0 -20 5.16699 -35.667 15.5 -47s26.833 -20.666 49.5 -27.999l300 -100c28 -9.33301 50.833 -24.333 68.5 -45s26.5 -47.334 26.5 -80.001v-45c0 -55.333 -15.333 -98.333 -46 -129s-73.667 -46 -129 -46h-70l-30 -55h25c30 0 53.333 -8 70 -24s25 -38 25 -66v-5z" />
    <glyph glyph-name="scedilla" unicode="&#x15f;" horiz-adv-x="535" 
d="M375 -160c0 -28 -8.33301 -49.999 -25 -65.999s-40 -24 -70 -24h-70c-6.66699 0 -10 3.33301 -10 10v30c0 6.66699 3.33301 10 10 10h70c15.333 0 26.666 3.66699 33.999 11s11 17 11 29v5c0 12 -3.66699 21.667 -11 29s-18.666 11 -33.999 11h-55
c-6.66699 0 -10 3.33301 -10 10v30c0 7.33301 1 13.166 3 17.499s4.33301 8.5 7 12.5l20 35h-35c-50 0 -88.333 13.333 -115 40s-40 65 -40 115v5c0 10 5 15 15 15h30c10 0 15 -5 15 -15v-5c0 -30 8.33301 -53.333 25 -70s40 -25 70 -25h115c56.667 0 85 28.333 85 85v5
c0 15.333 -3.66699 27 -11 35s-18.666 14.667 -33.999 20l-225 75c-22.667 7.33301 -40.834 19.166 -54.501 35.499s-20.5 39.5 -20.5 69.5c0 96.667 48.333 145 145 145h100c50 0 88.333 -13.333 115 -40s40 -65 40 -115v-5c0 -10 -5 -15 -15 -15h-30c-10 0 -15 5 -15 15v5
c0 30 -8.33301 53.333 -25 70s-40 25 -70 25h-100c-56.667 0 -85 -28.333 -85 -85c0 -15.333 3.66699 -27 11 -35s18.666 -14.667 33.999 -20l225 -75c22.667 -7.33301 40.834 -19.166 54.501 -35.499s20.5 -39.5 20.5 -69.5v-5c0 -96.667 -48.333 -145 -145 -145h-40
l-30 -55h25c30 0 53.333 -8 70 -24s25 -38 25 -66v-5z" />
    <glyph glyph-name="Scaron" unicode="&#x160;" horiz-adv-x="700" 
d="M155 510c0 -20 5.16699 -35.667 15.5 -47s26.833 -20.666 49.5 -27.999l300 -100c28 -9.33301 50.833 -24.333 68.5 -45s26.5 -47.334 26.5 -80.001v-45c0 -55.333 -15.333 -98.333 -46 -129s-73.667 -46 -129 -46h-190c-55.333 0 -98.333 15.333 -129 46
s-46 73.667 -46 129v30c0 10 5 15 15 15h35c10 0 15 -5 15 -15v-30c0 -35.333 9.5 -62.5 28.5 -81.5s46.167 -28.5 81.5 -28.5h190c35.333 0 62.5 9.5 81.5 28.5s28.5 46.167 28.5 81.5v40c0 20 -5.16699 35.667 -15.5 47s-26.833 20.666 -49.5 27.999l-300 100
c-28 9.33301 -50.833 24.333 -68.5 45s-26.5 47.334 -26.5 80.001v30c0 55.333 15.333 98.333 46 129s73.667 46 129 46h170c55.333 0 98.333 -15.333 129 -46s46 -73.667 46 -129v-30c0 -10 -5 -15 -15 -15h-35c-10 0 -15 5 -15 15v30c0 35.333 -9.5 62.5 -28.5 81.5
s-46.167 28.5 -81.5 28.5h-170c-35.333 0 -62.5 -9.5 -81.5 -28.5s-28.5 -46.167 -28.5 -81.5v-25zM338 790c-7.33301 0 -12.5 1.33301 -15.5 4s-6.16699 6.33398 -9.5 11.001l-105 140c-2 2.66699 -3 5.83398 -3 9.50098s2.66699 5.5 8 5.5h30
c7.33301 0 12.5 -1.33301 15.5 -4s6.16699 -6.33398 9.5 -11.001l80 -105h5l80 105c3.33301 4.66699 6.5 8.33398 9.5 11.001s8.16699 4 15.5 4h30c5.33301 0 8 -1.83301 8 -5.5s-1 -6.83398 -3 -9.50098l-105 -140c-3.33301 -4.66699 -6.5 -8.33398 -9.5 -11.001
s-8.16699 -4 -15.5 -4h-25z" />
    <glyph glyph-name="scaron" unicode="&#x161;" horiz-adv-x="535" 
d="M470 135c0 -96.667 -48.333 -145 -145 -145h-115c-50 0 -88.333 13.333 -115 40s-40 65 -40 115v5c0 10 5 15 15 15h30c10 0 15 -5 15 -15v-5c0 -30 8.33301 -53.333 25 -70s40 -25 70 -25h115c56.667 0 85 28.333 85 85v5c0 15.333 -3.66699 27 -11 35
s-18.666 14.667 -33.999 20l-225 75c-22.667 7.33301 -40.834 19.166 -54.501 35.499s-20.5 39.5 -20.5 69.5c0 96.667 48.333 145 145 145h100c50 0 88.333 -13.333 115 -40s40 -65 40 -115v-5c0 -10 -5 -15 -15 -15h-30c-10 0 -15 5 -15 15v5c0 30 -8.33301 53.333 -25 70
s-40 25 -70 25h-100c-56.667 0 -85 -28.333 -85 -85c0 -15.333 3.66699 -27 11 -35s18.666 -14.667 33.999 -20l225 -75c22.667 -7.33301 40.834 -19.166 54.501 -35.499s20.5 -39.5 20.5 -69.5v-5zM250 600c-7.33301 0 -12.5 1.33301 -15.5 4s-6.16699 6.33398 -9.5 11.001
l-105 140c-2 2.66699 -3 5.83398 -3 9.50098s2.66699 5.5 8 5.5h30c7.33301 0 12.5 -1.33301 15.5 -4s6.16699 -6.33398 9.5 -11.001l80 -105h5l80 105c3.33301 4.66699 6.5 8.33398 9.5 11.001s8.16699 4 15.5 4h30c5.33301 0 8 -1.83301 8 -5.5s-1 -6.83398 -3 -9.50098
l-105 -140c-3.33301 -4.66699 -6.5 -8.33398 -9.5 -11.001s-8.16699 -4 -15.5 -4h-25z" />
    <glyph glyph-name="Tcommaaccent" unicode="&#x162;" horiz-adv-x="575" 
d="M255 635h-230c-10 0 -15 5 -15 15v35c0 10 5 15 15 15h525c10 0 15 -5 15 -15v-35c0 -10 -5 -15 -15 -15h-230v-620c0 -10 -5 -15 -15 -15h-35c-10 0 -15 5 -15 15v620zM320 -140c0 -7.33301 -1.16699 -13.333 -3.5 -18l-11.5 -22l-35 -70
c-1.33301 -2.66699 -2.83301 -5 -4.5 -7s-5.16699 -3 -10.5 -3h-15c-6 0 -7.66699 3.33301 -5 10l45 90h-15c-10 0 -15 5 -15 15v40c0 10 5 15 15 15h40c10 0 15 -5 15 -15v-35z" />
    <glyph glyph-name="tcommaaccent" unicode="&#x163;" horiz-adv-x="385" 
d="M295 510c10 0 15 -5 15 -15v-30c0 -10 -5 -15 -15 -15h-105v-295c0 -30 8.33301 -53.333 25 -70s40 -25 70 -25h40c10 0 15 -5 15 -15v-30c0 -10 -5 -15 -15 -15h-40c-50 -0 -88.333 13.333 -115 40s-40 65 -40 115v295h-85c-10 0 -15 5 -15 15v30c0 10 5 15 15 15h85
v105c0 10 5 15 15 15h30c10 0 15 -5 15 -15v-105h105zM270 -151c0 -7.33301 -1.16699 -13.333 -3.5 -18l-11.5 -22l-35 -70c-1.33301 -2.66699 -2.83301 -5 -4.5 -7s-5.16699 -3 -10.5 -3h-15c-6 0 -7.66699 3.33301 -5 10l45 90h-15c-10 0 -15 5 -15 15v40c0 10 5 15 15 15
h40c10 0 15 -5 15 -15v-35z" />
    <glyph glyph-name="Tcaron" unicode="&#x164;" horiz-adv-x="575" 
d="M255 635h-230c-10 0 -15 5 -15 15v35c0 10 5 15 15 15h525c10 0 15 -5 15 -15v-35c0 -10 -5 -15 -15 -15h-230v-620c0 -10 -5 -15 -15 -15h-35c-10 0 -15 5 -15 15v620zM275 790c-7.33301 0 -12.5 1.33301 -15.5 4s-6.16699 6.33398 -9.5 11.001l-105 140
c-2 2.66699 -3 5.83398 -3 9.50098s2.66699 5.5 8 5.5h30c7.33301 0 12.5 -1.33301 15.5 -4s6.16699 -6.33398 9.5 -11.001l80 -105h5l80 105c3.33301 4.66699 6.5 8.33398 9.5 11.001s8.16699 4 15.5 4h30c5.33301 0 8 -1.83301 8 -5.5s-1 -6.83398 -3 -9.50098l-105 -140
c-3.33301 -4.66699 -6.5 -8.33398 -9.5 -11.001s-8.16699 -4 -15.5 -4h-25z" />
    <glyph glyph-name="tcaron" unicode="&#x165;" horiz-adv-x="386" 
d="M295 510c10 0 15 -5 15 -15v-30c0 -10 -5 -15 -15 -15h-105v-295c0 -30 8.33301 -53.333 25 -70s40 -25 70 -25h40c10 0 15 -5 15 -15v-30c0 -10 -5 -15 -15 -15h-40c-50 -0 -88.333 13.333 -115 40s-40 65 -40 115v295h-85c-10 0 -15 5 -15 15v30c0 10 5 15 15 15h85
v105c0 10 5 15 15 15h30c10 0 15 -5 15 -15v-105h105zM416 650c0 -7.33301 -1.16699 -13.333 -3.5 -18l-11.5 -22l-35 -70c-1.33301 -2.66699 -2.83301 -5 -4.5 -7s-5.16699 -3 -10.5 -3h-15c-6 0 -7.66699 3.33301 -5 10l45 90h-15c-10 0 -15 5 -15 15v40c0 10 5 15 15 15
h40c10 0 15 -5 15 -15v-35z" />
    <glyph glyph-name="Umacron" unicode="&#x16a;" horiz-adv-x="765" 
d="M105 685c0 10 5 15 15 15h35c10 0 15 -5 15 -15v-520c0 -35.333 9.5 -62.5 28.5 -81.5s46.167 -28.5 81.5 -28.5h205c35.333 0 62.5 9.5 81.5 28.5s28.5 46.167 28.5 81.5v520c0 10 5 15 15 15h35c10 0 15 -5 15 -15v-520c0 -55.333 -15.333 -98.333 -46 -129
s-73.667 -46 -129 -46h-205c-55.333 0 -98.333 15.333 -129 46s-46 73.667 -46 129v520zM260 835c-10 0 -15 5 -15 15v25c0 10 5 15 15 15h240c10 0 15 -5 15 -15v-25c0 -10 -5 -15 -15 -15h-240z" />
    <glyph glyph-name="umacron" unicode="&#x16b;" 
d="M240 -10c-50 0 -88.333 13.333 -115 40s-40 65 -40 115v350c0 10 5 15 15 15h30c10 0 15 -5 15 -15v-350c0 -30 8.33301 -53.333 25 -70s40 -25 70 -25h85c35.333 0 63.333 10.333 84 31s31 48.667 31 84v330c0 10 5 15 15 15h30c10 0 15 -5 15 -15v-480
c0 -10 -5 -15 -15 -15h-30c-10 0 -15 5 -15 15v40h-5c-6.66699 -12.667 -15 -23.667 -25 -33c-9.33301 -8 -20.833 -15.333 -34.5 -22s-30.5 -10 -50.5 -10h-85zM170 645c-10 0 -15 5 -15 15v25c0 10 5 15 15 15h240c10 0 15 -5 15 -15v-25c0 -10 -5 -15 -15 -15h-240z" />
    <glyph glyph-name="Uring" unicode="&#x16e;" horiz-adv-x="765" 
d="M105 685c0 10 5 15 15 15h35c10 0 15 -5 15 -15v-520c0 -35.333 9.5 -62.5 28.5 -81.5s46.167 -28.5 81.5 -28.5h205c35.333 0 62.5 9.5 81.5 28.5s28.5 46.167 28.5 81.5v520c0 10 5 15 15 15h35c10 0 15 -5 15 -15v-520c0 -55.333 -15.333 -98.333 -46 -129
s-73.667 -46 -129 -46h-205c-55.333 0 -98.333 15.333 -129 46s-46 73.667 -46 129v520zM385 990c30 0 54.167 -8.83301 72.5 -26.5s27.5 -40.5 27.5 -68.5v-20c0 -28 -9.16699 -50.833 -27.5 -68.5s-42.5 -26.5 -72.5 -26.5h-10c-30 0 -54.167 8.83301 -72.5 26.5
s-27.5 40.5 -27.5 68.5v20c0 28 9.16699 50.833 27.5 68.5s42.5 26.5 72.5 26.5h10zM375 945c-17.333 0 -30.833 -4.5 -40.5 -13.5s-14.5 -21.167 -14.5 -36.5v-20c0 -15.333 4.83301 -27.5 14.5 -36.5s23.167 -13.5 40.5 -13.5h10c17.333 0 30.833 4.5 40.5 13.5
s14.5 21.167 14.5 36.5v20c0 15.333 -4.83301 27.5 -14.5 36.5s-23.167 13.5 -40.5 13.5h-10z" />
    <glyph glyph-name="uring" unicode="&#x16f;" 
d="M240 -10c-50 0 -88.333 13.333 -115 40s-40 65 -40 115v350c0 10 5 15 15 15h30c10 0 15 -5 15 -15v-350c0 -30 8.33301 -53.333 25 -70s40 -25 70 -25h85c35.333 0 63.333 10.333 84 31s31 48.667 31 84v330c0 10 5 15 15 15h30c10 0 15 -5 15 -15v-480
c0 -10 -5 -15 -15 -15h-30c-10 0 -15 5 -15 15v40h-5c-6.66699 -12.667 -15 -23.667 -25 -33c-9.33301 -8 -20.833 -15.333 -34.5 -22s-30.5 -10 -50.5 -10h-85zM295 800c30 0 54.167 -8.83301 72.5 -26.5s27.5 -40.5 27.5 -68.5v-20c0 -28 -9.16699 -50.833 -27.5 -68.5
s-42.5 -26.5 -72.5 -26.5h-10c-30 0 -54.167 8.83301 -72.5 26.5s-27.5 40.5 -27.5 68.5v20c0 28 9.16699 50.833 27.5 68.5s42.5 26.5 72.5 26.5h10zM285 755c-17.333 0 -30.833 -4.5 -40.5 -13.5s-14.5 -21.167 -14.5 -36.5v-20c0 -15.333 4.83301 -27.5 14.5 -36.5
s23.167 -13.5 40.5 -13.5h10c17.333 0 30.833 4.5 40.5 13.5s14.5 21.167 14.5 36.5v20c0 15.333 -4.83301 27.5 -14.5 36.5s-23.167 13.5 -40.5 13.5h-10z" />
    <glyph glyph-name="Uhungarumlaut" unicode="&#x170;" horiz-adv-x="765" 
d="M105 685c0 10 5 15 15 15h35c10 0 15 -5 15 -15v-520c0 -35.333 9.5 -62.5 28.5 -81.5s46.167 -28.5 81.5 -28.5h205c35.333 0 62.5 9.5 81.5 28.5s28.5 46.167 28.5 81.5v520c0 10 5 15 15 15h35c10 0 15 -5 15 -15v-520c0 -55.333 -15.333 -98.333 -46 -129
s-73.667 -46 -129 -46h-205c-55.333 0 -98.333 15.333 -129 46s-46 73.667 -46 129v520zM330 805c-3.33301 -4.66699 -6.16797 -8.33398 -8.50098 -11.001s-6.16602 -4 -11.499 -4h-15c-5.33301 0 -9 1.33301 -11 4s-1.66699 6.33398 1 11.001l65 130
c4.66699 10 11.334 15 20.001 15h35c11.333 0 14.666 -5 9.99902 -15zM474.998 805c-3.33301 -4.66699 -6.16797 -8.33398 -8.50098 -11.001s-6.16602 -4 -11.499 -4h-15c-5.33301 0 -9 1.33301 -11 4s-1.66699 6.33398 1 11.001l65 130c4.66699 10 11.334 15 20.001 15h35
c11.333 0 14.666 -5 9.99902 -15z" />
    <glyph glyph-name="uhungarumlaut" unicode="&#x171;" 
d="M240 -10c-50 0 -88.333 13.333 -115 40s-40 65 -40 115v350c0 10 5 15 15 15h30c10 0 15 -5 15 -15v-350c0 -30 8.33301 -53.333 25 -70s40 -25 70 -25h85c35.333 0 63.333 10.333 84 31s31 48.667 31 84v330c0 10 5 15 15 15h30c10 0 15 -5 15 -15v-480
c0 -10 -5 -15 -15 -15h-30c-10 0 -15 5 -15 15v40h-5c-6.66699 -12.667 -15 -23.667 -25 -33c-9.33301 -8 -20.833 -15.333 -34.5 -22s-30.5 -10 -50.5 -10h-85zM240 605c-3.33301 -4.66699 -6.16797 -8.33398 -8.50098 -11.001s-6.16602 -4 -11.499 -4h-15
c-5.33301 0 -9 1.33301 -11 4s-1.66699 6.33398 1 11.001l65 130c4.66699 10 11.334 15 20.001 15h35c11.333 0 14.666 -5 9.99902 -15zM384.998 605c-3.33301 -4.66699 -6.16797 -8.33398 -8.50098 -11.001s-6.16602 -4 -11.499 -4h-15c-5.33301 0 -9 1.33301 -11 4
s-1.66699 6.33398 1 11.001l65 130c4.66699 10 11.334 15 20.001 15h35c11.333 0 14.666 -5 9.99902 -15z" />
    <glyph glyph-name="Uogonek" unicode="&#x172;" horiz-adv-x="765" 
d="M105 685c0 10 5.00098 14.999 15.001 14.999h35c10 0 15 -5 15 -15v-520c0 -35.333 9.5 -62.5 28.5 -81.5s46.167 -28.5 81.5 -28.5h205c35.333 0 62.5 9.5 81.5 28.5s28.5 46.167 28.5 81.5v520c0 10 5 15 15 15h35c10 0 15 -5 15 -15v-520
c0 -55.333 -15.333 -98.333 -46 -129s-73.667 -46 -129 -46h-40c-18 -8.66699 -34 -19 -48 -31c-12 -10 -22.833 -22.167 -32.5 -36.5s-14.5 -30.166 -14.5 -47.499c0 -12.667 4.5 -23.334 13.5 -32.001s21.167 -13 36.5 -13h55c6.66699 0 10 -3.33301 10 -10v-30
c0 -6.66699 -3.33301 -10 -10 -10h-55c-30 0 -54.167 8.83301 -72.5 26.5s-27.5 40.5 -27.5 68.5c0 18.667 4.66699 35.334 14 50.001s19.666 26.667 30.999 36c12.667 11.333 27.667 21 45 29h-110c-55.333 0 -98.333 15.333 -129 46s-46 73.667 -46 129v520z" />
    <glyph glyph-name="uogonek" unicode="&#x173;" 
d="M440 55h-5c-6.66699 -12.667 -15 -23.667 -25 -33c-9.33301 -8 -20.833 -15.333 -34.5 -22s-30.5 -10 -50.5 -10h-85c-50 0 -88.333 13.333 -115 40s-40 65 -40 115v350c0 10 5 15 15 15h30c10 0 15 -5 15 -15v-350c0 -30 8.33301 -53.333 25 -70s40 -25 70 -25h85
c35.333 0 63.333 10.333 84 31s31 48.667 31 84v330c0 10 5 15 15 15h30c10 0 15 -5 15 -15v-480c0 -10 -5 -15 -15 -15c-20 -10 -37.667 -21.333 -53 -34c-13.333 -11.333 -25.333 -24.666 -36 -39.999s-16 -32.333 -16 -51c0 -12.667 4.5 -23.334 13.5 -32.001
s21.167 -13 36.5 -13h50c6.66699 0 10 -3.33301 10 -10v-30c0 -6.66699 -3.33301 -10 -10 -10h-50c-30 0 -54.167 8.83301 -72.5 26.5s-27.5 40.5 -27.5 68.5c0 21.333 5.83301 40 17.5 56s24.834 29.667 39.501 41c17.333 12.667 36.666 23.667 57.999 33
c-1.33301 0.666992 -2.33301 1.66699 -3 3c-1.33301 2.66699 -2 5 -2 7v40z" />
    <glyph glyph-name="Ydieresis" unicode="&#x178;" horiz-adv-x="611" 
d="M338 250v-235c0 -10 -5 -15 -15 -15h-35c-10 0 -15 5 -15 15v235l-260 435c-3.33301 5.33301 -4 9.16602 -2 11.499s4.33301 3.5 7 3.5h45c7.33301 0 12.5 -1.16699 15.5 -3.5s6.16699 -6.16602 9.5 -11.499l215 -365h5l215 365c3.33301 5.33301 6.5 9.16602 9.5 11.499
s8.16699 3.5 15.5 3.5h45c2.66699 0 5 -1.16699 7 -3.5s1.33301 -6.16602 -2 -11.499zM240 900c10 0 15 -5 15 -15v-40c0 -10 -5 -15 -15 -15h-40c-10 0 -15 5 -15 15v40c0 10 5 15 15 15h40zM410 900c10 0 15 -5 15 -15v-40c0 -10 -5 -15 -15 -15h-40c-10 0 -15 5 -15 15
v40c0 10 5 15 15 15h40z" />
    <glyph glyph-name="Zacute" unicode="&#x179;" horiz-adv-x="615" 
d="M125 70v-5h435c10 0 15 -5 15 -15v-35c0 -10 -5 -15 -15 -15h-505c-10 0 -15 5 -15 15v40c0 7.33301 1.5 12.833 4.5 16.5l10.5 13.5l435 545v5h-425c-10 0 -15 5 -15 15v35c0 10 5 15 15 15h495c10 0 15 -5 15 -15v-40c0 -7.33301 -1.5 -12.833 -4.5 -16.5l-10.5 -13.5z
M340 805c-3.33301 -4.66699 -6.16797 -8.33398 -8.50098 -11.001s-6.16602 -4 -11.499 -4h-20c-5.33301 0 -9 1.33301 -11 4s-1.66699 6.33398 1 11.001l65 130c4.66699 10 11.334 15 20.001 15h40c11.333 0 14.666 -5 9.99902 -15z" />
    <glyph glyph-name="zacute" unicode="&#x17a;" horiz-adv-x="470" 
d="M115 65v-5h305c10 0 15 -5 15 -15v-30c0 -10 -5 -15 -15 -15h-370c-10 0 -15 5 -15 15v35c0 7.33301 1.33301 12.833 4 16.5s6.33398 8.16699 11.001 13.5l305 365v5h-295c-10 0 -15 5 -15 15v30c0 10 5 15 15 15h360c10 0 15 -5 15 -15v-35
c0 -7.33301 -1.33301 -12.833 -4 -16.5s-6.33398 -8.16699 -11.001 -13.5zM257 605c-3.33301 -4.66699 -6.16797 -8.33398 -8.50098 -11.001s-6.16602 -4 -11.499 -4h-20c-5.33301 0 -9 1.33301 -11 4s-1.66699 6.33398 1 11.001l65 130c4.66699 10 11.334 15 20.001 15h40
c11.333 0 14.666 -5 9.99902 -15z" />
    <glyph glyph-name="Zdotaccent" unicode="&#x17b;" horiz-adv-x="615" 
d="M125 70v-5h435c10 0 15 -5 15 -15v-35c0 -10 -5 -15 -15 -15h-505c-10 0 -15 5 -15 15v40c0 7.33301 1.5 12.833 4.5 16.5l10.5 13.5l435 545v5h-425c-10 0 -15 5 -15 15v35c0 10 5 15 15 15h495c10 0 15 -5 15 -15v-40c0 -7.33301 -1.5 -12.833 -4.5 -16.5l-10.5 -13.5z
M325 900c10 0 15 -5 15 -15v-40c0 -10 -5 -15 -15 -15h-40c-10 0 -15 5 -15 15v40c0 10 5 15 15 15h40z" />
    <glyph glyph-name="zdotaccent" unicode="&#x17c;" horiz-adv-x="470" 
d="M115 65v-5h305c10 0 15 -5 15 -15v-30c0 -10 -5 -15 -15 -15h-370c-10 0 -15 5 -15 15v35c0 7.33301 1.33301 12.833 4 16.5s6.33398 8.16699 11.001 13.5l305 365v5h-295c-10 0 -15 5 -15 15v30c0 10 5 15 15 15h360c10 0 15 -5 15 -15v-35
c0 -7.33301 -1.33301 -12.833 -4 -16.5s-6.33398 -8.16699 -11.001 -13.5zM260 700c10 0 15 -5 15 -15v-40c0 -10 -5 -15 -15 -15h-40c-10 0 -15 5 -15 15v40c0 10 5 15 15 15h40z" />
    <glyph glyph-name="Zcaron" unicode="&#x17d;" horiz-adv-x="615" 
d="M125 70v-5h435c10 0 15 -5 15 -15v-35c0 -10 -5 -15 -15 -15h-505c-10 0 -15 5 -15 15v40c0 7.33301 1.5 12.833 4.5 16.5l10.5 13.5l435 545v5h-425c-10 0 -15 5 -15 15v35c0 10 5 15 15 15h495c10 0 15 -5 15 -15v-40c0 -7.33301 -1.5 -12.833 -4.5 -16.5l-10.5 -13.5z
M295 790c-7.33301 0 -12.5 1.33301 -15.5 4s-6.16699 6.33398 -9.5 11.001l-105 140c-2 2.66699 -3 5.83398 -3 9.50098s2.66699 5.5 8 5.5h30c7.33301 0 12.5 -1.33301 15.5 -4s6.16699 -6.33398 9.5 -11.001l80 -105h5l80 105c3.33301 4.66699 6.5 8.33398 9.5 11.001
s8.16699 4 15.5 4h30c5.33301 0 8 -1.83301 8 -5.5s-1 -6.83398 -3 -9.50098l-105 -140c-3.33301 -4.66699 -6.5 -8.33398 -9.5 -11.001s-8.16699 -4 -15.5 -4h-25z" />
    <glyph glyph-name="zcaron" unicode="&#x17e;" horiz-adv-x="470" 
d="M115 65v-5h305c10 0 15 -5 15 -15v-30c0 -10 -5 -15 -15 -15h-370c-10 0 -15 5 -15 15v35c0 7.33301 1.33301 12.833 4 16.5s6.33398 8.16699 11.001 13.5l305 365v5h-295c-10 0 -15 5 -15 15v30c0 10 5 15 15 15h360c10 0 15 -5 15 -15v-35
c0 -7.33301 -1.33301 -12.833 -4 -16.5s-6.33398 -8.16699 -11.001 -13.5zM222 590c-7.33301 0 -12.5 1.33301 -15.5 4s-6.16699 6.33398 -9.5 11.001l-105 140c-2 2.66699 -3 5.83398 -3 9.50098s2.66699 5.5 8 5.5h30c7.33301 0 12.5 -1.33301 15.5 -4
s6.16699 -6.33398 9.5 -11.001l80 -105h5l80 105c3.33301 4.66699 6.5 8.33398 9.5 11.001s8.16699 4 15.5 4h30c5.33301 0 8 -1.83301 8 -5.5s-1 -6.83398 -3 -9.50098l-105 -140c-3.33301 -4.66699 -6.5 -8.33398 -9.5 -11.001s-8.16699 -4 -15.5 -4h-25z" />
    <glyph glyph-name="florin" unicode="&#x192;" horiz-adv-x="365" 
d="M145 420h-85c-10 0 -15 5 -15 15v30c0 10 5 15 15 15h85v65c0 50 13.333 88.333 40 115s65 40 115 40h40c10 0 15 -5 15 -15v-30c0 -10 -5 -15 -15 -15h-40c-30 0 -53.333 -8.33301 -70 -25s-25 -40 -25 -70v-65h105c10 0 15 -5 15 -15v-30c0 -10 -5 -15 -15 -15h-105
v-465c0 -50 -13.333 -88.333 -40 -115s-65 -40 -115 -40h-35c-10 0 -15 5 -15 15v30c0 10 5 15 15 15h35c30 0 53.333 8.33301 70 25s25 40 25 70v465z" />
    <glyph glyph-name="Scommaaccent" unicode="&#x218;" horiz-adv-x="700" 
d="M155 510c0 -20 5.16699 -35.667 15.5 -47s26.833 -20.666 49.5 -27.999l300 -100c28 -9.33301 50.833 -24.333 68.5 -45s26.5 -47.334 26.5 -80.001v-45c0 -55.333 -15.333 -98.333 -46 -129s-73.667 -46 -129 -46h-190c-55.333 0 -98.333 15.333 -129 46
s-46 73.667 -46 129v30c0 10 5 15 15 15h35c10 0 15 -5 15 -15v-30c0 -35.333 9.5 -62.5 28.5 -81.5s46.167 -28.5 81.5 -28.5h190c35.333 0 62.5 9.5 81.5 28.5s28.5 46.167 28.5 81.5v40c0 20 -5.16699 35.667 -15.5 47s-26.833 20.666 -49.5 27.999l-300 100
c-28 9.33301 -50.833 24.333 -68.5 45s-26.5 47.334 -26.5 80.001v30c0 55.333 15.333 98.333 46 129s73.667 46 129 46h170c55.333 0 98.333 -15.333 129 -46s46 -73.667 46 -129v-30c0 -10 -5 -15 -15 -15h-35c-10 0 -15 5 -15 15v30c0 35.333 -9.5 62.5 -28.5 81.5
s-46.167 28.5 -81.5 28.5h-170c-35.333 0 -62.5 -9.5 -81.5 -28.5s-28.5 -46.167 -28.5 -81.5v-25zM390 -140c0 -7.33301 -1.16699 -13.333 -3.5 -18l-11.5 -22l-35 -70c-1.33301 -2.66699 -2.83301 -5 -4.5 -7s-5.16699 -3 -10.5 -3h-15c-6 0 -7.66699 3.33301 -5 10l45 90
h-15c-10 0 -15 5 -15 15v40c0 10 5 15 15 15h40c10 0 15 -5 15 -15v-35z" />
    <glyph glyph-name="scommaaccent" unicode="&#x219;" horiz-adv-x="535" 
d="M470 135c0 -96.667 -48.333 -145 -145 -145h-115c-50 0 -88.333 13.333 -115 40s-40 65 -40 115v5c0 10 5 15 15 15h30c10 0 15 -5 15 -15v-5c0 -30 8.33301 -53.333 25 -70s40 -25 70 -25h115c56.667 0 85 28.333 85 85v5c0 15.333 -3.66699 27 -11 35
s-18.666 14.667 -33.999 20l-225 75c-22.667 7.33301 -40.834 19.166 -54.501 35.499s-20.5 39.5 -20.5 69.5c0 96.667 48.333 145 145 145h100c50 0 88.333 -13.333 115 -40s40 -65 40 -115v-5c0 -10 -5 -15 -15 -15h-30c-10 0 -15 5 -15 15v5c0 30 -8.33301 53.333 -25 70
s-40 25 -70 25h-100c-56.667 0 -85 -28.333 -85 -85c0 -15.333 3.66699 -27 11 -35s18.666 -14.667 33.999 -20l225 -75c22.667 -7.33301 40.834 -19.166 54.501 -35.499s20.5 -39.5 20.5 -69.5v-5zM300 -140c0 -7.33301 -1.16699 -13.333 -3.5 -18l-11.5 -22l-35 -70
c-1.33301 -2.66699 -2.83301 -5 -4.5 -7s-5.16699 -3 -10.5 -3h-15c-6 0 -7.66699 3.33301 -5 10l45 90h-15c-10 0 -15 5 -15 15v40c0 10 5 15 15 15h40c10 0 15 -5 15 -15v-35z" />
    <glyph glyph-name="afii57929" unicode="&#x2bc;" horiz-adv-x="146" 
d="M116 650c0 -7.33301 -1.16699 -13.333 -3.5 -18l-11.5 -22l-35 -70c-1.33301 -2.66699 -2.83301 -5 -4.5 -7s-5.16699 -3 -10.5 -3h-15c-6 0 -7.66699 3.33301 -5 10l45 90h-15c-10 0 -15 5 -15 15v40c0 10 5 15 15 15h40c10 0 15 -5 15 -15v-35z" />
    <glyph glyph-name="circumflex" unicode="&#x2c6;" horiz-adv-x="351" 
d="M188 700c7.33301 0 12.5 -1.33301 15.5 -4s6.16699 -6.33398 9.5 -11.001l105 -140c2 -2.66699 3 -5.83398 3 -9.50098s-2.66699 -5.5 -8 -5.5h-30c-7.33301 0 -12.5 1.33301 -15.5 4s-6.16699 6.33398 -9.5 11.001l-80 105h-5l-80 -105
c-3.33301 -4.66699 -6.5 -8.33398 -9.5 -11.001s-8.16699 -4 -15.5 -4h-30c-5.33301 0 -8 1.83301 -8 5.5s1 6.83398 3 9.50098l105 140c3.33301 4.66699 6.5 8.33398 9.5 11.001s8.16699 4 15.5 4h25z" />
    <glyph glyph-name="caron" unicode="&#x2c7;" horiz-adv-x="351" 
d="M163 530c-7.33301 0 -12.5 1.33301 -15.5 4s-6.16699 6.33398 -9.5 11.001l-105 140c-2 2.66699 -3 5.83398 -3 9.50098s2.66699 5.5 8 5.5h30c7.33301 0 12.5 -1.33301 15.5 -4s6.16699 -6.33398 9.5 -11.001l80 -105h5l80 105c3.33301 4.66699 6.5 8.33398 9.5 11.001
s8.16699 4 15.5 4h30c5.33301 0 8 -1.83301 8 -5.5s-1 -6.83398 -3 -9.50098l-105 -140c-3.33301 -4.66699 -6.5 -8.33398 -9.5 -11.001s-8.16699 -4 -15.5 -4h-25z" />
    <glyph glyph-name="breve" unicode="&#x2d8;" horiz-adv-x="335" 
d="M140 560c-35.333 0 -62.5 9.5 -81.5 28.5s-28.5 46.167 -28.5 81.5v15c0 10 5 15 15 15h25c10 0 15 -5 15 -15v-15c0 -36.667 18.333 -55 55 -55h55c36.667 0 55 18.333 55 55v15c0 10 5 15 15 15h25c10 0 15 -5 15 -15v-15c0 -35.333 -9.5 -62.5 -28.5 -81.5
s-46.167 -28.5 -81.5 -28.5h-55z" />
    <glyph glyph-name="dotaccent" unicode="&#x2d9;" horiz-adv-x="130" 
d="M85 700c10 0 15 -5 15 -15v-40c0 -10 -5 -15 -15 -15h-40c-10 0 -15 5 -15 15v40c0 10 5 15 15 15h40z" />
    <glyph glyph-name="ring" unicode="&#x2da;" horiz-adv-x="270" 
d="M140 700c30 0 54.167 -8.83301 72.5 -26.5s27.5 -40.5 27.5 -68.5v-20c0 -28 -9.16699 -50.833 -27.5 -68.5s-42.5 -26.5 -72.5 -26.5h-10c-30 0 -54.167 8.83301 -72.5 26.5s-27.5 40.5 -27.5 68.5v20c0 28 9.16699 50.833 27.5 68.5s42.5 26.5 72.5 26.5h10zM130 655
c-17.333 0 -30.833 -4.5 -40.5 -13.5s-14.5 -21.167 -14.5 -36.5v-20c0 -15.333 4.83301 -27.5 14.5 -36.5s23.167 -13.5 40.5 -13.5h10c17.333 0 30.833 4.5 40.5 13.5s14.5 21.167 14.5 36.5v20c0 15.333 -4.83301 27.5 -14.5 36.5s-23.167 13.5 -40.5 13.5h-10z" />
    <glyph glyph-name="ogonek" unicode="&#x2db;" horiz-adv-x="225" 
d="M195 0c-21.333 -10 -40.666 -21.332 -57.999 -33.999c-14.667 -11.333 -27.834 -24.666 -39.501 -39.999s-17.5 -32.333 -17.5 -51c0 -12.667 4.5 -23.334 13.5 -32.001s21.167 -13 36.5 -13h55c6.66699 0 10 -3.33301 10 -10v-30c0 -6.66699 -3.33301 -10 -10 -10h-55
c-30 0 -54.167 8.83301 -72.5 26.5s-27.5 40.5 -27.5 68.5c0 21.333 5.83301 39.666 17.5 54.999s24.834 28.333 39.501 39c17.333 12 36.666 22.333 57.999 31h50z" />
    <glyph glyph-name="tilde" unicode="&#x2dc;" horiz-adv-x="315" 
d="M220 565c-17.333 0 -31.666 4.5 -42.999 13.5s-21.166 18.667 -29.499 29s-15.666 20 -21.999 29s-13.166 13.5 -20.499 13.5c-16.667 0 -25 -8.33301 -25 -25v-50c0 -6.66699 -3.33301 -10 -10 -10h-30c-6.66699 0 -10 3.33301 -10 10v60c0 20 5.83301 35.833 17.5 47.5
s27.5 17.5 47.5 17.5c17.333 0 31.666 -4.5 42.999 -13.5s21.166 -18.667 29.499 -29s15.666 -20 21.999 -29s13.166 -13.5 20.499 -13.5c16.667 0 25 8.33301 25 25v50c0 6.66699 3.33301 10 10 10h30c6.66699 0 10 -3.33301 10 -10v-60
c0 -20 -5.83301 -35.833 -17.5 -47.5s-27.5 -17.5 -47.5 -17.5z" />
    <glyph glyph-name="hungarumlaut" unicode="&#x2dd;" horiz-adv-x="339" 
d="M77 555c-3.33301 -4.66699 -6.16797 -8.33398 -8.50098 -11.001s-6.16602 -4 -11.499 -4h-15c-5.33301 0 -9 1.33301 -11 4s-1.66699 6.33398 1 11.001l65 130c4.66699 10 11.334 15 20.001 15h35c11.333 0 14.666 -5 9.99902 -15zM221.998 555
c-3.33301 -4.66699 -6.16797 -8.33398 -8.50098 -11.001s-6.16602 -4 -11.499 -4h-15c-5.33301 0 -9 1.33301 -11 4s-1.66699 6.33398 1 11.001l65 130c4.66699 10 11.334 15 20.001 15h35c11.333 0 14.666 -5 9.99902 -15z" />
    <glyph glyph-name="afii10023" unicode="&#x401;" horiz-adv-x="665" 
d="M170 390h340c10 0 15 -5 15 -15v-35c0 -10 -5 -15 -15 -15h-340v-260h440c10 0 15 -5 15 -15v-35c0 -10 -5 -15 -15 -15h-490c-10 0 -15 5 -15 15v670c0 10 5 15 15 15h480c10 0 15 -5 15 -15v-35c0 -10 -5 -15 -15 -15h-430v-245zM295 890c10 0 15 -5 15 -15v-40
c0 -10 -5 -15 -15 -15h-40c-10 0 -15 5 -15 15v40c0 10 5 15 15 15h40zM465 890c10 0 15 -5 15 -15v-40c0 -10 -5 -15 -15 -15h-40c-10 0 -15 5 -15 15v40c0 10 5 15 15 15h40z" />
    <glyph glyph-name="afii10051" unicode="&#x402;" horiz-adv-x="750" 
d="M465 -25c-10 0 -15 5 -15 15v35c0 10 5 15 15 15h50c60 0 90 30 90 90v125c0 35.333 -9.5 62.5 -28.5 81.5s-46.167 28.5 -81.5 28.5h-245v-350c0 -10 -5 -15 -15 -15h-35c-10 0 -15 5 -15 15v620h-170c-10 0 -15 5 -15 15v35c0 10 5 15 15 15h415c10 0 15 -5 15 -15v-35
c0 -10 -5 -15 -15 -15h-180v-205h245c55.333 0 98.333 -15.333 129 -46s46 -73.667 46 -129v-125c0 -50 -13.333 -88.333 -40 -115s-65 -40 -115 -40h-50z" />
    <glyph glyph-name="afii10052" unicode="&#x403;" horiz-adv-x="570" 
d="M170 15c0 -10 -5 -15 -15 -15h-35c-10 0 -15 5 -15 15v670c0 10 5 15 15 15h435c10 0 15 -5 15 -15v-35c0 -10 -5 -15 -15 -15h-385v-620zM362 805c-3.33301 -4.66699 -6.16797 -8.33398 -8.50098 -11.001s-6.16602 -4 -11.499 -4h-20c-5.33301 0 -9 1.33301 -11 4
s-1.66699 6.33398 1 11.001l65 130c4.66699 10 11.334 15 20.001 15h40c11.333 0 14.666 -5 9.99902 -15z" />
    <glyph glyph-name="afii10053" unicode="&#x404;" horiz-adv-x="755" 
d="M670 165c0 -55.333 -15.333 -98.333 -46 -129s-73.667 -46 -129 -46h-225c-55.333 0 -98.333 15.333 -129 46s-46 73.667 -46 129v370c0 55.333 15.333 98.333 46 129s73.667 46 129 46h225c55.333 0 98.333 -15.333 129 -46s46 -73.667 46 -129v-30
c0 -10 -5 -15 -15 -15h-35c-10 0 -15 5 -15 15v30c0 35.333 -9.5 62.5 -28.5 81.5s-46.167 28.5 -81.5 28.5h-225c-35.333 0 -62.5 -9.5 -81.5 -28.5s-28.5 -46.167 -28.5 -81.5v-145h250c10 0 15 -5 15 -15v-35c0 -10 -5 -15 -15 -15h-250v-160
c0 -35.333 9.5 -62.5 28.5 -81.5s46.167 -28.5 81.5 -28.5h225c35.333 0 62.5 9.5 81.5 28.5s28.5 46.167 28.5 81.5v30c0 10 5 15 15 15h35c10 0 15 -5 15 -15v-30z" />
    <glyph glyph-name="afii10054" unicode="&#x405;" horiz-adv-x="700" 
d="M155 510c0 -20 5.16699 -35.667 15.5 -47s26.833 -20.666 49.5 -27.999l300 -100c28 -9.33301 50.833 -24.333 68.5 -45s26.5 -47.334 26.5 -80.001v-45c0 -55.333 -15.333 -98.333 -46 -129s-73.667 -46 -129 -46h-190c-55.333 0 -98.333 15.333 -129 46
s-46 73.667 -46 129v30c0 10 5 15 15 15h35c10 0 15 -5 15 -15v-30c0 -35.333 9.5 -62.5 28.5 -81.5s46.167 -28.5 81.5 -28.5h190c35.333 0 62.5 9.5 81.5 28.5s28.5 46.167 28.5 81.5v40c0 20 -5.16699 35.667 -15.5 47s-26.833 20.666 -49.5 27.999l-300 100
c-28 9.33301 -50.833 24.333 -68.5 45s-26.5 47.334 -26.5 80.001v30c0 55.333 15.333 98.333 46 129s73.667 46 129 46h170c55.333 0 98.333 -15.333 129 -46s46 -73.667 46 -129v-30c0 -10 -5 -15 -15 -15h-35c-10 0 -15 5 -15 15v30c0 35.333 -9.5 62.5 -28.5 81.5
s-46.167 28.5 -81.5 28.5h-170c-35.333 0 -62.5 -9.5 -81.5 -28.5s-28.5 -46.167 -28.5 -81.5v-25z" />
    <glyph glyph-name="afii10055" unicode="&#x406;" horiz-adv-x="275" 
d="M170 15c0 -10 -5 -15 -15 -15h-35c-10 0 -15 5 -15 15v670c0 10 5 15 15 15h35c10 0 15 -5 15 -15v-670z" />
    <glyph glyph-name="afii10056" unicode="&#x407;" horiz-adv-x="275" 
d="M170 15c0 -10 -5 -15 -15 -15h-35c-10 0 -15 5 -15 15v670c0 10 5 15 15 15h35c10 0 15 -5 15 -15v-670zM76 890c10 0 15 -5 15 -15v-40c0 -10 -5 -15 -15 -15h-40c-10 0 -15 5 -15 15v40c0 10 5 15 15 15h40zM246 890c10 0 15 -5 15 -15v-40c0 -10 -5 -15 -15 -15h-40
c-10 0 -15 5 -15 15v40c0 10 5 15 15 15h40z" />
    <glyph glyph-name="afii10057" unicode="&#x408;" horiz-adv-x="660" 
d="M555 165c0 -55.333 -15.333 -98.333 -46 -129s-73.667 -46 -129 -46h-150c-55.333 0 -98.333 15.333 -129 46s-46 73.667 -46 129v50c0 10 5 15 15 15h35c10 0 15 -5 15 -15v-50c0 -35.333 9.5 -62.5 28.5 -81.5s46.167 -28.5 81.5 -28.5h150
c35.333 0 62.5 9.5 81.5 28.5s28.5 46.167 28.5 81.5v520c0 10 5 15 15 15h35c10 0 15 -5 15 -15v-520z" />
    <glyph glyph-name="afii10058" unicode="&#x409;" horiz-adv-x="1100" 
d="M545 0c-10 0 -14.999 5.00195 -14.999 15.002v620h-240l-110 -495c-11.333 -52.667 -29.166 -90.834 -53.499 -114.501s-56.5 -35.5 -96.5 -35.5h-15c-10 0 -15 5 -15 15v35c0 10 5 15 15 15h15c44 0 72.333 28.333 85 85l120 545
c1.33301 5.33301 3.16602 9.16602 5.49902 11.499s7.16602 3.5 14.499 3.5h325c10 0 15 -5 15 -15v-220h245c55.333 0 98.333 -15.333 129 -46s46 -73.667 46 -129v-115c0 -55.333 -15.333 -98.333 -46 -129s-73.667 -46 -129 -46h-295zM840.001 65.002
c35.333 0 62.5 9.5 81.5 28.5s28.5 46.167 28.5 81.5v115c0 35.333 -9.5 62.5 -28.5 81.5s-46.167 28.5 -81.5 28.5h-245v-335h245z" />
    <glyph glyph-name="afii10059" unicode="&#x40a;" horiz-adv-x="1115" 
d="M550 0c-10 0 -15 5 -15 15v350h-365v-350c0 -10 -5 -15 -15 -15h-35c-10 0 -15 5 -15 15v670c0 10 5 15 15 15h35c10 0 15 -5 15 -15v-255h365v255c0 10 5 15 15 15h35c10 0 15 -5 15 -15v-255h255c55.333 0 98.333 -15.333 129 -46s46 -73.667 46 -129v-80
c0 -55.333 -15.333 -98.333 -46 -129s-73.667 -46 -129 -46h-305zM855 65c35.333 0 62.5 9.5 81.5 28.5s28.5 46.167 28.5 81.5v80c0 35.333 -9.5 62.5 -28.5 81.5s-46.167 28.5 -81.5 28.5h-255v-300h255z" />
    <glyph glyph-name="afii10060" unicode="&#x40b;" horiz-adv-x="765" 
d="M670 15c0 -10 -5 -15 -15 -15h-35c-10 0 -15 5 -15 15v240c0 35.333 -9.5 62.5 -28.5 81.5s-46.167 28.5 -81.5 28.5h-245v-350c0 -10 -5 -15 -15 -15h-35c-10 0 -15 5 -15 15v620h-170c-10 0 -15 5 -15 15v35c0 10 5 15 15 15h415c10 0 15 -5 15 -15v-35
c0 -10 -5 -15 -15 -15h-180v-205h245c55.333 0 98.333 -15.333 129 -46s46 -73.667 46 -129v-240z" />
    <glyph glyph-name="afii10061" unicode="&#x40c;" horiz-adv-x="682" 
d="M170 335v-319.998c0 -10 -5 -15 -15 -15h-35c-10 0 -15 5 -15 15v670c0 10 5 15 15 15h35c10 0 15 -5 15 -15v-285h225l155 285c3.33301 5.33301 6.16602 9.16602 8.49902 11.499s6.16602 3.5 11.499 3.5h45c11.333 0 14.666 -5 9.99902 -15l-175 -315l195 -355
c4.66699 -10 1.33398 -15 -9.99902 -15h-45c-5.33301 0 -9.16602 1.16699 -11.499 3.5s-5.16602 6.16602 -8.49902 11.499l-175 320h-225zM373 805.002c-3.33301 -4.66699 -6.16797 -8.33398 -8.50098 -11.001s-6.16602 -4 -11.499 -4h-20c-5.33301 0 -9 1.33301 -11 4
s-1.66699 6.33398 1 11.001l65 130c4.66699 10 11.334 15 20.001 15h40c11.333 0 14.666 -5 9.99902 -15z" />
    <glyph glyph-name="afii10062" unicode="&#x40e;" horiz-adv-x="609" 
d="M335 855c40 0 60 20 60 60v15c0 10 5 15 15 15h30c10 0 15 -5 15 -15v-15c0 -80 -38.333 -120 -115 -120h-75c-76.667 0 -115 40 -115 120v15c0 10 5 15 15 15h30c10 0 15 -5 15 -15v-15c0 -40 20 -60 60 -60h65zM17 685c-2.66699 5.33301 -3 9.16504 -1 11.498
s5.66699 3.5 11 3.5h45c5.33301 0 9.33301 -1.16699 12 -3.5s5.33398 -6.16602 8.00098 -11.499l218 -450h4l203 450c4 10 10.667 15 20 15h45c11.333 0 14.666 -5 9.99902 -15l-245 -530c-25.333 -55.333 -52.5 -96.666 -81.5 -123.999s-63.5 -41 -103.5 -41h-20
c-10 0 -15 5 -15 15v35c0 10 5 15 15 15h20c25.333 0 47 8.5 65 25.5s34.667 41.833 50 74.5z" />
    <glyph glyph-name="afii10145" unicode="&#x40f;" horiz-adv-x="755" 
d="M345 0h-225c-10 0 -15 5 -15 15v670c0 10 5 15 15 15h35c10 0 15 -5 15 -15v-620h415v620c0 10 5 15 15 15h35c10 0 15 -5 15 -15v-670c0 -10 -5 -15 -15 -15h-225v-120c0 -10 -5 -15 -15 -15h-35c-10 0 -15 5 -15 15v120z" />
    <glyph glyph-name="afii10017" unicode="&#x410;" horiz-adv-x="649" 
d="M487 195h-325l-70 -180c-4 -10 -10.667 -15 -20 -15h-45c-10.667 0 -14 5 -10 15l265 670c4 10 10.667 15 20 15h45c9.33301 0 16 -5 20 -15l265 -670c4 -10 0.666992 -15 -10 -15h-45c-9.33301 0 -16 5 -20 15zM462 260l-135 360h-5l-135 -360h275z" />
    <glyph glyph-name="afii10018" unicode="&#x411;" horiz-adv-x="730" 
d="M120 0c-10 0 -15 5 -15 15v670c0 10 5 15 15 15h465c10 0 15 -5 15 -15v-35c0 -10 -5 -15 -15 -15h-415v-205h305c55.333 0 98.333 -15.333 129 -46s46 -73.667 46 -129v-80c0 -55.333 -15.333 -98.333 -46 -129s-73.667 -46 -129 -46h-355zM475 65
c35.333 0 62.5 9.5 81.5 28.5s28.5 46.167 28.5 81.5v80c0 35.333 -9.5 62.5 -28.5 81.5s-46.167 28.5 -81.5 28.5h-305v-300h305z" />
    <glyph glyph-name="afii10019" unicode="&#x412;" horiz-adv-x="715" 
d="M430 700c55.333 0 98.334 -15.3301 129.001 -45.9971s46 -73.667 46 -129v-10c0 -26.667 -4.16699 -48.334 -12.5 -65.001s-17.5 -29.667 -27.5 -39c-12 -11.333 -25.333 -20 -40 -26v-5c22.667 -5.33301 42.667 -14 60 -26
c15.333 -10.667 29.166 -25.834 41.499 -45.501s18.5 -45.834 18.5 -78.501v-55c0 -55.333 -15.333 -98.333 -46 -129s-73.667 -46 -129 -46h-350c-10 0 -15 5 -15 15v670c0 10 5 15 15 15h310zM470.001 65.0029c35.333 0 62.5 9.5 81.5 28.5s28.5 46.167 28.5 81.5v55
c0 35.333 -9.5 62.5 -28.5 81.5s-46.167 28.5 -81.5 28.5h-300v-275h300zM170.001 635.003v-230h260c35.333 0 62.5 9.5 81.5 28.5s28.5 46.167 28.5 81.5v10c0 35.333 -9.5 62.5 -28.5 81.5s-46.167 28.5 -81.5 28.5h-260z" />
    <glyph glyph-name="afii10020" unicode="&#x413;" horiz-adv-x="570" 
d="M170 15c0 -10 -5 -15 -15 -15h-35c-10 0 -15 5 -15 15v670c0 10 5 15 15 15h435c10 0 15 -5 15 -15v-35c0 -10 -5 -15 -15 -15h-385v-620z" />
    <glyph glyph-name="afii10021" unicode="&#x414;" horiz-adv-x="720" 
d="M75 65l135.002 620.001c1.33301 5.33301 3.16602 9.16602 5.49902 11.499s7.16602 3.5 14.499 3.5h355c10 0 15 -5 15 -15v-620h65c10 0 15 -5 15 -15v-170c0 -10 -5 -15 -15 -15h-35c-10 0 -15 5 -15 15v120h-550v-120c0 -10 -5 -15 -15 -15h-35c-10 0 -15 5 -15 15v170
c0 10 5 15 15 15h60zM535.002 65.001v570h-270l-125 -570h395z" />
    <glyph glyph-name="afii10022" unicode="&#x415;" horiz-adv-x="665" 
d="M170 390h340c10 0 15 -5 15 -15v-35c0 -10 -5 -15 -15 -15h-340v-260h440c10 0 15 -5 15 -15v-35c0 -10 -5 -15 -15 -15h-490c-10 0 -15 5 -15 15v670c0 10 5 15 15 15h480c10 0 15 -5 15 -15v-35c0 -10 -5 -15 -15 -15h-430v-245z" />
    <glyph glyph-name="afii10024" unicode="&#x416;" horiz-adv-x="979" 
d="M522 335v-319.998c0 -10 -5 -15 -15 -15h-35c-10 0 -15 5 -15 15v320h-170l-175 -320c-3.33301 -5.33301 -6.16602 -9.16602 -8.49902 -11.499s-6.16602 -3.5 -11.499 -3.5h-45c-5.33301 0 -9 1.16699 -11 3.5s-1.66699 6.16602 1 11.499l195 355l-175 315
c-2.66699 5.33301 -3 9.16602 -1 11.499s5.66699 3.5 11 3.5h45c5.33301 0 9.16602 -1.16699 11.499 -3.5s5.16602 -6.16602 8.49902 -11.499l155 -285h170v285c0 10 5 15 15 15h35c10 0 15 -5 15 -15v-285h170l155 285c3.33301 5.33301 6.16602 9.16602 8.49902 11.499
s6.16602 3.5 11.499 3.5h45c11.333 0 14.666 -5 9.99902 -15l-175 -315l195 -355c4.66699 -10 1.33398 -15 -9.99902 -15h-45c-5.33301 0 -9.16602 1.16699 -11.499 3.5s-5.16602 6.16602 -8.49902 11.499l-175 320h-170z" />
    <glyph glyph-name="afii10025" unicode="&#x417;" horiz-adv-x="710" 
d="M325 325c-10 0 -14.999 5.00098 -14.999 15.001v35c0 10 5 15 15 15h115c35.333 0 62.5 9.5 81.5 28.5s28.5 46.167 28.5 81.5v35c0 35.333 -9.5 62.5 -28.5 81.5s-46.167 28.5 -81.5 28.5h-180c-35.333 0 -62.5 -9.5 -81.5 -28.5s-28.5 -46.167 -28.5 -81.5v-30
c0 -10 -5 -15 -15 -15h-35c-10 0 -15 5 -15 15v30c0 55.333 15.333 98.333 46 129s73.667 46 129 46h180c55.333 0 98.333 -15.333 129 -46s46 -73.667 46 -129v-35c0 -29.333 -5 -52.833 -15 -70.5s-21 -31.167 -33 -40.5c-14 -11.333 -29.667 -19.333 -47 -24v-5
c19.333 -5.33301 36.666 -14 51.999 -26c13.333 -10.667 25.5 -25.334 36.5 -44.001s16.5 -43.667 16.5 -75v-50c0 -55.333 -15.333 -98.333 -46 -129s-73.667 -46 -129 -46h-200c-55.333 0 -98.333 15.333 -129 46s-46 73.667 -46 129v30c0 10 5 15 15 15h35
c10 0 15 -5 15 -15v-30c0 -35.333 9.5 -62.5 28.5 -81.5s46.167 -28.5 81.5 -28.5h200c35.333 0 62.5 9.5 81.5 28.5s28.5 46.167 28.5 81.5v50c0 35.333 -9.5 62.5 -28.5 81.5s-46.167 28.5 -81.5 28.5h-125z" />
    <glyph glyph-name="afii10026" unicode="&#x418;" horiz-adv-x="775" 
d="M600 600l-405 -585c-3.33301 -5.33301 -6.66602 -9.16602 -9.99902 -11.499s-10 -3.5 -20 -3.5h-45c-10 0 -15 5 -15 15v670c0 10 5 15 15 15h35c10 0 15 -5 15 -15v-585h5l405 585c3.33301 5.33301 6.66602 9.16602 9.99902 11.499s10 3.5 20 3.5h45c10 0 15 -5 15 -15
v-670c0 -10 -5 -15 -15 -15h-35c-10 0 -15 5 -15 15v585h-5z" />
    <glyph glyph-name="afii10027" unicode="&#x419;" horiz-adv-x="775" 
d="M600 600l-405 -585c-3.33301 -5.33301 -6.66602 -9.16602 -9.99902 -11.499s-10 -3.5 -20 -3.5h-45c-10 0 -15 5 -15 15v670c0 10 5 15 15 15h35c10 0 15 -5 15 -15v-585h5l405 585c3.33301 5.33301 6.66602 9.16602 9.99902 11.499s10 3.5 20 3.5h45c10 0 15 -5 15 -15
v-670c0 -10 -5 -15 -15 -15h-35c-10 0 -15 5 -15 15v585h-5zM420 850c40 0 60 20 60 60v15c0 10 5 15 15 15h30c10 0 15 -5 15 -15v-15c0 -80 -38.333 -120 -115 -120h-75c-76.667 0 -115 40 -115 120v15c0 10 5 15 15 15h30c10 0 15 -5 15 -15v-15c0 -40 20 -60 60 -60h65z
" />
    <glyph glyph-name="afii10028" unicode="&#x41a;" horiz-adv-x="682" 
d="M170 335v-319.998c0 -10 -5 -15 -15 -15h-35c-10 0 -15 5 -15 15v670c0 10 5 15 15 15h35c10 0 15 -5 15 -15v-285h225l155 285c3.33301 5.33301 6.16602 9.16602 8.49902 11.499s6.16602 3.5 11.499 3.5h45c11.333 0 14.666 -5 9.99902 -15l-175 -315l195 -355
c4.66699 -10 1.33398 -15 -9.99902 -15h-45c-5.33301 0 -9.16602 1.16699 -11.499 3.5s-5.16602 6.16602 -8.49902 11.499l-175 320h-225z" />
    <glyph glyph-name="afii10029" unicode="&#x41b;" horiz-adv-x="730" 
d="M0 40c0 10 5.00098 15.002 15.001 15.002h15c44 0 72.333 28.333 85 85l120 545c1.33301 5.33301 3.16602 9.16602 5.49902 11.499s7.16602 3.5 14.499 3.5h355c10 0 15 -5 15 -15v-670c0 -10 -5 -15 -15 -15h-35c-10 0 -15 5 -15 15v620h-270l-110 -495
c-11.333 -52.667 -29.166 -90.834 -53.499 -114.501s-56.5 -35.5 -96.5 -35.5h-15c-10 0 -15 5 -15 15v35z" />
    <glyph glyph-name="afii10030" unicode="&#x41c;" horiz-adv-x="965" 
d="M485 90l285 595c2.66699 5.33301 5.66699 9.16602 9 11.499s8.66602 3.5 15.999 3.5h50c10 0 15 -5 15 -15v-670c0 -10 -5 -15 -15 -15h-35c-10 0 -15 5 -15 15v565h-5l-270 -565c-2.66699 -5.33301 -5.66699 -9.16602 -9 -11.499s-8.66602 -3.5 -15.999 -3.5h-25
c-7.33301 0 -12.666 1.16699 -15.999 3.5s-6.33301 6.16602 -9 11.499l-270 565h-5v-565c0 -10 -5 -15 -15 -15h-35c-10 0 -15 5 -15 15v670c0 10 5 15 15 15h50c7.33301 0 12.666 -1.16699 15.999 -3.5s6.33301 -6.16602 9 -11.499l285 -595h5z" />
    <glyph glyph-name="afii10031" unicode="&#x41d;" horiz-adv-x="750" 
d="M170 385h410v300c0 10 5 15 15 15h35c10 0 15 -5 15 -15v-670c0 -10 -5 -15 -15 -15h-35c-10 0 -15 5 -15 15v305h-410v-305c0 -10 -5 -15 -15 -15h-35c-10 0 -15 5 -15 15v670c0 10 5 15 15 15h35c10 0 15 -5 15 -15v-300z" />
    <glyph glyph-name="afii10032" unicode="&#x41e;" horiz-adv-x="780" 
d="M620 535c0 35.333 -9.5 62.5 -28.5 81.5s-46.167 28.5 -81.5 28.5h-240c-35.333 0 -62.5 -9.5 -81.5 -28.5s-28.5 -46.167 -28.5 -81.5v-370c0 -35.333 9.5 -62.5 28.5 -81.5s46.167 -28.5 81.5 -28.5h240c35.333 0 62.5 9.5 81.5 28.5s28.5 46.167 28.5 81.5v370z
M685 165c0 -55.333 -15.333 -98.333 -46 -129s-73.667 -46 -129 -46h-240c-55.333 0 -98.333 15.333 -129 46s-46 73.667 -46 129v370c0 55.333 15.333 98.333 46 129s73.667 46 129 46h240c55.333 0 98.333 -15.333 129 -46s46 -73.667 46 -129v-370z" />
    <glyph glyph-name="afii10033" unicode="&#x41f;" horiz-adv-x="750" 
d="M630 700c10 0 15 -5 15 -15v-670c0 -10 -5 -15 -15 -15h-35c-10 0 -15 5 -15 15v620h-410v-620c0 -10 -5 -15 -15 -15h-35c-10 0 -15 5 -15 15v670c0 10 5 15 15 15h510z" />
    <glyph glyph-name="afii10034" unicode="&#x420;" horiz-adv-x="725" 
d="M465 700c55.333 0 98.333 -15.333 129 -46s46 -73.667 46 -129v-120c0 -55.333 -15.333 -98.333 -46 -129s-73.667 -46 -129 -46h-295v-215c0 -10 -5 -15 -15 -15h-35c-10 0 -15 5 -15 15v670c0 10 5 15 15 15h345zM170 635v-340h295c35.333 0 62.5 9.5 81.5 28.5
s28.5 46.167 28.5 81.5v120c0 35.333 -9.5 62.5 -28.5 81.5s-46.167 28.5 -81.5 28.5h-295z" />
    <glyph glyph-name="afii10035" unicode="&#x421;" horiz-adv-x="755" 
d="M670 165c0 -55.333 -15.333 -98.333 -46 -129s-73.667 -46 -129 -46h-225c-55.333 0 -98.333 15.333 -129 46s-46 73.667 -46 129v370c0 55.333 15.333 98.333 46 129s73.667 46 129 46h225c55.333 0 98.333 -15.333 129 -46s46 -73.667 46 -129v-30
c0 -10 -5 -15 -15 -15h-35c-10 0 -15 5 -15 15v30c0 35.333 -9.5 62.5 -28.5 81.5s-46.167 28.5 -81.5 28.5h-225c-35.333 0 -62.5 -9.5 -81.5 -28.5s-28.5 -46.167 -28.5 -81.5v-370c0 -35.333 9.5 -62.5 28.5 -81.5s46.167 -28.5 81.5 -28.5h225
c35.333 0 62.5 9.5 81.5 28.5s28.5 46.167 28.5 81.5v30c0 10 5 15 15 15h35c10 0 15 -5 15 -15v-30z" />
    <glyph glyph-name="afii10036" unicode="&#x422;" horiz-adv-x="575" 
d="M255 635h-230c-10 0 -15 5 -15 15v35c0 10 5 15 15 15h525c10 0 15 -5 15 -15v-35c0 -10 -5 -15 -15 -15h-230v-620c0 -10 -5 -15 -15 -15h-35c-10 0 -15 5 -15 15v620z" />
    <glyph glyph-name="afii10037" unicode="&#x423;" horiz-adv-x="609" 
d="M17 685c-2.66699 5.33301 -3 9.16504 -1 11.498s5.66699 3.5 11 3.5h45c5.33301 0 9.33301 -1.16699 12 -3.5s5.33398 -6.16602 8.00098 -11.499l218 -450h4l203 450c4 10 10.667 15 20 15h45c11.333 0 14.666 -5 9.99902 -15l-245 -530
c-25.333 -55.333 -52.5 -96.666 -81.5 -123.999s-63.5 -41 -103.5 -41h-20c-10 0 -15 5 -15 15v35c0 10 5 15 15 15h20c25.333 0 47 8.5 65 25.5s34.667 41.833 50 74.5z" />
    <glyph glyph-name="afii10038" unicode="&#x424;" horiz-adv-x="925" 
d="M840 225c0 -55.333 -15.333 -98.333 -46 -129s-73.667 -46 -129 -46h-170v-85c0 -10 -5 -15 -15 -15h-35c-10 0 -15 5 -15 15v85h-170c-55.333 0 -98.333 15.333 -129 46s-46 73.667 -46 129v260c0 55.333 15.333 98.333 46 129s73.667 46 129 46h170v85c0 10 5 15 15 15
h35c10 0 15 -5 15 -15v-85h170c55.333 0 98.333 -15.333 129 -46s46 -73.667 46 -129v-260zM775 485c0 35.333 -9.5 62.5 -28.5 81.5s-46.167 28.5 -81.5 28.5h-170v-480h170c35.333 0 62.5 9.5 81.5 28.5s28.5 46.167 28.5 81.5v260zM150 225
c0 -35.333 9.5 -62.5 28.5 -81.5s46.167 -28.5 81.5 -28.5h170v480h-170c-35.333 0 -62.5 -9.5 -81.5 -28.5s-28.5 -46.167 -28.5 -81.5v-260z" />
    <glyph glyph-name="afii10039" unicode="&#x425;" horiz-adv-x="606" 
d="M343 370l240 -355c3.33301 -5.33301 4 -9.16602 2 -11.499s-4.33301 -3.5 -7 -3.5h-45c-7.33301 0 -12.5 1.16699 -15.5 3.5s-6.16699 6.16602 -9.5 11.499l-205 300l-205 -300c-3.33301 -5.33301 -6.5 -9.16602 -9.5 -11.499s-8.16699 -3.5 -15.5 -3.5h-45
c-2.66699 0 -5 1.16699 -7 3.5s-1.33301 6.16602 2 11.499l240 355l-220 315c-3.33301 5.33301 -4 9.16602 -2 11.499s4.33301 3.5 7 3.5h45c7.33301 0 12.5 -1.16699 15.5 -3.5s6.16699 -6.16602 9.5 -11.499l185 -265l185 265c3.33301 5.33301 6.5 9.16602 9.5 11.499
s8.16699 3.5 15.5 3.5h45c2.66699 0 5 -1.16699 7 -3.5s1.33301 -6.16602 -2 -11.499z" />
    <glyph glyph-name="afii10040" unicode="&#x426;" horiz-adv-x="734" 
d="M120 0c-10 0 -15 5 -15 15v670c0 10 5 15 15 15h35c10 0 15 -5 15 -15v-620h390v620c0 10 5 15 15 15h35c10 0 15 -5 15 -15v-635l95 -105c2.66699 -2.66699 4 -6 4 -10s-1.33301 -7.33301 -4 -10l-25 -25c-2.66699 -2.66699 -6 -4 -10 -4s-7.33301 1.33301 -10 4
l-90 100h-465z" />
    <glyph glyph-name="afii10041" unicode="&#x427;" horiz-adv-x="715" 
d="M95 685c0 10 5 15 15 15h35c10 0 15 -5 15 -15v-270c0 -35.333 9.5 -62.5 28.5 -81.5s46.167 -28.5 81.5 -28.5h275v380c0 10 5 15 15 15h35c10 0 15 -5 15 -15v-670c0 -10 -5 -15 -15 -15h-35c-10 0 -15 5 -15 15v225h-275c-55.333 0 -98.333 15.333 -129 46
s-46 73.667 -46 129v270z" />
    <glyph glyph-name="afii10042" unicode="&#x428;" horiz-adv-x="1005" 
d="M120 0c-10 0 -15 5 -15 15v670c0 10 5 15 15 15h35c10 0 15 -5 15 -15v-620h300v620c0 10 5 15 15 15h35c10 0 15 -5 15 -15v-620h300v620c0 10 5 15 15 15h35c10 0 15 -5 15 -15v-670c0 -10 -5 -15 -15 -15h-765z" />
    <glyph glyph-name="afii10043" unicode="&#x429;" horiz-adv-x="1009" 
d="M900 50l95 -105c2.66699 -2.66699 4 -6 4 -10s-1.33301 -7.33301 -4 -10l-25 -25c-2.66699 -2.66699 -6 -4 -10 -4s-7.33301 1.33301 -10 4l-90 100h-740c-10 0 -15 5 -15 15v670c0 10 5 15 15 15h35c10 0 15 -5 15 -15v-620h300v620c0 10 5 15 15 15h35
c10 0 15 -5 15 -15v-620h300v620c0 10 5 15 15 15h35c10 0 15 -5 15 -15v-635z" />
    <glyph glyph-name="afii10044" unicode="&#x42a;" horiz-adv-x="740" 
d="M175 0c-10 0 -15 5 -15 15v620h-145c-10 0 -15 5 -15 15v35c0 10 5 15 15 15h195c10 0 15 -5 15 -15v-220h255c55.333 0 98.333 -15.333 129 -46s46 -73.667 46 -129v-115c0 -55.333 -15.333 -98.333 -46 -129s-73.667 -46 -129 -46h-305zM480 65
c35.333 0 62.5 9.5 81.5 28.5s28.5 46.167 28.5 81.5v115c0 35.333 -9.5 62.5 -28.5 81.5s-46.167 28.5 -81.5 28.5h-255v-335h255z" />
    <glyph glyph-name="afii10045" unicode="&#x42b;" horiz-adv-x="890" 
d="M120 0c-10 0 -15 5 -15 15v670c0 10 5 15 15 15h35c10 0 15 -5 15 -15v-220h245c55.333 0 98.333 -15.333 129 -46s46 -73.667 46 -129v-115c0 -55.333 -15.333 -98.333 -46 -129s-73.667 -46 -129 -46h-295zM415 65c35.333 0 62.5 9.5 81.5 28.5s28.5 46.167 28.5 81.5
v115c0 35.333 -9.5 62.5 -28.5 81.5s-46.167 28.5 -81.5 28.5h-245v-335h245zM785 15c0 -10 -5 -15 -15 -15h-35c-10 0 -15 5 -15 15v670c0 10 5 15 15 15h35c10 0 15 -5 15 -15v-670z" />
    <glyph glyph-name="afii10046" unicode="&#x42c;" horiz-adv-x="715" 
d="M120 0c-10 0 -15 5 -15 15v670c0 10 5 15 15 15h35c10 0 15 -5 15 -15v-220h285c55.333 0 98.333 -15.333 129 -46s46 -73.667 46 -129v-115c0 -55.333 -15.333 -98.333 -46 -129s-73.667 -46 -129 -46h-335zM455 65c35.333 0 62.5 9.5 81.5 28.5s28.5 46.167 28.5 81.5
v115c0 35.333 -9.5 62.5 -28.5 81.5s-46.167 28.5 -81.5 28.5h-285v-335h285z" />
    <glyph glyph-name="afii10047" unicode="&#x42d;" horiz-adv-x="755" 
d="M85 195c0 10 5 15 15 15h35c10 0 15 -5 15 -15v-30c0 -35.333 9.5 -62.5 28.5 -81.5s46.167 -28.5 81.5 -28.5h225c35.333 0 62.5 9.5 81.5 28.5s28.5 46.167 28.5 81.5v160h-250c-10 0 -15 5 -15 15v35c0 10 5 15 15 15h250v145c0 35.333 -9.5 62.5 -28.5 81.5
s-46.167 28.5 -81.5 28.5h-225c-35.333 0 -62.5 -9.5 -81.5 -28.5s-28.5 -46.167 -28.5 -81.5v-30c0 -10 -5 -15 -15 -15h-35c-10 0 -15 5 -15 15v30c0 55.333 15.333 98.333 46 129s73.667 46 129 46h225c55.333 0 98.333 -15.333 129 -46s46 -73.667 46 -129v-370
c0 -55.333 -15.333 -98.333 -46 -129s-73.667 -46 -129 -46h-225c-55.333 0 -98.333 15.333 -129 46s-46 73.667 -46 129v30z" />
    <glyph glyph-name="afii10048" unicode="&#x42e;" horiz-adv-x="985" 
d="M890 165c0 -55.333 -15.333 -98.333 -46 -129s-73.667 -46 -129 -46h-185c-55.333 0 -98.333 15.333 -129 46s-46 73.667 -46 129v150h-185v-300c0 -10 -5 -15 -15 -15h-35c-10 0 -15 5 -15 15v670c0 10 5 15 15 15h35c10 0 15 -5 15 -15v-305h185v155
c0 55.333 15.333 98.333 46 129s73.667 46 129 46h185c55.333 0 98.333 -15.333 129 -46s46 -73.667 46 -129v-370zM825 535c0 35.333 -9.5 62.5 -28.5 81.5s-46.167 28.5 -81.5 28.5h-185c-35.333 0 -62.5 -9.5 -81.5 -28.5s-28.5 -46.167 -28.5 -81.5v-370
c0 -35.333 9.5 -62.5 28.5 -81.5s46.167 -28.5 81.5 -28.5h185c35.333 0 62.5 9.5 81.5 28.5s28.5 46.167 28.5 81.5v370z" />
    <glyph glyph-name="afii10049" unicode="&#x42f;" horiz-adv-x="727" 
d="M607 700c10 0 14.999 -5 14.999 -15v-670c0 -10 -5 -15 -15 -15h-35c-10 0 -15 5 -15 15v235h-270l-130 -235c-3.33301 -5.33301 -6.16602 -9.16602 -8.49902 -11.499s-6.16602 -3.5 -11.499 -3.5h-45c-5.33301 0 -9 1.16699 -11 3.5s-1.66699 6.16602 1 11.499l135 245
c-24.667 4 -46.334 12.667 -65.001 26c-16.667 11.333 -31.667 27.833 -45 49.5s-20 51.5 -20 89.5v100c0 55.333 15.333 98.333 46 129s73.667 46 129 46h345zM261.999 635c-35.333 0 -62.5 -9.5 -81.5 -28.5s-28.5 -46.167 -28.5 -81.5v-100
c0 -35.333 9.5 -62.5 28.5 -81.5s46.167 -28.5 81.5 -28.5h295v320h-295z" />
    </font>
</defs>
</svg>
